{
.appVersion = "895";
classes = (
{
code = "A B C D E F G H I J K L M N O P Q R S T U V W X Y Z AE AEacute Aacute Abreve Acircumflex Adieresis Agrave Amacron Aogonek Aring Aringacute Atilde Abreveacute Abrevedotbelow Abrevegrave Abrevehookabove Abrevetilde Acaron Acircumflexacute Acircumflexdotbelow Acircumflexgrave Acircumflexhookabove Acircumflextilde Adotbelow Ahookabove Cacute Ccaron Ccedilla Ccircumflex Cdotaccent Dcaron Dcroat Eacute Ebreve Ecaron Ecircumflex Edieresis Edotaccent Egrave Emacron Ecircumflexacute Ecircumflexdotbelow Ecircumflexgrave Ecircumflexhookabove Ecircumflextilde Edotbelow Ehookabove Etilde Eogonek Eng Eth Gbreve Gcircumflex Gcommaaccent Gdotaccent Germandbls Hbar Hcircumflex IJ Iacute Ibreve Icircumflex Idieresis Idotaccent Igrave Imacron Iogonek Itilde Icaron Idotbelow Ihookabove Jcircumflex Kcommaaccent Lacute Lcaron Lcommaaccent Ldot Lslash Nacute Ncaron Ncommaaccent Ntilde OE Oacute Obreve Ocircumflex Odieresis Ograve Ohungarumlaut Omacron Oslash Oslashacute Otilde Ocaron Ocircumflexacute Ocircumflexdotbelow Ocircumflexgrave Ocircumflexhookabove Ocircumflextilde Odotbelow Ohookabove Ohorn Ohornacute Ohorndotbelow Ohorngrave Ohornhookabove Ohorntilde Oogonek Racute Rcaron Rcommaaccent Sacute Scaron Scedilla Scircumflex Scommaaccent Tbar Tcaron Tcedilla Thorn Tcommaaccent Uacute Ubreve Ucircumflex Udieresis Ugrave Uhungarumlaut Umacron Uogonek Uring Utilde Ucaron Udieresisacute Udieresiscaron Udieresisgrave Udieresismacron Udotbelow Uhookabove Uhorn Uhornacute Uhorndotbelow Uhorngrave Uhornhookabove Uhorntilde Wacute Wcircumflex Wdieresis Wgrave Yacute Ycircumflex Ydieresis Ygrave Ydotbelow Yhookabove Ytilde Zacute Zcaron Zdotaccent Iacute_J.loclNLD";
name = mayusc;
},
{
code = "a b c d e f g h i j k l m n o p q r s t u v w x y z";
name = ordn1;
},
{

glyphs = (
{
color = 1;
glyphname = A;
lastChange = "2016-10-28 13:22:50 +0000";
layers = (
{
anchors = (
{
name = ogonek;
position = "{595, 10}";
},
{
name = top;
position = "{291, 641}";
}
);
layerId = "EDFD1FE9-67C2-43D2-81E5-EF1682ABC3BD";
paths = (
{
closed = 1;
nodes = (
"246 641 LINE",
"13 0 LINE SMOOTH",
"99 0 LINE",
"115 70 LINE",
"290 554 LINE",
"297 554 LINE",
"456 66 LINE",
"471 0 LINE",
"559 0 LINE",
"346 641 LINE"
);
},
{
closed = 1;
nodes = (
"286 241 LINE",
"144 242 LINE",
"141 175 LINE",
"279 177 LINE",
"429 176 LINE",
"425 242 LINE"
);
}
);
width = 580;
}
);
leftKerningGroup = A;
rightKerningGroup = A;
unicode = 0041;
},
{
color = 0;
glyphname = Aogonek;
lastChange = "2016-10-28 13:22:50 +0000";
layers = (
{
components = (
{
name = A;
}
);
layerId = "EDFD1FE9-67C2-43D2-81E5-EF1682ABC3BD";
paths = (
{
closed = 1;
nodes = (
"489 0 LINE",
"446 -62 OFFCURVE",
"433 -92 OFFCURVE",
"433 -121 CURVE SMOOTH",
"433 -165 OFFCURVE",
"463 -197 OFFCURVE",
"512 -197 CURVE SMOOTH",
"548 -197 OFFCURVE",
"580 -178 OFFCURVE",
"612 -144 CURVE",
"601 -108 LINE",
"596 -108 LINE",
"573 -134 OFFCURVE",
"546 -149 OFFCURVE",
"522 -149 CURVE SMOOTH",
"495 -149 OFFCURVE",
"480 -132 OFFCURVE",
"480 -109 CURVE SMOOTH",
"480 -88 OFFCURVE",
"492 -60 OFFCURVE",
"533 0 CURVE"
);
}
);
width = 580;
}
);
leftKerningGroup = A;
rightKerningGroup = A;
unicode = 0104;
},
{
color = 0;
glyphname = Aringacute;
lastChange = "2016-10-28 13:22:50 +0000";
layers = (
{
components = (
{
name = ringcomb_acutecomb;
transform = "{1, 0, 0, 1, 103, 88}";
}
);
layerId = "EDFD1FE9-67C2-43D2-81E5-EF1682ABC3BD";
paths = (
{
closed = 1;
nodes = (
"252 639 LINE",
"13 0 LINE SMOOTH",
"99 0 LINE",
"115 69 LINE",
"290 548 LINE",
"297 548 LINE",
"456 65 LINE",
"471 0 LINE",
"559 0 LINE",
"341 639 LINE"
);
},
{
closed = 1;
nodes = (
"286 238 LINE",
"144 238 LINE",
"141 173 LINE",
"279 175 LINE",
"429 174 LINE",
"425 238 LINE"
);
},
{
closed = 0;
nodes = (
"296 294 LINE"
);
}
);
width = 580;
}
);
leftKerningGroup = A;
rightKerningGroup = A;
unicode = 01FA;
},
{
color = 1;
glyphname = AE;
lastChange = "2016-10-28 13:22:50 +0000";
layers = (
{
anchors = (
{
name = top;
position = "{498, 641}";
}
);
layerId = "EDFD1FE9-67C2-43D2-81E5-EF1682ABC3BD";
paths = (
{
closed = 1;
nodes = (
"318 641 LINE",
"-17 0 LINE",
"71 0 LINE",
"97 70 LINE",
"351 554 LINE",
"358 554 LINE",
"429 66 LINE",
"434 0 LINE",
"786 0 LINE",
"793 63 LINE",
"787 71 LINE",
"623 68 LINE",
"511 68 LINE",
"439 572 LINE",
"536 572 LINE",
"696 570 LINE",
"704 633 LINE",
"698 641 LINE"
);
},
{
closed = 1;
nodes = (
"458 332 LINE",
"148 263 LINE",
"123 188 LINE",
"464 267 LINE",
"698 315 LINE",
"693 375 LINE",
"686 381 LINE"
);
}
);
width = 809;
}
);
leftKerningGroup = A;
rightKerningGroup = E;
unicode = 00C6;
},
{
color = 1;
glyphname = B;
lastChange = "2016-10-28 13:22:50 +0000";
layers = (
{
layerId = "EDFD1FE9-67C2-43D2-81E5-EF1682ABC3BD";
paths = (
{
closed = 1;
nodes = (
"92 641 LINE",
"136 579 LINE",
"178 580 OFFCURVE",
"213 581 OFFCURVE",
"248 581 CURVE SMOOTH",
"334 581 OFFCURVE",
"377 544 OFFCURVE",
"377 477 CURVE SMOOTH",
"377 410 OFFCURVE",
"345 368 OFFCURVE",
"283 354 CURVE",
"123 360 LINE",
"123 295 LINE",
"296 297 LINE",
"375 287 OFFCURVE",
"418 249 OFFCURVE",
"418 183 CURVE SMOOTH",
"418 102 OFFCURVE",
"357 56 OFFCURVE",
"250 56 CURVE SMOOTH",
"219 56 OFFCURVE",
"172 59 OFFCURVE",
"140 64 CURVE",
"92 0 LINE",
"139 -3 OFFCURVE",
"201 -4 OFFCURVE",
"239 -4 CURVE SMOOTH",
"410 -4 OFFCURVE",
"504 58 OFFCURVE",
"504 180 CURVE SMOOTH",
"504 267 OFFCURVE",
"455 317 OFFCURVE",
"367 334 CURVE",
"429 360 OFFCURVE",
"464 412 OFFCURVE",
"464 488 CURVE SMOOTH",
"464 588 OFFCURVE",
"394 642 OFFCURVE",
"275 642 CURVE"
);
},
{
closed = 1;
nodes = (
"92 641 LINE",
"96 193 LINE",
"92 0 LINE",
"175 0 LINE",
"172 200 LINE",
"176 641 LINE"
);
}
);
width = 541;
}
);
leftKerningGroup = H;
rightKerningGroup = B;
unicode = 0042;
},
{
color = 1;
glyphname = C;
lastChange = "2016-10-28 13:22:50 +0000";
layers = (
{
anchors = (
{
name = bottom;
position = "{308, 0}";
},
{
name = top;
position = "{314, 641}";
}
);
layerId = "EDFD1FE9-67C2-43D2-81E5-EF1682ABC3BD";
paths = (
{
closed = 1;
nodes = (
"141 647 OFFCURVE",
"37 528 OFFCURVE",
"37 317 CURVE SMOOTH",
"37 108 OFFCURVE",
"133 -7 OFFCURVE",
"316 -7 CURVE SMOOTH",
"372 -7 OFFCURVE",
"433 10 OFFCURVE",
"486 42 CURVE",
"493 111 LINE",
"483 116 LINE",
"436 84 OFFCURVE",
"375 66 OFFCURVE",
"321 66 CURVE SMOOTH",
"194 66 OFFCURVE",
"126 155 OFFCURVE",
"126 325 CURVE SMOOTH",
"126 490 OFFCURVE",
"194 575 OFFCURVE",
"324 575 CURVE SMOOTH",
"376 575 OFFCURVE",
"431 558 OFFCURVE",
"472 529 CURVE",
"481 531 LINE",
"498 600 LINE",
"449 630 OFFCURVE",
"389 647 OFFCURVE",
"327 647 CURVE SMOOTH"
);
}
);
width = 520;
}
);
leftKerningGroup = O;
rightKerningGroup = C;
unicode = 0043;
},
{
color = 1;
glyphname = D;
lastChange = "2016-10-28 13:22:50 +0000";
layers = (
{
anchors = (
{
name = center;
position = "{327, 321}";
},
{
name = top;
position = "{315, 641}";
}
);
layerId = "EDFD1FE9-67C2-43D2-81E5-EF1682ABC3BD";
paths = (
{
closed = 1;
nodes = (
"92 641 LINE",
"164 571 LINE",
"194 573 OFFCURVE",
"296 576 OFFCURVE",
"320 576 CURVE SMOOTH",
"453 576 OFFCURVE",
"522 494 OFFCURVE",
"522 325 CURVE SMOOTH",
"522 149 OFFCURVE",
"447 60 OFFCURVE",
"316 60 CURVE SMOOTH",
"290 60 OFFCURVE",
"195 64 OFFCURVE",
"161 68 CURVE",
"92 0 LINE",
"148 -3 OFFCURVE",
"263 -6 OFFCURVE",
"302 -6 CURVE",
"500 -6 OFFCURVE",
"610 118 OFFCURVE",
"610 343 CURVE SMOOTH",
"610 538 OFFCURVE",
"509 645 OFFCURVE",
"326 645 CURVE"
);
},
{
closed = 1;
nodes = (
"92 641 LINE",
"96 193 LINE",
"92 0 LINE",
"177 0 LINE",
"174 200 LINE",
"178 641 LINE"
);
}
);
width = 647;
}
);
leftKerningGroup = H;
rightKerningGroup = O;
unicode = 0044;
},
{
color = 1;
glyphname = E;
lastChange = "2016-10-28 13:22:50 +0000";
layers = (
{
anchors = (
{
name = bottom;
position = "{282, 0}";
},
{
name = ogonek;
position = "{469, 10}";
},
{
name = top;
position = "{275, 641}";
}
);
layerId = "EDFD1FE9-67C2-43D2-81E5-EF1682ABC3BD";
paths = (
{
closed = 1;
nodes = (
"92 641 LINE",
"96 193 LINE",
"92 0 LINE",
"177 0 LINE",
"174 200 LINE",
"178 641 LINE"
);
},
{
closed = 1;
nodes = (
"294 68 LINE",
"149 68 LINE",
"147 7 LINE",
"149 0 LINE",
"455 0 LINE",
"462 63 LINE",
"456 71 LINE"
);
},
{
closed = 1;
nodes = (
"296 362 LINE",
"153 362 LINE",
"150 301 LINE",
"153 294 LINE",
"288 294 LINE",
"401 293 LINE",
"407 356 LINE",
"402 363 LINE"
);
},
{
closed = 1;
nodes = (
"149 641 LINE",
"147 579 LINE",
"149 572 LINE",
"304 572 LINE",
"455 570 LINE",
"462 633 LINE",
"456 641 LINE"
);
}
);
width = 485;
}
);
leftKerningGroup = H;
rightKerningGroup = E;
unicode = 0045;
},
{
color = 1;
glyphname = F;
lastChange = "2016-10-28 13:22:50 +0000";
layers = (
{
layerId = "EDFD1FE9-67C2-43D2-81E5-EF1682ABC3BD";
paths = (
{
closed = 1;
nodes = (
"92 641 LINE",
"96 193 LINE",
"92 0 LINE",
"177 0 LINE",
"174 200 LINE",
"178 641 LINE"
);
},
{
closed = 1;
nodes = (
"282 347 LINE",
"153 347 LINE",
"153 279 LINE",
"274 279 LINE",
"386 277 LINE",
"393 340 LINE",
"387 348 LINE"
);
},
{
closed = 1;
nodes = (
"149 641 LINE",
"147 579 LINE",
"149 572 LINE",
"289 572 LINE",
"436 570 LINE",
"444 633 LINE",
"438 641 LINE"
);
}
);
width = 436;
}
);
leftKerningGroup = H;
rightKerningGroup = F;
unicode = 0046;
},
{
color = 1;
glyphname = G;
lastChange = "2016-10-28 13:22:50 +0000";
layers = (
{
anchors = (
{
name = bottom;
position = "{307, 0}";
},
{
name = top;
position = "{326, 641}";
}
);
layerId = "EDFD1FE9-67C2-43D2-81E5-EF1682ABC3BD";
paths = (
{
closed = 1;
nodes = (
"152 647 OFFCURVE",
"37 529 OFFCURVE",
"37 312 CURVE SMOOTH",
"37 108 OFFCURVE",
"134 -8 OFFCURVE",
"317 -8 CURVE SMOOTH",
"390 -6 OFFCURVE",
"449 4 OFFCURVE",
"534 31 CURVE",
"534 176 LINE",
"535 259 LINE",
"456 253 LINE",
"457 164 LINE",
"457 80 LINE",
"399.994 64.994 OFFCURVE",
"369 60 OFFCURVE",
"323 60 CURVE SMOOTH",
"190 60 OFFCURVE",
"125 141 OFFCURVE",
"125 315 CURVE SMOOTH",
"125 494 OFFCURVE",
"199 577 OFFCURVE",
"343 577 CURVE SMOOTH",
"399 577 OFFCURVE",
"452 559 OFFCURVE",
"510 526 CURVE",
"520 526 LINE",
"540 602 LINE",
"484 631 OFFCURVE",
"419 647 OFFCURVE",
"357 647 CURVE SMOOTH"
);
}
);
width = 600;
}
);
leftKerningGroup = O;
rightKerningGroup = G;
unicode = 0047;
},
{
color = 1;
glyphname = H;
lastChange = "2016-10-28 13:22:50 +0000";
layers = (
{
anchors = (
{
name = center;
position = "{339, 321}";
},
{
name = top;
position = "{339, 641}";
}
);
layerId = "EDFD1FE9-67C2-43D2-81E5-EF1682ABC3BD";
paths = (
{
closed = 1;
nodes = (
"506 641 LINE",
"510 193 LINE",
"506 0 LINE",
"591 0 LINE",
"589 200 LINE",
"593 641 LINE"
);
},
{
closed = 1;
nodes = (
"92 641 LINE",
"96 193 LINE",
"92 0 LINE",
"177 0 LINE",
"174 200 LINE",
"178 641 LINE"
);
},
{
closed = 1;
nodes = (
"163 287 LINE",
"335 288 LINE",
"520 287 LINE",
"520 359 LINE",
"342 358 LINE",
"163 359 LINE"
);
}
);
width = 685;
}
);
leftKerningGroup = H;
rightKerningGroup = H;
unicode = 0048;
},
{
color = 0;
glyphname = Hbar;
lastChange = "2016-10-28 13:22:50 +0000";
layers = (
{
components = (
{
name = H;
transform = "{1, 0, 0, 1, 14, 0}";
}
);
layerId = "EDFD1FE9-67C2-43D2-81E5-EF1682ABC3BD";
paths = (
{
closed = 1;
nodes = (
"42 529 LINE",
"39 485 LINE",
"44 480 LINE",
"674 480 LINE",
"677 523 LINE",
"672 529 LINE"
);
}
);
width = 716;
}
);
leftKerningGroup = H;
rightKerningGroup = H;
unicode = 0126;
},
{
color = 1;
glyphname = I;
lastChange = "2016-10-28 13:22:50 +0000";
layers = (
{
anchors = (
{
name = ogonek;
position = "{234, 10}";
},
{
name = top;
position = "{135, 641}";
}
);
layerId = "EDFD1FE9-67C2-43D2-81E5-EF1682ABC3BD";
paths = (
{
closed = 1;
nodes = (
"92 641 LINE",
"96 193 LINE",
"92 0 LINE",
"177 0 LINE",
"174 200 LINE",
"178 641 LINE"
);
}
);
width = 271;
}
);
leftKerningGroup = H;
rightKerningGroup = H;
unicode = 0049;
},
{
color = 0;
glyphname = Iogonek;
lastChange = "2016-10-28 13:22:50 +0000";
layers = (
{
components = (
{
name = I;
}
);
layerId = "EDFD1FE9-67C2-43D2-81E5-EF1682ABC3BD";
paths = (
{
closed = 1;
nodes = (
"92 0 LINE",
"51 -62 OFFCURVE",
"30 -100 OFFCURVE",
"30 -132 CURVE SMOOTH",
"30 -168 OFFCURVE",
"56 -197 OFFCURVE",
"99 -197 CURVE SMOOTH",
"129 -197 OFFCURVE",
"154 -182 OFFCURVE",
"180 -149 CURVE",
"166 -113 LINE",
"162 -113 LINE",
"148 -136 OFFCURVE",
"129 -149 OFFCURVE",
"109 -149 CURVE SMOOTH",
"88 -149 OFFCURVE",
"78 -136 OFFCURVE",
"78 -120 CURVE SMOOTH",
"78 -99 OFFCURVE",
"96 -62 OFFCURVE",
"140 4 CURVE"
);
}
);
width = 271;
}
);
leftKerningGroup = H;
rightKerningGroup = H;
unicode = 012E;
},
{
color = 1;
glyphname = J;
lastChange = "2016-10-28 13:22:50 +0000";
layers = (
{
anchors = (
{
name = top;
position = "{128, 641}";
}
);
layerId = "EDFD1FE9-67C2-43D2-81E5-EF1682ABC3BD";
paths = (
{
closed = 1;
nodes = (
"126 641 LINE",
"129 203 LINE",
"129 119 LINE SMOOTH",
"129 45 OFFCURVE",
"99 -2 OFFCURVE",
"19 -49 CURVE",
"19 -59 LINE",
"45 -103 LINE",
"166 -46 OFFCURVE",
"209 14 OFFCURVE",
"209 118 CURVE SMOOTH",
"208 212 LINE",
"212 641 LINE"
);
},
{
closed = 1;
nodes = (
"12 641 LINE",
"8 583 LINE",
"14 576 LINE",
"140 577 LINE",
"140 641 LINE"
);
}
);
width = 302;
}
);
leftKerningGroup = J;
rightKerningGroup = H;
unicode = 004A;
},
{
color = 0;
glyphname = K;
lastChange = "2016-10-28 13:22:50 +0000";
layers = (
{
anchors = (
{
name = bottom;
position = "{288, 0}";
},
{
name = top;
position = "{276, 641}";
}
);
layerId = "EDFD1FE9-67C2-43D2-81E5-EF1682ABC3BD";
paths = (
{
closed = 1;
nodes = (
"438 641 LINE",
"398 585 LINE",
"187 342 LINE",
"187 336 LINE",
"272 219 OFFCURVE",
"365 105 OFFCURVE",
"459 -4 CURVE",
"470 -9 LINE",
"497 -5 OFFCURVE",
"525 0 OFFCURVE",
"551 8 CURVE",
"552 18 LINE",
"456 119 OFFCURVE",
"361 230 OFFCURVE",
"277 340 CURVE",
"534 641 LINE"
);
},
{
closed = 1;
nodes = (
"92 641 LINE",
"96 193 LINE",
"92 0 LINE",
"177 0 LINE",
"174 200 LINE",
"178 641 LINE"
);
}
);
width = 551;
}
);
leftKerningGroup = H;
rightKerningGroup = X;
unicode = 004B;
},
{
color = 1;
glyphname = L;
lastChange = "2016-10-28 13:22:50 +0000";
layers = (
{
anchors = (
{
name = bottom;
position = "{235, 0}";
},
{
name = top;
position = "{205, 641}";
}
);
layerId = "EDFD1FE9-67C2-43D2-81E5-EF1682ABC3BD";
paths = (
{
closed = 1;
nodes = (
"89 641 LINE",
"93 193 LINE",
"89 0 LINE",
"175 0 LINE",
"172 200 LINE",
"176 641 LINE"
);
},
{
closed = 1;
nodes = (
"141 72 LINE",
"139 7 LINE",
"141 0 LINE",
"407 0 LINE",
"414 64 LINE",
"408 72 LINE"
);
}
);
width = 418;
}
);
leftKerningGroup = H;
rightKerningGroup = L;
unicode = 004C;
},
{
color = 0;
glyphname = Lcaron;
lastChange = "2016-10-28 13:22:50 +0000";
layers = (
{
components = (
{
name = L;
},
{
name = caron.alt;
transform = "{1, 0, 0, 1, 175, -105}";
}
);
layerId = "EDFD1FE9-67C2-43D2-81E5-EF1682ABC3BD";
paths = (
{
closed = 0;
nodes = (
"216 197 LINE"
);
}
);
width = 449;
}
);
leftKerningGroup = H;
rightKerningGroup = L;
unicode = 013D;
},
{
color = 0;
glyphname = Lslash;
lastChange = "2016-10-28 13:22:50 +0000";
layers = (
{
components = (
{
name = L;
transform = "{1, 0, 0, 1, 14, 0}";
}
);
layerId = "EDFD1FE9-67C2-43D2-81E5-EF1682ABC3BD";
paths = (
{
closed = 1;
nodes = (
"9 303 LINE",
"25 252 LINE",
"35 247 LINE",
"340 408 LINE",
"324 459 LINE",
"314 463 LINE"
);
}
);
width = 431;
}
);
leftKerningGroup = H;
rightKerningGroup = L;
unicode = 0141;
},
{
color = 1;
glyphname = M;
lastChange = "2016-10-28 13:22:50 +0000";
layers = (
{
layerId = "EDFD1FE9-67C2-43D2-81E5-EF1682ABC3BD";
paths = (
{
closed = 1;
nodes = (
"571 641 LINE",
"539 549 LINE",
"397 186 LINE",
"390 186 LINE",
"256 544 LINE",
"224 641 LINE",
"125 641 LINE",
"58 0 LINE",
"132 0 LINE",
"149 202 LINE",
"181 506 LINE",
"189 506 LINE",
"354 74 LINE",
"424 74 LINE",
"599 506 LINE",
"606 506 LINE",
"638 195 LINE",
"653 0 LINE",
"730 0 LINE",
"668 641 LINE"
);
}
);
width = 790;
}
);
leftKerningGroup = M;
rightKerningGroup = M;
unicode = 004D;
},
{
color = 1;
glyphname = N;
lastChange = "2016-10-28 13:22:50 +0000";
layers = (
{
anchors = (
{
name = bottom;
position = "{339, 0}";
},
{
name = top;
position = "{340, 641}";
}
);
layerId = "EDFD1FE9-67C2-43D2-81E5-EF1682ABC3BD";
paths = (
{
closed = 1;
nodes = (
"513 637 LINE",
"514 136 LINE",
"507 136 LINE",
"183 641 LINE",
"93 641 LINE",
"96 190 LINE",
"92 0 LINE",
"170 0 LINE",
"168 212 LINE",
"169 505 LINE",
"175 505 LINE",
"499 0 LINE",
"590 0 LINE",
"588 189 LINE",
"593 643 LINE"
);
}
);
width = 684;
}
);
leftKerningGroup = H;
rightKerningGroup = H;
unicode = 004E;
},
{
color = 1;
glyphname = Eng;
lastChange = "2016-10-28 13:22:50 +0000";
layers = (
{
layerId = "EDFD1FE9-67C2-43D2-81E5-EF1682ABC3BD";
paths = (
{
closed = 1;
nodes = (
"513 637 LINE",
"514 143 LINE",
"507 143 LINE",
"183 641 LINE",
"93 641 LINE",
"96 190 LINE",
"92 0 LINE",
"170 0 LINE",
"168 212 LINE",
"169 505 LINE",
"175 505 LINE",
"503 3 LINE",
"493 -39 OFFCURVE",
"462 -69 OFFCURVE",
"400 -104 CURVE",
"400 -113 LINE",
"426 -158 LINE",
"548 -104 OFFCURVE",
"589 -50 OFFCURVE",
"589 44 CURVE SMOOTH",
"588 189 LINE",
"593 643 LINE"
);
}
);
width = 684;
}
);
leftKerningGroup = H;
rightKerningGroup = H;
unicode = 014A;
},
{
color = 1;
glyphname = O;
lastChange = "2016-10-28 13:22:50 +0000";
layers = (
{
anchors = (
{
name = top;
position = "{319, 641}";
}
);
layerId = "EDFD1FE9-67C2-43D2-81E5-EF1682ABC3BD";
paths = (
{
closed = 1;
nodes = (
"141 648 OFFCURVE",
"37 529 OFFCURVE",
"37 315 CURVE SMOOTH",
"37 109 OFFCURVE",
"135 -8 OFFCURVE",
"309 -8 CURVE SMOOTH",
"495 -8 OFFCURVE",
"600 115 OFFCURVE",
"600 333 CURVE SMOOTH",
"600 535 OFFCURVE",
"502 648 OFFCURVE",
"326 648 CURVE"
);
},
{
closed = 1;
nodes = (
"448 578 OFFCURVE",
"511 496 OFFCURVE",
"511 317 CURVE SMOOTH",
"511 142 OFFCURVE",
"446 59 OFFCURVE",
"316 59 CURVE SMOOTH",
"188 59 OFFCURVE",
"125 143 OFFCURVE",
"125 325 CURVE SMOOTH",
"125 496 OFFCURVE",
"190 578 OFFCURVE",
"320 578 CURVE SMOOTH"
);
}
);
width = 636;
}
);
leftKerningGroup = O;
rightKerningGroup = O;
unicode = 004F;
},
{
color = 1;
glyphname = Ohorn;
lastChange = "2016-10-28 13:22:50 +0000";
layers = (
{
anchors = (
{
name = top;
position = "{319, 641}";
}
);
layerId = "EDFD1FE9-67C2-43D2-81E5-EF1682ABC3BD";
paths = (
{
closed = 1;
nodes = (
"564 766 OFFCURVE",
"549 759 OFFCURVE",
"536 749 CURVE",
"534 741 LINE",
"554 721 OFFCURVE",
"566 696 OFFCURVE",
"566 673 CURVE SMOOTH",
"566 635 OFFCURVE",
"534 614 OFFCURVE",
"496 614 CURVE SMOOTH",
"449 614 OFFCURVE",
"414 648 OFFCURVE",
"321 648 CURVE SMOOTH",
"143 648 OFFCURVE",
"37 529 OFFCURVE",
"37 315 CURVE SMOOTH",
"37 109 OFFCURVE",
"134 -8 OFFCURVE",
"311 -8 CURVE SMOOTH",
"495 -8 OFFCURVE",
"600 118 OFFCURVE",
"600 329 CURVE SMOOTH",
"600 437 OFFCURVE",
"572 518 OFFCURVE",
"517 572 CURVE",
"583 576 OFFCURVE",
"633 614 OFFCURVE",
"633 679 CURVE SMOOTH",
"633 729 OFFCURVE",
"604 766 OFFCURVE",
"578 766 CURVE SMOOTH"
);
},
{
closed = 1;
nodes = (
"448 578 OFFCURVE",
"511 497 OFFCURVE",
"511 319 CURVE SMOOTH",
"511 143 OFFCURVE",
"446 59 OFFCURVE",
"318 59 CURVE SMOOTH",
"189 59 OFFCURVE",
"125 143 OFFCURVE",
"125 320 CURVE SMOOTH",
"125 496 OFFCURVE",
"189 578 OFFCURVE",
"318 578 CURVE SMOOTH"
);
}
);
width = 641;
}
);
leftKerningGroup = O;
rightKerningGroup = O;
unicode = 01A0;
},
{
color = 11;
glyphname = Oslash;
lastChange = "2016-10-28 13:22:50 +0000";
layers = (
{
anchors = (
{
name = top;
position = "{317, 642}";
}
);
components = (
{
name = O;
}
);
layerId = "EDFD1FE9-67C2-43D2-81E5-EF1682ABC3BD";
paths = (
{
closed = 1;
nodes = (
"473 725 LINE",
"97 -77 LINE",
"102 -85 LINE",
"149 -104 LINE",
"525 696 LINE",
"519 706 LINE"
);
}
);
width = 636;
}
);
leftKerningGroup = O;
rightKerningGroup = O;
unicode = 00D8;
},
{
color = 1;
glyphname = OE;
lastChange = "2016-10-28 13:22:50 +0000";
layers = (
{
anchors = (
{
name = top;
position = "{564, 641}";
}
);
layerId = "EDFD1FE9-67C2-43D2-81E5-EF1682ABC3BD";
paths = (
{
closed = 1;
nodes = (
"153 653 OFFCURVE",
"37 529 OFFCURVE",
"37 316 CURVE SMOOTH",
"37 109 OFFCURVE",
"147 -12 OFFCURVE",
"339 -12 CURVE SMOOTH",
"401 -12 OFFCURVE",
"466 1 OFFCURVE",
"525 0 CURVE SMOOTH",
"823 0 LINE",
"830 63 LINE",
"824 71 LINE",
"667 68 LINE",
"543 68 LINE",
"542 196 LINE",
"542 294 LINE",
"651 294 LINE",
"768 293 LINE",
"775 356 LINE",
"769 363 LINE",
"656 362 LINE",
"544 362 LINE",
"545 572 LINE",
"679 572 LINE",
"823 570 LINE",
"830 633 LINE",
"824 641 LINE",
"525 641 LINE SMOOTH",
"469 641 OFFCURVE",
"417 653 OFFCURVE",
"354 653 CURVE SMOOTH"
);
},
{
closed = 1;
nodes = (
"390 582 OFFCURVE",
"433 575 OFFCURVE",
"447 569 CURVE SMOOTH",
"457 565 OFFCURVE",
"460 556 OFFCURVE",
"460 531 CURVE SMOOTH",
"463 102 LINE SMOOTH",
"463 81 OFFCURVE",
"459 72 OFFCURVE",
"441 66 CURVE SMOOTH",
"425 61 OFFCURVE",
"385 54 OFFCURVE",
"348 54 CURVE SMOOTH",
"197 54 OFFCURVE",
"125 147 OFFCURVE",
"125 321 CURVE SMOOTH",
"125 494 OFFCURVE",
"200 582 OFFCURVE",
"348 582 CURVE SMOOTH"
);
}
);
width = 853;
}
);
leftKerningGroup = O;
rightKerningGroup = E;
unicode = 0152;
},
{
color = 1;
glyphname = P;
lastChange = "2016-10-28 13:22:50 +0000";
layers = (
{
layerId = "EDFD1FE9-67C2-43D2-81E5-EF1682ABC3BD";
paths = (
{
closed = 1;
nodes = (
"92 641 LINE",
"138 575 LINE",
"272 579 LINE",
"357 576 OFFCURVE",
"402 530 OFFCURVE",
"402 446 CURVE SMOOTH",
"402 358 OFFCURVE",
"359 302 OFFCURVE",
"279 289 CURVE",
"124 292 LINE",
"124 225 LINE",
"249 225 LINE",
"400 225 OFFCURVE",
"490 311 OFFCURVE",
"490 453 CURVE SMOOTH",
"490 575 OFFCURVE",
"419 642 OFFCURVE",
"293 642 CURVE"
);
},
{
closed = 1;
nodes = (
"92 641 LINE",
"96 193 LINE",
"92 0 LINE",
"177 0 LINE",
"174 200 LINE",
"178 641 LINE"
);
}
);
width = 523;
}
);
leftKerningGroup = H;
rightKerningGroup = P;
unicode = 0050;
},
{
color = 1;
glyphname = Thorn;
lastChange = "2016-10-28 13:22:50 +0000";
layers = (
{
layerId = "EDFD1FE9-67C2-43D2-81E5-EF1682ABC3BD";
paths = (
{
closed = 1;
nodes = (
"92 530 LINE",
"139 464 LINE",
"274 468 LINE",
"359 464 OFFCURVE",
"404 420 OFFCURVE",
"404 336 CURVE SMOOTH",
"404 247 OFFCURVE",
"359 195 OFFCURVE",
"280 180 CURVE",
"124 184 LINE",
"124 115 LINE",
"251 117 LINE",
"407 117 OFFCURVE",
"493 198 OFFCURVE",
"493 342 CURVE SMOOTH",
"493 466 OFFCURVE",
"422 531 OFFCURVE",
"295 531 CURVE"
);
},
{
closed = 1;
nodes = (
"92 641 LINE",
"96 193 LINE",
"92 0 LINE",
"178 0 LINE",
"175 200 LINE",
"179 641 LINE"
);
}
);
width = 529;
}
);
leftKerningGroup = H;
rightKerningGroup = Thorn;
unicode = 00DE;
},
{
color = 0;
glyphname = Q;
lastChange = "2016-10-28 13:22:50 +0000";
layers = (
{
layerId = "EDFD1FE9-67C2-43D2-81E5-EF1682ABC3BD";
paths = (
{
closed = 1;
nodes = (
"141 648 OFFCURVE",
"37 529 OFFCURVE",
"37 315 CURVE SMOOTH",
"37 109 OFFCURVE",
"135 -8 OFFCURVE",
"309 -8 CURVE SMOOTH",
"495 -8 OFFCURVE",
"600 115 OFFCURVE",
"600 333 CURVE SMOOTH",
"600 535 OFFCURVE",
"502 648 OFFCURVE",
"326 648 CURVE"
);
},
{
closed = 1;
nodes = (
"323 3 LINE",
"427 -92 OFFCURVE",
"554 -160 OFFCURVE",
"685 -193 CURVE",
"694 -190 LINE",
"708 -177 OFFCURVE",
"721 -160 OFFCURVE",
"733 -137 CURVE",
"730 -126 LINE",
"604 -103 OFFCURVE",
"483 -47 OFFCURVE",
"384 32 CURVE"
);
},
{
closed = 1;
nodes = (
"448 578 OFFCURVE",
"511 496 OFFCURVE",
"511 317 CURVE SMOOTH",
"511 142 OFFCURVE",
"446 59 OFFCURVE",
"316 59 CURVE SMOOTH",
"188 59 OFFCURVE",
"125 143 OFFCURVE",
"125 325 CURVE SMOOTH",
"125 496 OFFCURVE",
"190 578 OFFCURVE",
"320 578 CURVE SMOOTH"
);
}
);
width = 640;
}
);
leftKerningGroup = O;
rightKerningGroup = O;
unicode = 0051;
},
{
color = 1;
glyphname = R;
lastChange = "2016-10-28 13:22:50 +0000";
layers = (
{
anchors = (
{
name = bottom;
position = "{280, 0}";
},
{
name = top;
position = "{280, 641}";
}
);
layerId = "EDFD1FE9-67C2-43D2-81E5-EF1682ABC3BD";
paths = (
{
closed = 1;
nodes = (
"92 641 LINE",
"138 575 LINE",
"272 579 LINE",
"357 576 OFFCURVE",
"402 532 OFFCURVE",
"402 451 CURVE SMOOTH",
"402 374 OFFCURVE",
"364 323 OFFCURVE",
"293 302 CURVE",
"124 306 LINE",
"124 238 LINE",
"297 238 LINE",
"418 267 OFFCURVE",
"491 349 OFFCURVE",
"491 458 CURVE SMOOTH",
"491 577 OFFCURVE",
"419 642 OFFCURVE",
"293 642 CURVE"
);
},
{
closed = 1;
nodes = (
"92 641 LINE",
"96 193 LINE",
"92 0 LINE",
"177 0 LINE",
"174 200 LINE",
"178 641 LINE"
);
},
{
closed = 1;
nodes = (
"265 281 LINE",
"315 185 OFFCURVE",
"373 90 OFFCURVE",
"433 -2 CURVE",
"444 -9 LINE",
"472 -6 OFFCURVE",
"498 0 OFFCURVE",
"524 10 CURVE",
"525 20 LINE",
"460 106 OFFCURVE",
"400 193 OFFCURVE",
"345 282 CURVE"
);
}
);
width = 559;
}
);
leftKerningGroup = H;
rightKerningGroup = R;
unicode = 0052;
},
{
color = 1;
glyphname = S;
lastChange = "2016-10-28 13:22:50 +0000";
layers = (
{
anchors = (
{
name = bottom;
position = "{229, 0}";
},
{
name = top;
position = "{248, 641}";
}
);
layerId = "EDFD1FE9-67C2-43D2-81E5-EF1682ABC3BD";
paths = (
{
closed = 1;
nodes = (
"142 647 OFFCURVE",
"56 567 OFFCURVE",
"56 466 CURVE SMOOTH",
"56 280 OFFCURVE",
"347 299 OFFCURVE",
"347 165 CURVE SMOOTH",
"347 113 OFFCURVE",
"302 59 OFFCURVE",
"221 59 CURVE SMOOTH",
"176 59 OFFCURVE",
"112 78 OFFCURVE",
"61 117 CURVE",
"51 112 LINE",
"40 37 LINE",
"94 8 OFFCURVE",
"158 -7 OFFCURVE",
"214 -7 CURVE SMOOTH",
"344 -7 OFFCURVE",
"432 77 OFFCURVE",
"432 178 CURVE SMOOTH",
"432 365 OFFCURVE",
"139 350 OFFCURVE",
"139 477 CURVE SMOOTH",
"139 525 OFFCURVE",
"182 578 OFFCURVE",
"258 578 CURVE SMOOTH",
"290 578 OFFCURVE",
"339 566 OFFCURVE",
"384 540 CURVE",
"399 545 LINE",
"413 616 LINE",
"358 639 OFFCURVE",
"306 647 OFFCURVE",
"267 647 CURVE SMOOTH"
);
}
);
width = 475;
}
);
leftKerningGroup = S;
rightKerningGroup = S;
unicode = 0053;
},
{
color = 0;
glyphname = Saltillo;
lastChange = "2016-10-28 13:22:50 +0000";
layers = (
{
components = (
{
name = quotesingle;
transform = "{1, 0, 0, 1.4486, -21, -314}";
}
);
layerId = "EDFD1FE9-67C2-43D2-81E5-EF1682ABC3BD";
paths = (
{
closed = 0;
nodes = (
"66 153 LINE"
);
}
);
width = 131;
}
);
leftKerningGroup = asterisk;
rightKerningGroup = asterisk;
unicode = A78B;
},
{
color = 1;
glyphname = Germandbls;
lastChange = "2016-10-28 13:22:50 +0000";
layers = (
{
layerId = "EDFD1FE9-67C2-43D2-81E5-EF1682ABC3BD";
paths = (
{
closed = 1;
nodes = (
"167 647 OFFCURVE",
"73 557 OFFCURVE",
"73 423 CURVE SMOOTH",
"75 190 LINE",
"72 0 LINE",
"157 0 LINE",
"154 201 LINE",
"156 423 LINE SMOOTH",
"155 519 OFFCURVE",
"215 577 OFFCURVE",
"317 577 CURVE SMOOTH",
"363 577 OFFCURVE",
"406 567 OFFCURVE",
"455 544 CURVE",
"292 337 LINE",
"296 319 LINE",
"448 280 OFFCURVE",
"520 236 OFFCURVE",
"520 164 CURVE SMOOTH",
"520 105 OFFCURVE",
"476 60 OFFCURVE",
"407 60 CURVE SMOOTH",
"364 60 OFFCURVE",
"305 79 OFFCURVE",
"258 117 CURVE",
"248 112 LINE",
"236 37 LINE",
"284 8 OFFCURVE",
"350 -7 OFFCURVE",
"404 -7 CURVE SMOOTH",
"516 -7 OFFCURVE",
"605 59 OFFCURVE",
"605 172 CURVE SMOOTH",
"605 272 OFFCURVE",
"532 321 OFFCURVE",
"395 361 CURVE",
"561 571 LINE",
"556 586 LINE",
"469 627 OFFCURVE",
"401 647 OFFCURVE",
"324 647 CURVE SMOOTH"
);
}
);
width = 635;
}
);
leftKerningGroup = Germandbls;
rightKerningGroup = Germandbls;
unicode = 1E9E;
},
{
color = 1;
glyphname = T;
lastChange = "2016-10-28 13:22:50 +0000";
layers = (
{
anchors = (
{
name = bottom;
position = "{241, 0}";
},
{
name = center;
position = "{249, 321}";
},
{
name = top;
position = "{249, 641}";
}
);
layerId = "EDFD1FE9-67C2-43D2-81E5-EF1682ABC3BD";
paths = (
{
closed = 1;
nodes = (
"205 627 LINE",
"207 193 LINE",
"204 0 LINE",
"289 0 LINE",
"286 200 LINE",
"289 627 LINE"
);
},
{
closed = 1;
nodes = (
"27 641 LINE",
"21 578 LINE",
"27 570 LINE",
"142 572 LINE",
"352 572 LINE",
"464 570 LINE",
"471 633 LINE",
"465 641 LINE"
);
}
);
width = 492;
}
);
leftKerningGroup = T;
rightKerningGroup = T;
unicode = 0054;
},
{
color = 0;
glyphname = Tbar;
lastChange = "2016-10-28 13:22:50 +0000";
layers = (
{
components = (
{
name = T;
}
);
layerId = "EDFD1FE9-67C2-43D2-81E5-EF1682ABC3BD";
paths = (
{
closed = 1;
nodes = (
"113 345 LINE",
"110 302 LINE",
"116 295 LINE",
"388 295 LINE",
"392 338 LINE",
"386 345 LINE"
);
}
);
width = 491;
}
);
leftKerningGroup = T;
rightKerningGroup = T;
unicode = 0166;
},
{
color = 1;
glyphname = U;
lastChange = "2016-10-28 13:22:50 +0000";
layers = (
{
anchors = (
{
name = ogonek;
position = "{518, 10}";
},
{
name = top;
position = "{316, 641}";
}
);
layerId = "EDFD1FE9-67C2-43D2-81E5-EF1682ABC3BD";
paths = (
{
closed = 1;
nodes = (
"469 641 LINE",
"472 234 LINE SMOOTH",
"472 122 OFFCURVE",
"418 63 OFFCURVE",
"313 63 CURVE SMOOTH",
"207 63 OFFCURVE",
"153 122 OFFCURVE",
"154 234 CURVE SMOOTH",
"157 641 LINE",
"72 641 LINE",
"74 321 LINE",
"73 224 LINE SMOOTH",
"71 75 OFFCURVE",
"155 -7 OFFCURVE",
"310 -7 CURVE SMOOTH",
"466 -7 OFFCURVE",
"555 77 OFFCURVE",
"552 224 CURVE",
"553 315 LINE",
"555 641 LINE"
);
}
);
width = 627;
}
);
leftKerningGroup = U;
rightKerningGroup = U;
unicode = 0055;
},
{
color = 0;
glyphname = Uhorn;
lastChange = "2016-10-28 13:22:50 +0000";
layers = (
{
anchors = (
{
name = top;
position = "{316, 641}";
}
);
components = (
{
name = U;
}
);
layerId = "EDFD1FE9-67C2-43D2-81E5-EF1682ABC3BD";
paths = (
{
closed = 1;
nodes = (
"573 777 OFFCURVE",
"558 770 OFFCURVE",
"544 760 CURVE",
"542 752 LINE",
"565 731 OFFCURVE",
"574 712 OFFCURVE",
"574 692 CURVE SMOOTH",
"574 659 OFFCURVE",
"551 641 OFFCURVE",
"509 641 CURVE",
"520 595 LINE",
"592 600 OFFCURVE",
"641 642 OFFCURVE",
"641 698 CURVE SMOOTH",
"641 743 OFFCURVE",
"610 777 OFFCURVE",
"586 777 CURVE SMOOTH"
);
}
);
width = 637;
}
);
leftKerningGroup = U;
rightKerningGroup = Uhorn;
unicode = 01AF;
},
{
color = 0;
glyphname = Uogonek;
lastChange = "2016-10-28 13:22:50 +0000";
layers = (
{
components = (
{
name = U;
}
);
layerId = "EDFD1FE9-67C2-43D2-81E5-EF1682ABC3BD";
paths = (
{
closed = 1;
nodes = (
"435 57 LINE",
"362 -49 LINE SMOOTH",
"346 -73 OFFCURVE",
"337 -97 OFFCURVE",
"337 -120 CURVE SMOOTH",
"337 -165 OFFCURVE",
"368 -197 OFFCURVE",
"416 -197 CURVE SMOOTH",
"452 -197 OFFCURVE",
"484 -178 OFFCURVE",
"516 -144 CURVE",
"505 -108 LINE",
"500 -108 LINE",
"477 -134 OFFCURVE",
"451 -149 OFFCURVE",
"426 -149 CURVE SMOOTH",
"399 -149 OFFCURVE",
"385 -132 OFFCURVE",
"385 -108 CURVE SMOOTH",
"385 -93 OFFCURVE",
"390 -77 OFFCURVE",
"403 -58 CURVE SMOOTH",
"479 57 LINE"
);
}
);
width = 627;
}
);
leftKerningGroup = U;
rightKerningGroup = U;
unicode = 0172;
},
{
color = 1;
glyphname = V;
lastChange = "2016-10-28 13:22:50 +0000";
layers = (
{
layerId = "EDFD1FE9-67C2-43D2-81E5-EF1682ABC3BD";
paths = (
{
closed = 1;
nodes = (
"474 641 LINE",
"458 570 LINE",
"283 86 LINE",
"276 86 LINE",
"117 574 LINE",
"102 641 LINE",
"14 641 LINE",
"227 0 LINE",
"327 0 LINE",
"560 641 LINE SMOOTH"
);
}
);
width = 566;
}
);
leftKerningGroup = V;
rightKerningGroup = V;
unicode = 0056;
},
{
color = 1;
glyphname = W;
lastChange = "2016-10-28 13:22:50 +0000";
layers = (
{
anchors = (
{
name = top;
position = "{440, 641}";
}
);
layerId = "EDFD1FE9-67C2-43D2-81E5-EF1682ABC3BD";
paths = (
{
closed = 1;
nodes = (
"805 641 LINE",
"790 573 LINE",
"622 94 LINE",
"615 94 LINE",
"461 570 LINE",
"448 641 LINE",
"361 641 LINE",
"411 480 LINE",
"276 94 LINE",
"269 94 LINE",
"118 577 LINE",
"106 641 LINE",
"21 641 LINE",
"222 0 LINE",
"312 0 LINE",
"441 364 LINE",
"447 364 LINE",
"569 0 LINE",
"658 0 LINE",
"887 641 LINE"
);
}
);
width = 895;
}
);
leftKerningGroup = V;
rightKerningGroup = V;
unicode = 0057;
},
{
color = 1;
glyphname = X;
lastChange = "2016-10-28 13:22:50 +0000";
layers = (
{
layerId = "EDFD1FE9-67C2-43D2-81E5-EF1682ABC3BD";
paths = (
{
closed = 1;
nodes = (
"456 641 LINE",
"429 590 LINE",
"295 389 LINE",
"161 589 LINE",
"134 641 LINE",
"29 641 LINE",
"238 323 LINE",
"22 0 LINE",
"113 0 LINE",
"139 48 LINE",
"289 267 LINE",
"433 53 LINE",
"460 0 LINE",
"564 0 LINE",
"346 334 LINE",
"548 641 LINE"
);
}
);
width = 591;
}
);
leftKerningGroup = X;
rightKerningGroup = X;
unicode = 0058;
},
{
color = 1;
glyphname = Y;
lastChange = "2016-10-28 13:22:50 +0000";
layers = (
{
anchors = (
{
name = top;
position = "{260, 641}";
}
);
layerId = "EDFD1FE9-67C2-43D2-81E5-EF1682ABC3BD";
paths = (
{
closed = 1;
nodes = (
"429 641 LINE",
"414 602 LINE",
"263 321 LINE",
"256 321 LINE",
"119 604 LINE",
"106 641 LINE",
"14 641 LINE",
"241 179 LINE",
"269 179 LINE",
"519 641 LINE SMOOTH"
);
},
{
closed = 1;
nodes = (
"216 273 LINE",
"218 186 LINE",
"214 0 LINE",
"299 0 LINE",
"296 186 LINE",
"299 273 LINE"
);
}
);
width = 531;
}
);
leftKerningGroup = Y;
rightKerningGroup = Y;
unicode = 0059;
},
{
color = 1;
glyphname = Z;
lastChange = "2016-10-28 13:22:50 +0000";
layers = (
{
anchors = (
{
name = top;
position = "{270, 641}";
}
);
layerId = "EDFD1FE9-67C2-43D2-81E5-EF1682ABC3BD";
paths = (
{
closed = 1;
nodes = (
"437 641 LINE",
"144 641 LINE",
"48 642 LINE",
"41 576 LINE",
"46 570 LINE",
"127 574 LINE",
"388 574 LINE",
"31 60 LINE",
"31 -3 LINE",
"90 0 LINE",
"376 0 LINE",
"487 -2 LINE",
"495 64 LINE",
"490 70 LINE",
"402 66 LINE",
"133 66 LINE",
"488 578 LINE",
"488 642 LINE"
);
}
);
width = 530;
}
);
leftKerningGroup = Z;
rightKerningGroup = Z;
unicode = 005A;
},
{
color = 0;
glyphname = Q.corta;
lastChange = "2016-10-28 13:22:50 +0000";
layers = (
{
layerId = "EDFD1FE9-67C2-43D2-81E5-EF1682ABC3BD";
paths = (
{
closed = 1;
nodes = (
"141 648 OFFCURVE",
"37 529 OFFCURVE",
"37 315 CURVE SMOOTH",
"37 109 OFFCURVE",
"135 -8 OFFCURVE",
"309 -8 CURVE SMOOTH",
"495 -8 OFFCURVE",
"600 115 OFFCURVE",
"600 333 CURVE SMOOTH",
"600 535 OFFCURVE",
"502 648 OFFCURVE",
"326 648 CURVE"
);
},
{
closed = 1;
nodes = (
"323 3 LINE",
"392 -75 OFFCURVE",
"481 -136 OFFCURVE",
"597 -188 CURVE",
"605 -185 LINE",
"620 -172 OFFCURVE",
"632 -154 OFFCURVE",
"645 -131 CURVE",
"642 -121 LINE",
"531 -80 OFFCURVE",
"449 -31 OFFCURVE",
"384 32 CURVE"
);
},
{
closed = 1;
nodes = (
"448 578 OFFCURVE",
"511 496 OFFCURVE",
"511 317 CURVE SMOOTH",
"511 142 OFFCURVE",
"446 59 OFFCURVE",
"316 59 CURVE SMOOTH",
"188 59 OFFCURVE",
"125 143 OFFCURVE",
"125 325 CURVE SMOOTH",
"125 496 OFFCURVE",
"190 578 OFFCURVE",
"320 578 CURVE SMOOTH"
);
}
);
width = 640;
}
);
leftKerningGroup = O;
rightKerningGroup = O;
},
{
color = 1;
glyphname = C.ss01;
lastChange = "2016-10-28 13:22:50 +0000";
layers = (
{
anchors = (
{
name = bottom;
position = "{264, 8}";
},
{
name = top;
position = "{263, 491}";
}
);
layerId = "EDFD1FE9-67C2-43D2-81E5-EF1682ABC3BD";
paths = (
{
closed = 1;
nodes = (
"-100 463 LINE",
"560 463 LINE",
"560 499 LINE",
"-100 499 LINE"
);
},
{
closed = 1;
nodes = (
"-100 0 LINE",
"560 0 LINE",
"560 36 LINE",
"-100 36 LINE"
);
},
{
closed = 1;
nodes = (
"133 496 OFFCURVE",
"49 405 OFFCURVE",
"49 247 CURVE SMOOTH",
"49 89 OFFCURVE",
"126 1 OFFCURVE",
"276 1 CURVE SMOOTH",
"320 1 OFFCURVE",
"368 13 OFFCURVE",
"410 36 CURVE",
"416 97 LINE",
"407 102 LINE",
"371 79 OFFCURVE",
"322 66 OFFCURVE",
"281 66 CURVE SMOOTH",
"181 66 OFFCURVE",
"129 130 OFFCURVE",
"129 254 CURVE SMOOTH",
"129 373 OFFCURVE",
"181 433 OFFCURVE",
"282 433 CURVE SMOOTH",
"323 433 OFFCURVE",
"366 420 OFFCURVE",
"399 398 CURVE",
"407 401 LINE",
"421 463 LINE",
"382 484 OFFCURVE",
"334 496 OFFCURVE",
"284 496 CURVE SMOOTH"
);
}
);
width = 460;
}
);
},
{
color = 1;
glyphname = D.ss01;
lastChange = "2016-10-28 13:22:50 +0000";
layers = (
{
anchors = (
{
name = center;
position = "{270, 249}";
},
{
name = top;
position = "{268, 491}";
}
);
layerId = "EDFD1FE9-67C2-43D2-81E5-EF1682ABC3BD";
paths = (
{
closed = 1;
nodes = (
"-100 463 LINE",
"666 463 LINE",
"666 499 LINE",
"-100 499 LINE"
);
},
{
closed = 1;
nodes = (
"-100 0 LINE",
"666 0 LINE",
"666 36 LINE",
"-100 36 LINE"
);
},
{
closed = 1;
nodes = (
"94 491 LINE",
"160 428 LINE",
"184 431 OFFCURVE",
"262 432 OFFCURVE",
"281 432 CURVE SMOOTH",
"385 432 OFFCURVE",
"436 374 OFFCURVE",
"436 249 CURVE SMOOTH",
"436 122 OFFCURVE",
"379 60 OFFCURVE",
"279 60 CURVE SMOOTH",
"258 60 OFFCURVE",
"184 64 OFFCURVE",
"159 67 CURVE",
"94 6 LINE",
"141 3 OFFCURVE",
"232 0 OFFCURVE",
"266 0 CURVE",
"427 0 OFFCURVE",
"516 95 OFFCURVE",
"516 266 CURVE SMOOTH",
"516 413 OFFCURVE",
"435 495 OFFCURVE",
"287 495 CURVE"
);
},
{
closed = 1;
nodes = (
"94 491 LINE",
"98 151 LINE",
"94 6 LINE",
"171 6 LINE",
"168 159 LINE",
"172 491 LINE"
);
}
);
width = 566;
}
);
},
{
color = 1;
glyphname = I.ss01;
lastChange = "2016-10-28 13:22:50 +0000";
layers = (
{
anchors = (
{
name = ogonek;
position = "{196, 9}";
},
{
name = top;
position = "{132, 497}";
}
);
layerId = "EDFD1FE9-67C2-43D2-81E5-EF1682ABC3BD";
paths = (
{
closed = 1;
nodes = (
"-100 463 LINE",
"361 463 LINE",
"361 499 LINE",
"-100 499 LINE"
);
},
{
closed = 1;
nodes = (
"-100 0 LINE",
"361 0 LINE",
"361 36 LINE",
"-100 36 LINE"
);
},
{
closed = 1;
nodes = (
"88 497 LINE",
"91 150 LINE",
"88 1 LINE",
"168 1 LINE",
"165 157 LINE",
"169 497 LINE"
);
}
);
width = 261;
}
);
},
{
color = 11;
glyphname = L.ss01;
lastChange = "2016-10-28 13:22:50 +0000";
layers = (
{
layerId = "EDFD1FE9-67C2-43D2-81E5-EF1682ABC3BD";
paths = (
{
closed = 1;
nodes = (
"87 498 LINE",
"90 161 LINE",
"87 2 LINE",
"376 2 LINE",
"378 156 LINE",
"323 153 LINE",
"318 68 LINE",
"163 68 LINE",
"163 168 LINE",
"166 498 LINE"
);
},
{
closed = 1;
nodes = (
"-100 36 LINE",
"-100 0 LINE",
"496 0 LINE",
"496 36 LINE"
);
},
{
closed = 1;
nodes = (
"-100 499 LINE",
"-100 463 LINE",
"496 463 LINE",
"496 499 LINE"
);
}
);
width = 396;
}
);
},
{
color = 1;
glyphname = M.ss01;
lastChange = "2016-10-28 13:22:50 +0000";
layers = (
{
layerId = "EDFD1FE9-67C2-43D2-81E5-EF1682ABC3BD";
paths = (
{
closed = 1;
nodes = (
"-100 499 LINE",
"-100 463 LINE",
"783 463 LINE",
"783 499 LINE"
);
},
{
closed = 1;
nodes = (
"-100 36 LINE",
"-100 0 LINE",
"783 0 LINE",
"783 36 LINE"
);
},
{
closed = 1;
nodes = (
"473 488 LINE",
"448 424 LINE",
"342 183 LINE",
"336 183 LINE",
"236 422 LINE",
"212 488 LINE",
"124 488 LINE",
"71 11 LINE",
"137 11 LINE",
"149 170 LINE",
"173 378 LINE",
"178 378 LINE",
"304 84 LINE",
"366 84 LINE",
"499 378 LINE",
"505 378 LINE",
"528 165 LINE",
"539 11 LINE",
"607 11 LINE",
"559 488 LINE"
);
}
);
width = 683;
}
);
},
{
color = 1;
glyphname = V.ss01;
lastChange = "2016-10-28 13:22:50 +0000";
layers = (
{
layerId = "EDFD1FE9-67C2-43D2-81E5-EF1682ABC3BD";
paths = (
{
closed = 1;
nodes = (
"-100 463 LINE",
"602 463 LINE",
"602 499 LINE",
"-100 499 LINE"
);
},
{
closed = 1;
nodes = (
"-100 0 LINE",
"602 0 LINE",
"602 36 LINE",
"-100 36 LINE"
);
},
{
closed = 1;
nodes = (
"401 492 LINE",
"387 433 LINE",
"252 81 LINE",
"246 81 LINE",
"123 437 LINE",
"110 492 LINE",
"32 492 LINE",
"202 6 LINE",
"292 6 LINE",
"477 492 LINE SMOOTH"
);
}
);
width = 502;
}
);
},
{
color = 1;
glyphname = X.ss01;
lastChange = "2016-10-28 13:22:50 +0000";
layers = (
{
layerId = "EDFD1FE9-67C2-43D2-81E5-EF1682ABC3BD";
paths = (
{
closed = 1;
nodes = (
"-100 463 LINE",
"622 463 LINE",
"622 499 LINE",
"-100 499 LINE"
);
},
{
closed = 1;
nodes = (
"-100 0 LINE",
"622 0 LINE",
"622 36 LINE",
"-100 36 LINE"
);
},
{
closed = 1;
nodes = (
"385 485 LINE",
"365 446 LINE",
"262 305 LINE",
"160 445 LINE",
"138 485 LINE",
"50 485 LINE",
"214 251 LINE",
"46 15 LINE",
"121 15 LINE",
"142 52 LINE",
"257 205 LINE",
"366 55 LINE",
"388 15 LINE",
"475 15 LINE",
"305 260 LINE",
"463 485 LINE"
);
}
);
width = 522;
}
);
},
{
color = 1;
glyphname = a;
lastChange = "2016-10-28 13:22:50 +0000";
layers = (
{
anchors = (
{
name = ogonek;
position = "{428, 10}";
},
{
name = top;
position = "{224, 459}";
}
);
layerId = "EDFD1FE9-67C2-43D2-81E5-EF1682ABC3BD";
paths = (
{
closed = 1;
nodes = (
"176 467 OFFCURVE",
"113 445 OFFCURVE",
"59 405 CURVE",
"70 351 LINE",
"78 347 LINE",
"132 386 OFFCURVE",
"179 406 OFFCURVE",
"218 406 CURVE SMOOTH",
"271 406 OFFCURVE",
"298 379 OFFCURVE",
"298 327 CURVE",
"296 260 LINE",
"135 227 LINE SMOOTH",
"75 216 OFFCURVE",
"41 178 OFFCURVE",
"41 121 CURVE SMOOTH",
"41 41 OFFCURVE",
"91 -7 OFFCURVE",
"174 -7 CURVE",
"216 0 OFFCURVE",
"258 28 OFFCURVE",
"293 69 CURVE",
"298 69 LINE",
"305 17 OFFCURVE",
"327 -4 OFFCURVE",
"364 -6 CURVE SMOOTH",
"390 -4 OFFCURVE",
"410 2 OFFCURVE",
"426 14 CURVE",
"435 62 LINE",
"427 67 LINE",
"417 60 OFFCURVE",
"404 57 OFFCURVE",
"394 57 CURVE SMOOTH",
"374 57 OFFCURVE",
"366 70 OFFCURVE",
"366 100 CURVE SMOOTH",
"366 126 OFFCURVE",
"375 315 OFFCURVE",
"375 342 CURVE SMOOTH",
"375 422 OFFCURVE",
"324 467 OFFCURVE",
"231 467 CURVE SMOOTH"
);
},
{
closed = 1;
nodes = (
"292 118 LINE",
"260 77 OFFCURVE",
"222 54 OFFCURVE",
"189 54 CURVE SMOOTH",
"143 54 OFFCURVE",
"116 80 OFFCURVE",
"116 127 CURVE SMOOTH",
"116 160 OFFCURVE",
"135 180 OFFCURVE",
"169 188 CURVE SMOOTH",
"296 216 LINE"
);
}
);
width = 464;
}
);
leftKerningGroup = a;
rightKerningGroup = n;
unicode = 0061;
},
{
color = 0;
glyphname = aogonek;
lastChange = "2016-10-28 13:22:50 +0000";
layers = (
{
components = (
{
name = a;
}
);
layerId = "EDFD1FE9-67C2-43D2-81E5-EF1682ABC3BD";
paths = (
{
closed = 1;
nodes = (
"377 18 LINE",
"302 -59 OFFCURVE",
"282 -89 OFFCURVE",
"282 -124 CURVE SMOOTH",
"282 -169 OFFCURVE",
"315 -197 OFFCURVE",
"356 -197 CURVE SMOOTH",
"391 -197 OFFCURVE",
"418 -177 OFFCURVE",
"445 -144 CURVE",
"433 -108 LINE",
"428 -108 LINE",
"410 -134 OFFCURVE",
"389 -149 OFFCURVE",
"367 -149 CURVE SMOOTH",
"346 -149 OFFCURVE",
"329 -136 OFFCURVE",
"329 -112 CURVE SMOOTH",
"329 -89 OFFCURVE",
"347 -64 OFFCURVE",
"426 14 CURVE"
);
}
);
width = 464;
}
);
leftKerningGroup = a;
rightKerningGroup = n;
unicode = 0105;
},
{
color = 1;
glyphname = ae;
lastChange = "2016-10-28 13:22:50 +0000";
layers = (
{
anchors = (
{
name = top;
position = "{344, 459}";
}
);
layerId = "EDFD1FE9-67C2-43D2-81E5-EF1682ABC3BD";
paths = (
{
closed = 1;
nodes = (
"325 214 LINE",
"638 267 LINE",
"647 279 LINE",
"627 312 LINE",
"325 257 LINE"
);
},
{
closed = 1;
nodes = (
"325 257 LINE",
"132 226 LINE SMOOTH",
"71 217 OFFCURVE",
"38 179 OFFCURVE",
"38 119 CURVE SMOOTH",
"38 42 OFFCURVE",
"93 -7 OFFCURVE",
"180 -7 CURVE",
"230 1 OFFCURVE",
"270 29 OFFCURVE",
"322 89 CURVE",
"354 26 OFFCURVE",
"411 -8 OFFCURVE",
"486 -8 CURVE SMOOTH",
"530 -8 OFFCURVE",
"580 6 OFFCURVE",
"620 28 CURVE",
"632 89 LINE",
"624 94 LINE",
"585 70 OFFCURVE",
"536 56 OFFCURVE",
"494 56 CURVE SMOOTH",
"402 56 OFFCURVE",
"359 119 OFFCURVE",
"359 237 CURVE SMOOTH",
"359 273 LINE SMOOTH",
"359 347 OFFCURVE",
"412 408 OFFCURVE",
"481 408 CURVE SMOOTH",
"538 408 OFFCURVE",
"571 369 OFFCURVE",
"573 300 CURVE",
"647 279 LINE",
"649 397 OFFCURVE",
"588 466 OFFCURVE",
"485 466 CURVE SMOOTH",
"425 466 OFFCURVE",
"377 440 OFFCURVE",
"340 384 CURVE",
"329 438 OFFCURVE",
"289 467 OFFCURVE",
"226 467 CURVE SMOOTH",
"168 467 OFFCURVE",
"110 446 OFFCURVE",
"55 406 CURVE",
"66 351 LINE",
"74 347 LINE",
"129 387 OFFCURVE",
"174 406 OFFCURVE",
"215 406 CURVE SMOOTH",
"264 406 OFFCURVE",
"291 379 OFFCURVE",
"291 327 CURVE SMOOTH",
"291 232 LINE SMOOTH",
"291 192 OFFCURVE",
"294 166 OFFCURVE",
"302 133 CURVE",
"255 78 OFFCURVE",
"222 54 OFFCURVE",
"185 54 CURVE SMOOTH",
"139 54 OFFCURVE",
"114 85 OFFCURVE",
"114 126 CURVE SMOOTH",
"114 158 OFFCURVE",
"128 176 OFFCURVE",
"166 184 CURVE SMOOTH",
"325 214 LINE"
);
}
);
width = 680;
}
);
leftKerningGroup = a;
rightKerningGroup = e;
unicode = 00E6;
},
{
color = 1;
glyphname = b;
lastChange = "2016-10-28 13:22:50 +0000";
layers = (
{
anchors = (
{
name = bottom;
position = "{257, 0}";
},
{
name = top;
position = "{257, 459}";
}
);
layerId = "EDFD1FE9-67C2-43D2-81E5-EF1682ABC3BD";
paths = (
{
closed = 1;
nodes = (
"248 458 OFFCURVE",
"202 433 OFFCURVE",
"167 392 CURVE",
"144 392 LINE",
"150 325 LINE",
"184 371 OFFCURVE",
"228 396 OFFCURVE",
"273 396 CURVE SMOOTH",
"351 396 OFFCURVE",
"393 337 OFFCURVE",
"393 230 CURVE SMOOTH",
"393 109 OFFCURVE",
"338 48 OFFCURVE",
"245 48 CURVE SMOOTH",
"209 48 OFFCURVE",
"154 64 OFFCURVE",
"100 96 CURVE",
"96 22 LINE",
"144 2 OFFCURVE",
"199 -8 OFFCURVE",
"249 -8 CURVE SMOOTH",
"388 -8 OFFCURVE",
"472 81 OFFCURVE",
"472 241 CURVE SMOOTH",
"472 382 OFFCURVE",
"408 464 OFFCURVE",
"297 464 CURVE SMOOTH"
);
},
{
closed = 1;
nodes = (
"83 695 LINE",
"85 192 LINE",
"83 4 LINE",
"92 -4 LINE",
"163 20 LINE",
"163 202 LINE",
"166 702 LINE"
);
}
);
width = 514;
}
);
leftKerningGroup = h;
leftMetricsKey = l;
rightKerningGroup = o;
rightMetricsKey = o;
unicode = 0062;
},
{
color = 1;
glyphname = c;
lastChange = "2016-10-28 13:22:50 +0000";
layers = (
{
anchors = (
{
name = bottom;
position = "{227, 0}";
},
{
name = top;
position = "{237, 459}";
}
);
layerId = "EDFD1FE9-67C2-43D2-81E5-EF1682ABC3BD";
paths = (
{
closed = 1;
nodes = (
"118 467 OFFCURVE",
"41 374 OFFCURVE",
"41 224 CURVE SMOOTH",
"41 81 OFFCURVE",
"113 -8 OFFCURVE",
"230 -8 CURVE SMOOTH",
"276 -8 OFFCURVE",
"323 5 OFFCURVE",
"359 25 CURVE",
"368 88 LINE",
"359 93 LINE",
"325 73 OFFCURVE",
"284 60 OFFCURVE",
"247 60 CURVE SMOOTH",
"168 60 OFFCURVE",
"121 124 OFFCURVE",
"121 232 CURVE SMOOTH",
"121 335 OFFCURVE",
"167 397 OFFCURVE",
"243 397 CURVE SMOOTH",
"279 397 OFFCURVE",
"315 383 OFFCURVE",
"345 364 CURVE",
"354 367 LINE",
"369 431 LINE",
"336 453 OFFCURVE",
"288 467 OFFCURVE",
"243 467 CURVE SMOOTH"
);
}
);
width = 385;
}
);
leftKerningGroup = o;
leftMetricsKey = o;
rightKerningGroup = c;
unicode = 0063;
},
{
color = 1;
glyphname = d;
lastChange = "2016-10-28 13:22:50 +0000";
layers = (
{
anchors = (
{
name = center;
position = "{259, 230}";
}
);
layerId = "EDFD1FE9-67C2-43D2-81E5-EF1682ABC3BD";
paths = (
{
closed = 1;
nodes = (
"347 695 LINE",
"348 454 LINE",
"319 461 OFFCURVE",
"290 466 OFFCURVE",
"265 466 CURVE SMOOTH",
"125 466 OFFCURVE",
"41 380 OFFCURVE",
"41 221 CURVE SMOOTH",
"41 80 OFFCURVE",
"113 -6 OFFCURVE",
"225 -6 CURVE SMOOTH",
"274 0 OFFCURVE",
"314 24 OFFCURVE",
"351 66 CURVE",
"355 66 LINE",
"363 17 OFFCURVE",
"387 -4 OFFCURVE",
"424 -6 CURVE SMOOTH",
"449 -4 OFFCURVE",
"469 2 OFFCURVE",
"486 14 CURVE",
"494 62 LINE",
"486 67 LINE",
"476 60 OFFCURVE",
"464 57 OFFCURVE",
"454 57 CURVE SMOOTH",
"434 57 OFFCURVE",
"427 71 OFFCURVE",
"427 102 CURVE SMOOTH",
"426 200 LINE",
"430 702 LINE"
);
},
{
closed = 1;
nodes = (
"291 406 OFFCURVE",
"320 401 OFFCURVE",
"349 391 CURVE",
"349 193 LINE",
"349 121 LINE",
"318 79 OFFCURVE",
"281 58 OFFCURVE",
"239 58 CURVE SMOOTH",
"166 58 OFFCURVE",
"119 119 OFFCURVE",
"119 234 CURVE SMOOTH",
"119 349 OFFCURVE",
"170 406 OFFCURVE",
"263 406 CURVE SMOOTH"
);
}
);
width = 517;
}
);
leftKerningGroup = o;
leftMetricsKey = o;
rightKerningGroup = l;
unicode = 0064;
},
{
color = 1;
glyphname = eth;
lastChange = "2016-10-28 13:22:50 +0000";
layers = (
{
layerId = "EDFD1FE9-67C2-43D2-81E5-EF1682ABC3BD";
paths = (
{
closed = 1;
nodes = (
"120 706 LINE",
"68 666 LINE",
"68 655 LINE",
"282 564 OFFCURVE",
"371 438 OFFCURVE",
"371 237 CURVE SMOOTH",
"371 112 OFFCURVE",
"331 50 OFFCURVE",
"248 50 CURVE SMOOTH",
"168 50 OFFCURVE",
"121 107 OFFCURVE",
"121 224 CURVE SMOOTH",
"121 339 OFFCURVE",
"167 397 OFFCURVE",
"252 397 CURVE SMOOTH",
"299 397 OFFCURVE",
"336 380 OFFCURVE",
"369 346 CURVE",
"402 396 LINE",
"357 438 OFFCURVE",
"310 458 OFFCURVE",
"248 458 CURVE SMOOTH",
"118 458 OFFCURVE",
"43 371 OFFCURVE",
"43 224 CURVE SMOOTH",
"43 75 OFFCURVE",
"119 -8 OFFCURVE",
"244 -8 CURVE SMOOTH",
"376 -8 OFFCURVE",
"449 85 OFFCURVE",
"449 246 CURVE SMOOTH",
"449 446 OFFCURVE",
"336 612 OFFCURVE",
"126 706 CURVE"
);
},
{
closed = 1;
nodes = (
"90 532 LINE",
"108 496 LINE",
"116 493 LINE",
"403 641 LINE",
"387 677 LINE",
"378 680 LINE"
);
}
);
width = 496;
}
);
leftKerningGroup = eth;
rightKerningGroup = eth;
unicode = 00F0;
},
{
color = 0;
glyphname = dcaron;
lastChange = "2016-10-28 13:22:50 +0000";
layers = (
{
components = (
{
name = d;
},
{
name = caron.alt;
transform = "{1, 0, 0, 1, 332, -43}";
}
);
layerId = "EDFD1FE9-67C2-43D2-81E5-EF1682ABC3BD";
paths = (
{
closed = 0;
nodes = (
"227 243 LINE"
);
}
);
width = 541;
}
);
leftKerningGroup = o;
rightKerningGroup = l;
unicode = 010F;
},
{
color = 0;
glyphname = dcroat;
lastChange = "2016-10-28 13:22:50 +0000";
layers = (
{
components = (
{
name = d;
}
);
layerId = "EDFD1FE9-67C2-43D2-81E5-EF1682ABC3BD";
paths = (
{
closed = 1;
nodes = (
"226 597 LINE",
"222 554 LINE",
"228 548 LINE",
"506 548 LINE",
"510 590 LINE",
"503 597 LINE"
);
}
);
width = 521;
}
);
leftKerningGroup = o;
leftMetricsKey = d;
rightKerningGroup = l;
unicode = 0111;
},
{
color = 1;
glyphname = e;
lastChange = "2016-10-28 13:22:50 +0000";
layers = (
{
anchors = (
{
name = bottom;
position = "{248, 0}";
},
{
name = ogonek;
position = "{403, 10}";
},
{
name = top;
position = "{238, 459}";
}
);
layerId = "EDFD1FE9-67C2-43D2-81E5-EF1682ABC3BD";
paths = (
{
closed = 1;
nodes = (
"122 466 OFFCURVE",
"41 375 OFFCURVE",
"41 226 CURVE SMOOTH",
"41 82 OFFCURVE",
"119 -8 OFFCURVE",
"251 -8 CURVE SMOOTH",
"301 -8 OFFCURVE",
"346 6 OFFCURVE",
"384 28 CURVE",
"397 89 LINE",
"388 94 LINE",
"349 68 OFFCURVE",
"303 55 OFFCURVE",
"261 55 CURVE SMOOTH",
"165 55 OFFCURVE",
"117 120 OFFCURVE",
"117 229 CURVE SMOOTH",
"117 341 OFFCURVE",
"167 409 OFFCURVE",
"248 409 CURVE SMOOTH",
"309 409 OFFCURVE",
"346 368 OFFCURVE",
"346 300 CURVE",
"344 286 LINE",
"102 277 LINE",
"102 231 LINE",
"403 239 LINE",
"414 252 LINE",
"416 263 OFFCURVE",
"418 280 OFFCURVE",
"418 293 CURVE SMOOTH",
"418 400 OFFCURVE",
"356 466 OFFCURVE",
"249 466 CURVE SMOOTH"
);
}
);
width = 455;
}
);
leftKerningGroup = o;
leftMetricsKey = o;
rightKerningGroup = e;
unicode = 0065;
},
{
color = 1;
glyphname = f;
lastChange = "2016-10-28 13:22:50 +0000";
layers = (
{
layerId = "EDFD1FE9-67C2-43D2-81E5-EF1682ABC3BD";
paths = (
{
closed = 1;
nodes = (
"168 704 OFFCURVE",
"107 644 OFFCURVE",
"107 535 CURVE SMOOTH",
"108 190 LINE",
"105 0 LINE",
"188 0 LINE",
"185 199 LINE",
"188 548 LINE SMOOTH",
"188 611 OFFCURVE",
"217 642 OFFCURVE",
"268 642 CURVE SMOOTH",
"291 642 OFFCURVE",
"313 638 OFFCURVE",
"342 627 CURVE",
"348 632 LINE",
"354 695 LINE",
"326 701 OFFCURVE",
"300 704 OFFCURVE",
"275 704 CURVE SMOOTH"
);
},
{
closed = 1;
nodes = (
"40 457 LINE",
"35 410 LINE",
"39 404 LINE",
"304 404 LINE",
"309 451 LINE",
"305 457 LINE"
);
}
);
width = 306;
}
);
leftKerningGroup = f;
rightKerningGroup = f;
unicode = 0066;
},
{
color = 1;
glyphname = g;
lastChange = "2016-10-28 13:22:50 +0000";
layers = (
{
anchors = (
{
name = top;
position = "{246, 451}";
}
);
layerId = "EDFD1FE9-67C2-43D2-81E5-EF1682ABC3BD";
paths = (
{
closed = 1;
nodes = (
"128 172 LINE",
"98 152 OFFCURVE",
"75 132 OFFCURVE",
"64 111 CURVE",
"63 -26 OFFCURVE",
"373 50 OFFCURVE",
"373 -55 CURVE SMOOTH",
"373 -104 OFFCURVE",
"312 -144 OFFCURVE",
"234 -144 CURVE SMOOTH",
"159 -144 OFFCURVE",
"118 -110 OFFCURVE",
"118 -69 CURVE SMOOTH",
"118 -32 OFFCURVE",
"156 -3 OFFCURVE",
"204 23 CURVE",
"144 37 LINE",
"144 25 LINE",
"94 -4 OFFCURVE",
"64 -32 OFFCURVE",
"51 -71 CURVE",
"51 -143 OFFCURVE",
"116 -194 OFFCURVE",
"228 -194 CURVE SMOOTH",
"350 -194 OFFCURVE",
"443 -127 OFFCURVE",
"443 -42 CURVE SMOOTH",
"443 112 OFFCURVE",
"132 47 OFFCURVE",
"132 121 CURVE SMOOTH",
"132 132 OFFCURVE",
"141 143 OFFCURVE",
"174 165 CURVE",
"128 182 LINE"
);
},
{
closed = 1;
nodes = (
"307 411 OFFCURVE",
"346 375 OFFCURVE",
"346 309 CURVE SMOOTH",
"346 241 OFFCURVE",
"305 204 OFFCURVE",
"237 204 CURVE SMOOTH",
"169 204 OFFCURVE",
"131 241 OFFCURVE",
"131 308 CURVE SMOOTH",
"131 374 OFFCURVE",
"170 411 OFFCURVE",
"241 411 CURVE SMOOTH"
);
},
{
closed = 1;
nodes = (
"128 465 OFFCURVE",
"59 405 OFFCURVE",
"59 305 CURVE SMOOTH",
"59 208 OFFCURVE",
"124 151 OFFCURVE",
"236 151 CURVE SMOOTH",
"348 151 OFFCURVE",
"418 213 OFFCURVE",
"418 311 CURVE SMOOTH",
"418 405 OFFCURVE",
"349 465 OFFCURVE",
"242 465 CURVE SMOOTH"
);
},
{
closed = 1;
nodes = (
"435 463 OFFCURVE",
"377 448 OFFCURVE",
"327 439 CURVE",
"384 383 LINE",
"392 402 LINE",
"421 406 OFFCURVE",
"450 411 OFFCURVE",
"484 418 CURVE",
"484 472 LINE",
"477 478 LINE"
);
}
);
width = 488;
}
);
leftKerningGroup = g;
rightKerningGroup = g;
unicode = 0067;
},
{
color = 0;
glyphname = h;
lastChange = "2016-10-28 13:22:50 +0000";
layers = (
{
anchors = (
{
name = center;
position = "{261, 230}";
},
{
name = top;
position = "{123, 647}";
}
);
components = (
{
name = l;
}
);
layerId = "EDFD1FE9-67C2-43D2-81E5-EF1682ABC3BD";
paths = (
{
closed = 1;
nodes = (
"261 459 OFFCURVE",
"212 431 OFFCURVE",
"169 385 CURVE",
"154 385 LINE",
"154 324 LINE",
"196 370 OFFCURVE",
"242 397 OFFCURVE",
"283 397 CURVE SMOOTH",
"339 397 OFFCURVE",
"371 362 OFFCURVE",
"371 300 CURVE SMOOTH",
"366 0 LINE",
"449 0 LINE",
"447 200 LINE",
"449 330 LINE SMOOTH",
"451 416 OFFCURVE",
"400 465 OFFCURVE",
"311 465 CURVE SMOOTH"
);
},
{
closed = 0;
nodes = (
"265 218 LINE"
);
}
);
width = 522;
}
);
leftKerningGroup = h;
leftMetricsKey = l;
rightKerningGroup = n;
rightMetricsKey = n;
unicode = 0068;
},
{
color = 0;
glyphname = hbar;
lastChange = "2016-10-28 13:22:50 +0000";
layers = (
{
components = (
{
name = h;
transform = "{1, 0, 0, 1, -4, 0}";
}
);
layerId = "EDFD1FE9-67C2-43D2-81E5-EF1682ABC3BD";
paths = (
{
closed = 1;
nodes = (
"8 597 LINE",
"4 554 LINE",
"10 548 LINE",
"288 548 LINE",
"291 590 LINE",
"285 597 LINE"
);
}
);
width = 516;
}
);
leftKerningGroup = h;
rightKerningGroup = n;
unicode = 0127;
},
{
color = 1;
glyphname = idotless;
lastChange = "2016-10-28 13:22:50 +0000";
layers = (
{
anchors = (
{
name = bottom;
position = "{120, 0}";
},
{
name = ogonek;
position = "{216, 10}";
},
{
name = top;
position = "{120, 459}";
}
);
layerId = "EDFD1FE9-67C2-43D2-81E5-EF1682ABC3BD";
paths = (
{
closed = 1;
nodes = (
"161 0 LINE",
"159 201 LINE",
"162 461 LINE",
"79 453 LINE",
"81 194 LINE",
"78 0 LINE"
);
}
);
width = 240;
}
);
leftKerningGroup = l;
rightKerningGroup = l;
unicode = 0131;
},
{
color = 0;
glyphname = iogonek;
lastChange = "2016-10-28 13:22:50 +0000";
layers = (
{
components = (
{
name = idotless;
},
{
name = dotaccentcomb;
transform = "{1, 0, 0, 1, -1, 0}";
}
);
layerId = "EDFD1FE9-67C2-43D2-81E5-EF1682ABC3BD";
paths = (
{
closed = 1;
nodes = (
"78 0 LINE",
"37 -62 OFFCURVE",
"17 -100 OFFCURVE",
"17 -132 CURVE SMOOTH",
"17 -168 OFFCURVE",
"42 -197 OFFCURVE",
"85 -197 CURVE SMOOTH",
"115 -197 OFFCURVE",
"141 -182 OFFCURVE",
"166 -149 CURVE",
"153 -113 LINE",
"148 -113 LINE",
"134 -136 OFFCURVE",
"115 -149 OFFCURVE",
"95 -149 CURVE SMOOTH",
"74 -149 OFFCURVE",
"64 -136 OFFCURVE",
"64 -120 CURVE SMOOTH",
"64 -99 OFFCURVE",
"82 -62 OFFCURVE",
"127 4 CURVE"
);
}
);
width = 240;
}
);
leftKerningGroup = l;
rightKerningGroup = l;
unicode = 012F;
},
{
color = 1;
glyphname = jdotless;
lastChange = "2016-10-28 13:22:50 +0000";
layers = (
{
anchors = (
{
name = top;
position = "{122, 459}";
}
);
layerId = "EDFD1FE9-67C2-43D2-81E5-EF1682ABC3BD";
paths = (
{
closed = 1;
nodes = (
"96 457 LINE",
"17 457 LINE",
"12 410 LINE",
"18 404 LINE",
"95 404 LINE",
"96 194 LINE",
"96 16 LINE",
"96 -64 OFFCURVE",
"76 -106 OFFCURVE",
"18 -147 CURVE",
"18 -156 LINE",
"48 -194 LINE",
"141 -141 OFFCURVE",
"176 -85 OFFCURVE",
"176 20 CURVE",
"174 201 LINE",
"177 459 LINE",
"174 461 LINE"
);
}
);
width = 252;
}
);
leftKerningGroup = j;
rightKerningGroup = j;
unicode = 0237;
},
{
color = 0;
glyphname = k;
lastChange = "2016-10-28 13:22:50 +0000";
layers = (
{
anchors = (
{
name = bottom;
position = "{254, 0}";
}
);
components = (
{
name = l;
}
);
layerId = "EDFD1FE9-67C2-43D2-81E5-EF1682ABC3BD";
paths = (
{
closed = 1;
nodes = (
"349 459 LINE",
"323 417 LINE",
"179 248 LINE",
"179 241 LINE",
"237 156 OFFCURVE",
"301 75 OFFCURVE",
"368 -5 CURVE",
"377 -9 LINE",
"403 -5 OFFCURVE",
"429 -2 OFFCURVE",
"453 5 CURVE",
"454 15 LINE",
"388 90 OFFCURVE",
"323 169 OFFCURVE",
"263 249 CURVE",
"441 459 LINE"
);
}
);
width = 462;
}
);
leftKerningGroup = h;
leftMetricsKey = l;
rightKerningGroup = x;
unicode = 006B;
},
{
color = 0;
glyphname = kgreenlandic;
lastChange = "2016-10-28 13:22:51 +0000";
layers = (
{
anchors = (
{
name = bottom;
position = "{229, 0}";
},
{
name = ogonek;
position = "{216, 10}";
},
{
name = top;
position = "{229, 459}";
}
);
layerId = "EDFD1FE9-67C2-43D2-81E5-EF1682ABC3BD";
paths = (
{
closed = 1;
nodes = (
"345 459 LINE",
"319 417 LINE",
"175 248 LINE",
"175 241 LINE",
"233 156 OFFCURVE",
"297 75 OFFCURVE",
"364 -5 CURVE",
"373 -9 LINE",
"399 -5 OFFCURVE",
"424 -2 OFFCURVE",
"449 5 CURVE",
"449 15 LINE",
"383 90 OFFCURVE",
"318 169 OFFCURVE",
"258 249 CURVE",
"436 459 LINE"
);
},
{
closed = 1;
nodes = (
"161 0 LINE",
"159 201 LINE",
"162 461 LINE",
"79 453 LINE",
"81 194 LINE",
"78 0 LINE"
);
}
);
width = 457;
}
);
leftKerningGroup = h;
rightKerningGroup = x;
rightMetricsKey = k;
unicode = 0138;
},
{
color = 1;
glyphname = l;
lastChange = "2016-10-28 13:22:51 +0000";
layers = (
{
anchors = (
{
name = bottom;
position = "{124, 0}";
},
{
name = top;
position = "{124, 680}";
},
{
name = topright;
position = "{229, 459}";
}
);
layerId = "EDFD1FE9-67C2-43D2-81E5-EF1682ABC3BD";
paths = (
{
closed = 1;
nodes = (
"83 695 LINE",
"86 193 LINE",
"83 0 LINE",
"166 0 LINE",
"163 200 LINE",
"166 702 LINE"
);
}
);
width = 249;
}
);
leftKerningGroup = h;
rightKerningGroup = l;
unicode = 006C;
},
{
color = 0;
glyphname = lcaron;
lastChange = "2016-10-28 13:22:51 +0000";
layers = (
{
components = (
{
name = l;
},
{
name = caron.alt;
transform = "{1, 0, 0, 1, 75, -48}";
}
);
layerId = "EDFD1FE9-67C2-43D2-81E5-EF1682ABC3BD";
paths = (
{
closed = 0;
nodes = (
"205 148 LINE"
);
}
);
width = 290;
}
);
leftKerningGroup = h;
rightKerningGroup = l;
unicode = 013E;
},
{
color = 0;
glyphname = ldot;
lastChange = "2016-10-28 13:22:51 +0000";
layers = (
{
components = (
{
name = l;
},
{
name = periodcentered;
transform = "{1, 0, 0, 1, 156, 35}";
}
);
layerId = "EDFD1FE9-67C2-43D2-81E5-EF1682ABC3BD";
paths = (
{
closed = 0;
nodes = (
"176 -78 LINE"
);
}
);
width = 313;
}
);
leftKerningGroup = h;
rightKerningGroup = l;
unicode = 0140;
},
{
color = 0;
glyphname = lslash;
lastChange = "2016-10-28 13:22:51 +0000";
layers = (
{
components = (
{
name = l;
transform = "{1, 0, 0, 1, 7, 0}";
}
);
layerId = "EDFD1FE9-67C2-43D2-81E5-EF1682ABC3BD";
paths = (
{
closed = 1;
nodes = (
"143 411 LINE",
"136 416 LINE",
"-10 342 LINE",
"7 294 LINE",
"14 292 LINE",
"137 354 LINE",
"144 349 LINE",
"274 416 LINE",
"258 464 LINE",
"251 466 LINE"
);
}
);
width = 263;
}
);
leftKerningGroup = lslash;
rightKerningGroup = lslash;
unicode = 0142;
},
{
color = 1;
glyphname = m;
lastChange = "2016-10-28 13:22:51 +0000";
layers = (
{
anchors = (
{
name = bottom;
position = "{399, 0}";
},
{
name = top;
position = "{399, 459}";
}
);
layerId = "EDFD1FE9-67C2-43D2-81E5-EF1682ABC3BD";
paths = (
{
closed = 1;
nodes = (
"537 459 OFFCURVE",
"485 429 OFFCURVE",
"440 382 CURVE",
"422 382 LINE",
"431 327 LINE",
"473 372 OFFCURVE",
"519 397 OFFCURVE",
"560 397 CURVE SMOOTH",
"615 397 OFFCURVE",
"647 363 OFFCURVE",
"647 300 CURVE SMOOTH",
"642 0 LINE",
"725 0 LINE",
"724 200 LINE",
"725 330 LINE SMOOTH",
"726 416 OFFCURVE",
"676 465 OFFCURVE",
"587 465 CURVE SMOOTH"
);
},
{
closed = 1;
nodes = (
"79 453 LINE",
"81 194 LINE",
"78 0 LINE",
"161 0 LINE",
"158 201 LINE",
"158 461 LINE"
);
},
{
closed = 1;
nodes = (
"256 459 OFFCURVE",
"207 431 OFFCURVE",
"164 385 CURVE",
"149 385 LINE",
"149 324 LINE",
"192 371 OFFCURVE",
"236 397 OFFCURVE",
"277 397 CURVE SMOOTH",
"333 397 OFFCURVE",
"365 363 OFFCURVE",
"365 300 CURVE SMOOTH",
"360 0 LINE",
"443 0 LINE",
"441 200 LINE",
"442 330 LINE SMOOTH",
"443 416 OFFCURVE",
"394 465 OFFCURVE",
"305 465 CURVE SMOOTH"
);
}
);
width = 797;
}
);
leftKerningGroup = n;
leftMetricsKey = idotless;
rightKerningGroup = n;
rightMetricsKey = n;
unicode = 006D;
},
{
color = 1;
glyphname = n;
lastChange = "2016-10-28 13:22:51 +0000";
layers = (
{
anchors = (
{
name = bottom;
position = "{260, 0}";
},
{
name = top;
position = "{273, 459}";
}
);
layerId = "EDFD1FE9-67C2-43D2-81E5-EF1682ABC3BD";
paths = (
{
closed = 1;
nodes = (
"256 459 OFFCURVE",
"207 431 OFFCURVE",
"164 385 CURVE",
"149 385 LINE",
"149 324 LINE",
"191 370 OFFCURVE",
"237 397 OFFCURVE",
"278 397 CURVE SMOOTH",
"334 397 OFFCURVE",
"366 362 OFFCURVE",
"366 300 CURVE SMOOTH",
"361 0 LINE",
"445 0 LINE",
"443 200 LINE",
"444 330 LINE SMOOTH",
"445 416 OFFCURVE",
"395 465 OFFCURVE",
"306 465 CURVE SMOOTH"
);
},
{
closed = 1;
nodes = (
"79 453 LINE",
"81 194 LINE",
"78 0 LINE",
"161 0 LINE",
"159 201 LINE",
"159 461 LINE"
);
}
);
width = 516;
}
);
leftKerningGroup = n;
leftMetricsKey = idotless;
rightKerningGroup = n;
unicode = 006E;
},
{
color = 1;
glyphname = eng;
lastChange = "2016-10-28 13:22:51 +0000";
layers = (
{
layerId = "EDFD1FE9-67C2-43D2-81E5-EF1682ABC3BD";
paths = (
{
closed = 1;
nodes = (
"256 459 OFFCURVE",
"207 431 OFFCURVE",
"164 385 CURVE",
"149 385 LINE",
"149 324 LINE",
"191 370 OFFCURVE",
"237 397 OFFCURVE",
"278 397 CURVE SMOOTH",
"334 397 OFFCURVE",
"366 362 OFFCURVE",
"366 300 CURVE SMOOTH",
"366 16 LINE SMOOTH",
"366 -64 OFFCURVE",
"346 -105 OFFCURVE",
"290 -146 CURVE",
"290 -156 LINE",
"321 -194 LINE",
"411 -141 OFFCURVE",
"445 -85 OFFCURVE",
"445 20 CURVE SMOOTH",
"443 201 LINE",
"444 330 LINE SMOOTH",
"445 416 OFFCURVE",
"395 465 OFFCURVE",
"306 465 CURVE SMOOTH"
);
},
{
closed = 1;
nodes = (
"79 453 LINE",
"81 194 LINE",
"78 0 LINE",
"161 0 LINE",
"159 201 LINE",
"159 461 LINE"
);
}
);
width = 519;
}
);
leftKerningGroup = n;
leftMetricsKey = n;
rightKerningGroup = j;
rightMetricsKey = j;
unicode = 014B;
},
{
color = 1;
glyphname = o;
lastChange = "2016-10-28 13:22:51 +0000";
layers = (
{
anchors = (
{
name = top;
position = "{246, 459}";
}
);
layerId = "EDFD1FE9-67C2-43D2-81E5-EF1682ABC3BD";
paths = (
{
closed = 1;
nodes = (
"117 467 OFFCURVE",
"41 378 OFFCURVE",
"41 222 CURVE SMOOTH",
"41 76 OFFCURVE",
"113 -8 OFFCURVE",
"239 -8 CURVE SMOOTH",
"373 -8 OFFCURVE",
"449 81 OFFCURVE",
"449 236 CURVE SMOOTH",
"449 383 OFFCURVE",
"377 467 OFFCURVE",
"250 467 CURVE SMOOTH"
);
},
{
closed = 1;
nodes = (
"326 407 OFFCURVE",
"370 347 OFFCURVE",
"370 223 CURVE SMOOTH",
"370 109 OFFCURVE",
"326 51 OFFCURVE",
"244 51 CURVE SMOOTH",
"163 51 OFFCURVE",
"119 110 OFFCURVE",
"119 235 CURVE SMOOTH",
"119 349 OFFCURVE",
"163 407 OFFCURVE",
"245 407 CURVE SMOOTH"
);
}
);
width = 491;
}
);
leftKerningGroup = o;
rightKerningGroup = o;
unicode = 006F;
},
{
color = 1;
glyphname = ohorn;
lastChange = "2016-10-28 13:22:51 +0000";
layers = (
{
anchors = (
{
name = top;
position = "{245, 459}";
}
);
layerId = "EDFD1FE9-67C2-43D2-81E5-EF1682ABC3BD";
paths = (
{
closed = 1;
nodes = (
"450 585 OFFCURVE",
"436 578 OFFCURVE",
"421 566 CURVE",
"418 557 LINE",
"439 537 OFFCURVE",
"450 515 OFFCURVE",
"450 492 CURVE SMOOTH",
"450 459 OFFCURVE",
"426 436 OFFCURVE",
"388 436 CURVE SMOOTH",
"345 436 OFFCURVE",
"318 467 OFFCURVE",
"250 467 CURVE SMOOTH",
"117 467 OFFCURVE",
"41 378 OFFCURVE",
"41 224 CURVE SMOOTH",
"41 76 OFFCURVE",
"112 -8 OFFCURVE",
"240 -8 CURVE SMOOTH",
"373 -8 OFFCURVE",
"449 81 OFFCURVE",
"449 235 CURVE",
"449 305 OFFCURVE",
"432 359 OFFCURVE",
"399 399 CURVE",
"465 395 OFFCURVE",
"518 441 OFFCURVE",
"518 504 CURVE SMOOTH",
"518 551 OFFCURVE",
"487 585 OFFCURVE",
"463 585 CURVE SMOOTH"
);
},
{
closed = 1;
nodes = (
"327 407 OFFCURVE",
"370 347 OFFCURVE",
"370 223 CURVE SMOOTH",
"370 109 OFFCURVE",
"325 51 OFFCURVE",
"245 51 CURVE SMOOTH",
"162 51 OFFCURVE",
"119 110 OFFCURVE",
"119 235 CURVE SMOOTH",
"119 349 OFFCURVE",
"164 407 OFFCURVE",
"244 407 CURVE SMOOTH"
);
}
);
width = 492;
}
);
leftKerningGroup = o;
leftMetricsKey = o;
rightKerningGroup = o;
unicode = 01A1;
},
{
color = 0;
glyphname = ohorngrave;
lastChange = "2016-10-28 13:22:51 +0000";
layers = (
{
components = (
{
name = ohorn;
}
);
layerId = "EDFD1FE9-67C2-43D2-81E5-EF1682ABC3BD";
paths = (
{
closed = 1;
nodes = (
"143 699 LINE",
"111 654 LINE",
"113 645 LINE",
"173 599 OFFCURVE",
"228 559 OFFCURVE",
"286 519 CURVE",
"295 520 LINE",
"318 554 LINE",
"262 600 OFFCURVE",
"209 645 OFFCURVE",
"152 700 CURVE"
);
}
);
width = 492;
}
);
leftKerningGroup = o;
rightKerningGroup = ohorngrave;
unicode = 1EDD;
},
{
color = 11;
glyphname = oslash;
lastChange = "2016-10-28 13:22:51 +0000";
layers = (
{
anchors = (
{
name = top;
position = "{245, 459}";
}
);
components = (
{
name = o;
}
);
layerId = "EDFD1FE9-67C2-43D2-81E5-EF1682ABC3BD";
paths = (
{
closed = 1;
nodes = (
"381 553 LINE",
"57 -87 LINE",
"60 -95 LINE",
"102 -116 LINE",
"425 524 LINE",
"421 533 LINE"
);
}
);
width = 491;
}
);
leftKerningGroup = o;
rightKerningGroup = o;
unicode = 00F8;
},
{
color = 1;
glyphname = oe;
lastChange = "2016-10-28 13:22:51 +0000";
layers = (
{
anchors = (
{
name = top;
position = "{471, 459}";
}
);
layerId = "EDFD1FE9-67C2-43D2-81E5-EF1682ABC3BD";
paths = (
{
closed = 1;
nodes = (
"113 466 OFFCURVE",
"36 378 OFFCURVE",
"36 224 CURVE SMOOTH",
"36 76 OFFCURVE",
"108 -8 OFFCURVE",
"233 -8 CURVE SMOOTH",
"358 -8 OFFCURVE",
"428 81 OFFCURVE",
"428 235 CURVE SMOOTH",
"428 384 OFFCURVE",
"361 466 OFFCURVE",
"243 466 CURVE SMOOTH"
);
},
{
closed = 1;
nodes = (
"322 407 OFFCURVE",
"365 347 OFFCURVE",
"365 223 CURVE SMOOTH",
"365 109 OFFCURVE",
"321 51 OFFCURVE",
"240 51 CURVE SMOOTH",
"158 51 OFFCURVE",
"115 110 OFFCURVE",
"115 235 CURVE SMOOTH",
"115 349 OFFCURVE",
"159 407 OFFCURVE",
"240 407 CURVE SMOOTH"
);
},
{
closed = 1;
nodes = (
"448 466 OFFCURVE",
"372 375 OFFCURVE",
"372 226 CURVE SMOOTH",
"372 82 OFFCURVE",
"445 -8 OFFCURVE",
"570 -8 CURVE SMOOTH",
"619 -8 OFFCURVE",
"665 6 OFFCURVE",
"702 28 CURVE",
"715 89 LINE",
"706 94 LINE",
"667 68 OFFCURVE",
"621 55 OFFCURVE",
"579 55 CURVE SMOOTH",
"484 55 OFFCURVE",
"435 120 OFFCURVE",
"435 229 CURVE SMOOTH",
"435 341 OFFCURVE",
"486 409 OFFCURVE",
"566 409 CURVE SMOOTH",
"628 409 OFFCURVE",
"664 368 OFFCURVE",
"664 300 CURVE",
"663 285 LINE",
"421 276 LINE",
"421 231 LINE",
"722 239 LINE",
"733 252 LINE",
"735 263 OFFCURVE",
"736 280 OFFCURVE",
"736 293 CURVE SMOOTH",
"736 400 OFFCURVE",
"675 466 OFFCURVE",
"567 466 CURVE SMOOTH"
);
}
);
width = 774;
}
);
leftKerningGroup = o;
rightKerningGroup = e;
unicode = 0153;
},
{
color = 1;
glyphname = p;
lastChange = "2016-10-28 13:22:51 +0000";
layers = (
{
anchors = (
{
name = bottom;
position = "{254, 0}";
},
{
name = top;
position = "{254, 459}";
}
);
layerId = "EDFD1FE9-67C2-43D2-81E5-EF1682ABC3BD";
paths = (
{
closed = 1;
nodes = (
"244 459 OFFCURVE",
"198 433 OFFCURVE",
"163 393 CURVE",
"139 393 LINE",
"146 326 LINE",
"180 372 OFFCURVE",
"223 397 OFFCURVE",
"269 397 CURVE SMOOTH",
"346 397 OFFCURVE",
"388 339 OFFCURVE",
"388 230 CURVE SMOOTH",
"388 112 OFFCURVE",
"336 49 OFFCURVE",
"240 49 CURVE SMOOTH",
"199 49 OFFCURVE",
"143 67 OFFCURVE",
"96 94 CURVE",
"91 22 LINE",
"141 1 OFFCURVE",
"192 -8 OFFCURVE",
"244 -8 CURVE SMOOTH",
"386 -8 OFFCURVE",
"467 84 OFFCURVE",
"467 242 CURVE SMOOTH",
"467 383 OFFCURVE",
"402 465 OFFCURVE",
"292 465 CURVE SMOOTH"
);
},
{
closed = 1;
nodes = (
"79 453 LINE",
"81 194 LINE",
"78 -185 LINE",
"161 -185 LINE",
"158 201 LINE",
"158 461 LINE"
);
}
);
width = 509;
}
);
leftKerningGroup = p;
leftMetricsKey = idotless;
rightKerningGroup = o;
rightMetricsKey = o;
unicode = 0070;
},
{
color = 1;
glyphname = thorn;
lastChange = "2016-10-28 13:22:51 +0000";
layers = (
{
layerId = "EDFD1FE9-67C2-43D2-81E5-EF1682ABC3BD";
paths = (
{
closed = 1;
nodes = (
"248 458 OFFCURVE",
"202 433 OFFCURVE",
"167 392 CURVE",
"145 392 LINE",
"150 325 LINE",
"185 371 OFFCURVE",
"228 396 OFFCURVE",
"274 396 CURVE SMOOTH",
"351 396 OFFCURVE",
"393 338 OFFCURVE",
"393 232 CURVE SMOOTH",
"393 109 OFFCURVE",
"338 48 OFFCURVE",
"244 48 CURVE SMOOTH",
"208 48 OFFCURVE",
"154 63 OFFCURVE",
"100 94 CURVE",
"98 19 LINE",
"146 2 OFFCURVE",
"200 -8 OFFCURVE",
"249 -8 CURVE SMOOTH",
"388 -8 OFFCURVE",
"472 81 OFFCURVE",
"472 241 CURVE SMOOTH",
"472 382 OFFCURVE",
"407 464 OFFCURVE",
"296 464 CURVE SMOOTH"
);
},
{
closed = 1;
nodes = (
"83 695 LINE",
"85 194 LINE",
"83 -185 LINE",
"164 -185 LINE",
"162 203 LINE",
"165 702 LINE"
);
}
);
width = 513;
}
);
leftKerningGroup = h;
leftMetricsKey = l;
rightKerningGroup = o;
rightMetricsKey = b;
unicode = 00FE;
},
{
color = 1;
glyphname = q;
lastChange = "2016-10-28 13:22:51 +0000";
layers = (
{
layerId = "EDFD1FE9-67C2-43D2-81E5-EF1682ABC3BD";
paths = (
{
closed = 1;
nodes = (
"339 456 OFFCURVE",
"302 466 OFFCURVE",
"259 466 CURVE SMOOTH",
"128 466 OFFCURVE",
"41 380 OFFCURVE",
"41 222 CURVE SMOOTH",
"41 79 OFFCURVE",
"112 -6 OFFCURVE",
"225 -6 CURVE SMOOTH",
"272 -2 OFFCURVE",
"310 22 OFFCURVE",
"345 61 CURVE",
"349 61 LINE",
"349 34 LINE",
"346 -185 LINE",
"429 -185 LINE",
"426 189 LINE",
"430 460 LINE",
"421 465 LINE",
"374 446 LINE"
);
},
{
closed = 1;
nodes = (
"289 406 OFFCURVE",
"316 401 OFFCURVE",
"348 392 CURVE",
"349 179 LINE",
"349 121 LINE",
"319 81 OFFCURVE",
"282 58 OFFCURVE",
"239 58 CURVE SMOOTH",
"166 58 OFFCURVE",
"119 119 OFFCURVE",
"119 233 CURVE SMOOTH",
"119 348 OFFCURVE",
"169 406 OFFCURVE",
"262 406 CURVE SMOOTH"
);
}
);
width = 507;
}
);
leftKerningGroup = o;
leftMetricsKey = o;
rightMetricsKey = idotless;
unicode = 0071;
},
{
color = 0;
glyphname = r;
lastChange = "2016-10-28 13:22:51 +0000";
layers = (
{
anchors = (
{
name = bottom;
position = "{120, 0}";
},
{
name = top;
position = "{195, 459}";
}
);
layerId = "EDFD1FE9-67C2-43D2-81E5-EF1682ABC3BD";
paths = (
{
closed = 1;
nodes = (
"79 453 LINE",
"81 194 LINE",
"78 0 LINE",
"161 0 LINE",
"159 201 LINE",
"159 461 LINE"
);
},
{
closed = 1;
nodes = (
"241 460 OFFCURVE",
"200 426 OFFCURVE",
"164 358 CURVE",
"150 358 LINE",
"150 276 LINE",
"192 350 OFFCURVE",
"235 384 OFFCURVE",
"278 384 CURVE SMOOTH",
"288 384 OFFCURVE",
"298 382 OFFCURVE",
"308 379 CURVE",
"318 382 LINE",
"318 458 LINE",
"310 459 OFFCURVE",
"301 460 OFFCURVE",
"293 460 CURVE SMOOTH"
);
}
);
width = 325;
}
);
leftKerningGroup = n;
leftMetricsKey = idotless;
rightKerningGroup = r;
unicode = 0072;
},
{
color = 1;
glyphname = s;
lastChange = "2016-10-28 13:22:51 +0000";
layers = (
{
anchors = (
{
name = bottom;
position = "{175, 0}";
},
{
name = top;
position = "{185, 459}";
}
);
layerId = "EDFD1FE9-67C2-43D2-81E5-EF1682ABC3BD";
paths = (
{
closed = 1;
nodes = (
"107 465 OFFCURVE",
"46 409 OFFCURVE",
"46 333 CURVE SMOOTH",
"46 193 OFFCURVE",
"262 211 OFFCURVE",
"262 119 CURVE SMOOTH",
"262 82 OFFCURVE",
"230 48 OFFCURVE",
"173 48 CURVE SMOOTH",
"136 48 OFFCURVE",
"89 64 OFFCURVE",
"50 93 CURVE",
"41 87 LINE",
"31 24 LINE",
"74 3 OFFCURVE",
"123 -8 OFFCURVE",
"165 -8 CURVE SMOOTH",
"275 -8 OFFCURVE",
"333 59 OFFCURVE",
"333 130 CURVE SMOOTH",
"333 268 OFFCURVE",
"117 250 OFFCURVE",
"117 343 CURVE SMOOTH",
"117 379 OFFCURVE",
"147 409 OFFCURVE",
"198 409 CURVE SMOOTH",
"223 409 OFFCURVE",
"260 399 OFFCURVE",
"297 379 CURVE",
"308 382 LINE",
"321 443 LINE",
"282 458 OFFCURVE",
"243 465 OFFCURVE",
"207 465 CURVE SMOOTH"
);
}
);
width = 373;
}
);
leftKerningGroup = s;
rightKerningGroup = s;
unicode = 0073;
},
{
color = 0;
glyphname = saltillo;
lastChange = "2016-10-28 13:22:51 +0000";
layers = (
{
components = (
{
name = quotesingle;
transform = "{1, 0, 0, 1.4761, -21, -402}";
}
);
layerId = "EDFD1FE9-67C2-43D2-81E5-EF1682ABC3BD";
paths = (
{
closed = 0;
nodes = (
"66 137 LINE"
);
}
);
width = 131;
}
);
unicode = A78C;
},
{
color = 1;
glyphname = germandbls;
lastChange = "2016-10-28 13:22:51 +0000";
layers = (
{
layerId = "EDFD1FE9-67C2-43D2-81E5-EF1682ABC3BD";
paths = (
{
closed = 1;
nodes = (
"185 704 OFFCURVE",
"105 632 OFFCURVE",
"105 503 CURVE SMOOTH",
"107 190 LINE",
"103.994 0 LINE",
"187 0 LINE",
"184 199 LINE",
"186 512 LINE SMOOTH",
"186 599 OFFCURVE",
"232 642 OFFCURVE",
"305 642 CURVE SMOOTH",
"364 642 OFFCURVE",
"400 615 OFFCURVE",
"400 562 CURVE SMOOTH",
"400 470 OFFCURVE",
"287 462 OFFCURVE",
"287 356 CURVE SMOOTH",
"287 214 OFFCURVE",
"486 209 OFFCURVE",
"486 118 CURVE SMOOTH",
"486 82 OFFCURVE",
"455 48 OFFCURVE",
"399 48 CURVE SMOOTH",
"363 48 OFFCURVE",
"318 64 OFFCURVE",
"282 93 CURVE",
"273 87 LINE",
"263 24 LINE",
"304 3 OFFCURVE",
"351 -8 OFFCURVE",
"393 -8 CURVE SMOOTH",
"500 -8 OFFCURVE",
"558 58 OFFCURVE",
"558 132 CURVE SMOOTH",
"558 268 OFFCURVE",
"358 265 OFFCURVE",
"358 370 CURVE SMOOTH",
"358 449 OFFCURVE",
"471 465 OFFCURVE",
"471 575 CURVE SMOOTH",
"471 651 OFFCURVE",
"415 704 OFFCURVE",
"308 704 CURVE SMOOTH"
);
},
{
closed = 1;
nodes = (
"40 457 LINE",
"35 410 LINE",
"39 404 LINE",
"148 404 LINE",
"153 451 LINE",
"149 457 LINE"
);
}
);
width = 568;
}
);
leftKerningGroup = f;
leftMetricsKey = f;
rightKerningGroup = s;
unicode = 00DF;
},
{
color = 0;
glyphname = tbar;
lastChange = "2016-10-28 13:22:51 +0000";
layers = (
{
components = (
{
name = t;
transform = "{1, 0, 0, 1, 2, 0}";
}
);
layerId = "EDFD1FE9-67C2-43D2-81E5-EF1682ABC3BD";
paths = (
{
closed = 1;
nodes = (
"31 291 LINE",
"27 249 LINE",
"34 242 LINE",
"291 242 LINE",
"294 285 LINE",
"288 291 LINE"
);
}
);
width = 325;
}
);
leftKerningGroup = t;
rightKerningGroup = t;
unicode = 0167;
},
{
color = 1;
glyphname = u;
lastChange = "2016-10-28 13:22:51 +0000";
layers = (
{
anchors = (
{
name = ogonek;
position = "{465, 10}";
},
{
name = top;
position = "{257, 459}";
}
);
layerId = "EDFD1FE9-67C2-43D2-81E5-EF1682ABC3BD";
paths = (
{
closed = 1;
nodes = (
"349 453 LINE",
"349 128 LINE",
"309 85 OFFCURVE",
"270 64 OFFCURVE",
"230 64 CURVE SMOOTH",
"179 64 OFFCURVE",
"151 96 OFFCURVE",
"151 158 CURVE SMOOTH",
"151 461 LINE",
"71 453 LINE",
"73 225 LINE",
"72 130 LINE SMOOTH",
"72 44 OFFCURVE",
"119 -5 OFFCURVE",
"204 -5 CURVE SMOOTH",
"256 0 OFFCURVE",
"303 29 OFFCURVE",
"347 77 CURVE",
"354 77 LINE",
"361 20 OFFCURVE",
"385 -4 OFFCURVE",
"422 -6 CURVE SMOOTH",
"448 -4 OFFCURVE",
"467 2 OFFCURVE",
"484 14 CURVE",
"493 62 LINE",
"485 67 LINE",
"474 60 OFFCURVE",
"462 57 OFFCURVE",
"452 57 CURVE SMOOTH",
"433 57 OFFCURVE",
"424 71 OFFCURVE",
"424 104 CURVE SMOOTH",
"428 461 LINE"
);
}
);
width = 515;
}
);
leftKerningGroup = u;
leftMetricsKey = "|n";
rightKerningGroup = u;
rightMetricsKey = d;
unicode = 0075;
},
{
color = 1;
glyphname = uhorn;
lastChange = "2016-10-28 13:22:51 +0000";
layers = (
{
anchors = (
{
name = top;
position = "{245, 459}";
}
);
layerId = "EDFD1FE9-67C2-43D2-81E5-EF1682ABC3BD";
paths = (
{
closed = 1;
nodes = (
"457 608 OFFCURVE",
"443 601 OFFCURVE",
"428 589 CURVE",
"425 581 LINE",
"447 559 OFFCURVE",
"457 536 OFFCURVE",
"457 516 CURVE SMOOTH",
"457 485 OFFCURVE",
"434 466 OFFCURVE",
"383 458 CURVE SMOOTH",
"350 453 LINE",
"350 128 LINE",
"309 84 OFFCURVE",
"270 64 OFFCURVE",
"231 64 CURVE SMOOTH",
"179 64 OFFCURVE",
"151 96 OFFCURVE",
"151 158 CURVE SMOOTH",
"151 461 LINE",
"71 453 LINE",
"73 218 LINE",
"72 130 LINE SMOOTH",
"72 43 OFFCURVE",
"120 -5 OFFCURVE",
"204 -5 CURVE SMOOTH",
"254 0 OFFCURVE",
"301 25 OFFCURVE",
"347 75 CURVE",
"352 75 LINE",
"361 17 OFFCURVE",
"384 -5 OFFCURVE",
"425 -5 CURVE SMOOTH",
"448 -5 OFFCURVE",
"469 2 OFFCURVE",
"486 14 CURVE",
"496 62 LINE",
"487 68 LINE",
"477 61 OFFCURVE",
"465 57 OFFCURVE",
"455 57 CURVE SMOOTH",
"435 57 OFFCURVE",
"426 72 OFFCURVE",
"426 105 CURVE SMOOTH",
"429 425 LINE",
"489 442 OFFCURVE",
"525 479 OFFCURVE",
"525 529 CURVE SMOOTH",
"525 574 OFFCURVE",
"494 608 OFFCURVE",
"470 608 CURVE SMOOTH"
);
}
);
width = 524;
}
);
leftKerningGroup = u;
leftMetricsKey = u;
rightKerningGroup = u;
unicode = 01B0;
},
{
color = 0;
glyphname = uogonek;
lastChange = "2016-10-28 13:22:51 +0000";
layers = (
{
components = (
{
name = u;
}
);
layerId = "EDFD1FE9-67C2-43D2-81E5-EF1682ABC3BD";
paths = (
{
closed = 1;
nodes = (
"435 18 LINE",
"360 -59 OFFCURVE",
"339 -89 OFFCURVE",
"339 -124 CURVE SMOOTH",
"339 -169 OFFCURVE",
"372 -197 OFFCURVE",
"414 -197 CURVE SMOOTH",
"448 -197 OFFCURVE",
"475 -177 OFFCURVE",
"502 -144 CURVE",
"491 -108 LINE",
"486 -108 LINE",
"467 -134 OFFCURVE",
"447 -149 OFFCURVE",
"425 -149 CURVE SMOOTH",
"404 -149 OFFCURVE",
"387 -136 OFFCURVE",
"387 -112 CURVE SMOOTH",
"387 -89 OFFCURVE",
"404 -64 OFFCURVE",
"484 14 CURVE"
);
}
);
width = 518;
}
);
leftKerningGroup = u;
rightKerningGroup = u;
unicode = 0173;
},
{
color = 1;
glyphname = v;
lastChange = "2016-10-28 13:22:51 +0000";
layers = (
{
layerId = "EDFD1FE9-67C2-43D2-81E5-EF1682ABC3BD";
paths = (
{
closed = 1;
nodes = (
"20 457 LINE",
"162 0 LINE",
"252 0 LINE",
"419 459 LINE",
"343 459 LINE",
"327 395 LINE",
"214 84 LINE",
"208 84 LINE",
"112 399 LINE",
"99 462 LINE"
);
}
);
width = 427;
}
);
leftKerningGroup = v;
rightKerningGroup = v;
unicode = 0076;
},
{
color = 1;
glyphname = w;
lastChange = "2016-10-28 13:22:51 +0000";
layers = (
{
anchors = (
{
name = top;
position = "{343, 459}";
}
);
layerId = "EDFD1FE9-67C2-43D2-81E5-EF1682ABC3BD";
paths = (
{
closed = 1;
nodes = (
"20 457 LINE",
"147 0 LINE",
"230 0 LINE",
"339 350 LINE",
"346 350 LINE",
"440 0 LINE",
"520 0 LINE",
"671 459 LINE",
"598 459 LINE",
"583 397 LINE",
"488 90 LINE",
"482 90 LINE",
"400 401 LINE",
"389 459 LINE",
"307 459 LINE",
"292 397 LINE",
"196 89 LINE",
"190 89 LINE",
"109 401 LINE",
"97 462 LINE"
);
}
);
width = 678;
}
);
leftKerningGroup = v;
leftMetricsKey = v;
rightKerningGroup = v;
rightMetricsKey = v;
unicode = 0077;
},
{
color = 1;
glyphname = x;
lastChange = "2016-10-28 13:22:51 +0000";
layers = (
{
layerId = "EDFD1FE9-67C2-43D2-81E5-EF1682ABC3BD";
paths = (
{
closed = 1;
nodes = (
"25 456 LINE",
"167 233 LINE",
"18 0 LINE",
"96 0 LINE",
"117 40 LINE",
"213 184 LINE",
"305 44 LINE",
"328 -4 LINE",
"418 4 LINE",
"270 234 LINE",
"414 459 LINE",
"336 459 LINE",
"313 417 LINE",
"224 283 LINE",
"136 417 LINE",
"116 462 LINE"
);
}
);
width = 438;
}
);
rightKerningGroup = x;
unicode = 0078;
},
{
color = 1;
glyphname = y;
lastChange = "2016-10-28 13:22:51 +0000";
layers = (
{
anchors = (
{
name = top;
position = "{218, 459}";
}
);
layerId = "EDFD1FE9-67C2-43D2-81E5-EF1682ABC3BD";
paths = (
{
closed = 1;
nodes = (
"8 457 LINE",
"176 0 LINE",
"128 -87 OFFCURVE",
"80 -113 OFFCURVE",
"-15 -131 CURVE",
"-17 -141 LINE",
"-8 -159 OFFCURVE",
"3 -176 OFFCURVE",
"18 -191 CURVE",
"26 -191 LINE",
"154 -160 OFFCURVE",
"207 -116 OFFCURVE",
"256 18 CURVE SMOOTH",
"419 459 LINE",
"344 459 LINE",
"328 394 LINE",
"218 91 LINE",
"211 91 LINE",
"103 401 LINE",
"88 462 LINE"
);
}
);
width = 429;
}
);
leftKerningGroup = v;
rightKerningGroup = v;
unicode = 0079;
},
{
color = 0;
glyphname = ydotbelow;
lastChange = "2016-10-28 13:22:51 +0000";
layers = (
{
components = (
{
name = y;
},
{
name = dotbelowcomb;
transform = "{0.9671, 0, 0, 0.9671, 204, 4}";
}
);
layerId = "EDFD1FE9-67C2-43D2-81E5-EF1682ABC3BD";
paths = (
{
closed = 0;
nodes = (
"249 329 LINE"
);
}
);
width = 437;
}
);
leftKerningGroup = y;
rightKerningGroup = y;
unicode = 1EF5;
},
{
color = 1;
glyphname = z;
lastChange = "2016-10-28 13:22:51 +0000";
layers = (
{
anchors = (
{
name = top;
position = "{206, 459}";
}
);
layerId = "EDFD1FE9-67C2-43D2-81E5-EF1682ABC3BD";
paths = (
{
closed = 1;
nodes = (
"39 407 LINE",
"45 400 LINE",
"109 403 LINE",
"287 403 LINE",
"31 50 LINE",
"31 -2 LINE",
"79 0 LINE",
"288 0 LINE",
"376 -2 LINE",
"383 52 LINE",
"377 59 LINE",
"309 56 LINE",
"123 56 LINE",
"377 408 LINE",
"377 460 LINE",
"337 459 LINE",
"122 459 LINE",
"46 461 LINE"
);
}
);
width = 413;
}
);
leftKerningGroup = z;
rightKerningGroup = z;
unicode = 007A;
},
{
color = 1;
glyphname = f.f;
lastChange = "2016-10-28 13:22:51 +0000";
layers = (
{
anchors = (
{
name = bottom;
position = "{177, 0}";
},
{
name = top;
position = "{285, 749}";
}
);
layerId = "EDFD1FE9-67C2-43D2-81E5-EF1682ABC3BD";
paths = (
{
closed = 1;
nodes = (
"165 691 OFFCURVE",
"107 629 OFFCURVE",
"107 516 CURVE SMOOTH",
"108 190 LINE",
"105 0 LINE",
"188 0 LINE",
"185 199 LINE",
"187 530 LINE SMOOTH",
"188 595 OFFCURVE",
"213 630 OFFCURVE",
"262 630 CURVE SMOOTH",
"285 630 OFFCURVE",
"310 626 OFFCURVE",
"336 616 CURVE",
"345 619 LINE",
"352 680 LINE",
"324 688 OFFCURVE",
"296 691 OFFCURVE",
"268 691 CURVE SMOOTH"
);
},
{
closed = 1;
nodes = (
"40 457 LINE",
"35 410 LINE",
"39 404 LINE",
"431 404 LINE",
"436 451 LINE",
"432 457 LINE"
);
}
);
width = 304;
}
);
leftKerningGroup = f;
leftMetricsKey = f;
rightKerningGroup = f.f;
},
{
color = 1;
glyphname = f.l;
lastChange = "2016-10-28 13:22:51 +0000";
layers = (
{
layerId = "EDFD1FE9-67C2-43D2-81E5-EF1682ABC3BD";
paths = (
{
closed = 1;
nodes = (
"174 711 OFFCURVE",
"107 651 OFFCURVE",
"107 536 CURVE SMOOTH",
"108 190 LINE",
"105 0 LINE",
"188 0 LINE",
"185 199 LINE",
"187 546 LINE SMOOTH",
"188 618 OFFCURVE",
"226 649 OFFCURVE",
"295 649 CURVE SMOOTH",
"330 649 OFFCURVE",
"369 641 OFFCURVE",
"414 624 CURVE",
"421 629 LINE",
"438 688 LINE",
"386 703 OFFCURVE",
"341 711 OFFCURVE",
"297 711 CURVE SMOOTH"
);
},
{
closed = 1;
nodes = (
"40 457 LINE",
"35 410 LINE",
"39 404 LINE",
"304 404 LINE",
"308 451 LINE",
"305 457 LINE"
);
}
);
width = 315;
}
);
leftKerningGroup = f;
rightKerningGroup = f.l;
},
{
color = 1;
glyphname = a.sups;
lastChange = "2016-10-28 13:22:51 +0000";
layers = (
{
anchors = (
{
name = ogonek;
position = "{309, 6}";
},
{
name = top;
position = "{169, 302}";
}
);
layerId = "EDFD1FE9-67C2-43D2-81E5-EF1682ABC3BD";
paths = (
{
closed = 1;
nodes = (
"124 648 OFFCURVE",
"81 634 OFFCURVE",
"44 609 CURVE",
"52 567 LINE",
"58 564 LINE",
"95 589 OFFCURVE",
"126 602 OFFCURVE",
"153 602 CURVE SMOOTH",
"188 602 OFFCURVE",
"205 585 OFFCURVE",
"205 553 CURVE",
"203 513 LINE",
"96 493 LINE SMOOTH",
"54 485 OFFCURVE",
"31 460 OFFCURVE",
"31 421 CURVE SMOOTH",
"31 367 OFFCURVE",
"66 335 OFFCURVE",
"123 335 CURVE",
"151 340 OFFCURVE",
"180 358 OFFCURVE",
"202 384 CURVE",
"205 384 LINE",
"210 349 OFFCURVE",
"225 336 OFFCURVE",
"254 336 CURVE SMOOTH",
"270 336 OFFCURVE",
"283 340 OFFCURVE",
"296 349 CURVE",
"303 385 LINE",
"297 389 LINE",
"290 385 OFFCURVE",
"282 383 OFFCURVE",
"276 383 CURVE SMOOTH",
"263 383 OFFCURVE",
"258 392 OFFCURVE",
"258 411 CURVE SMOOTH",
"258 427 OFFCURVE",
"264 546 OFFCURVE",
"264 565 CURVE SMOOTH",
"264 618 OFFCURVE",
"228 648 OFFCURVE",
"163 648 CURVE SMOOTH"
);
},
{
closed = 1;
nodes = (
"201 419 LINE",
"181 395 OFFCURVE",
"156 381 OFFCURVE",
"135 381 CURVE SMOOTH",
"106 381 OFFCURVE",
"89 398 OFFCURVE",
"89 426 CURVE SMOOTH",
"89 447 OFFCURVE",
"101 459 OFFCURVE",
"123 464 CURVE SMOOTH",
"203 481 LINE"
);
}
);
width = 321;
}
);
},
{
color = 1;
glyphname = b.sups;
lastChange = "2016-10-28 13:22:51 +0000";
layers = (
{
layerId = "EDFD1FE9-67C2-43D2-81E5-EF1682ABC3BD";
paths = (
{
closed = 1;
nodes = (
"176 642 OFFCURVE",
"145 625 OFFCURVE",
"122 598 CURVE",
"106 598 LINE",
"110 552 LINE",
"133 579 OFFCURVE",
"160 594 OFFCURVE",
"190 594 CURVE SMOOTH",
"240 594 OFFCURVE",
"266 558 OFFCURVE",
"266 491 CURVE SMOOTH",
"266 414 OFFCURVE",
"231 377 OFFCURVE",
"170 377 CURVE SMOOTH",
"146 377 OFFCURVE",
"108 388 OFFCURVE",
"70 411 CURVE",
"68 354 LINE",
"102 342 OFFCURVE",
"140 334 OFFCURVE",
"175 334 CURVE SMOOTH",
"269 334 OFFCURVE",
"327 393 OFFCURVE",
"327 499 CURVE SMOOTH",
"327 591 OFFCURVE",
"283 646 OFFCURVE",
"207 646 CURVE SMOOTH"
);
},
{
closed = 1;
nodes = (
"58 796 LINE",
"59 466 LINE",
"57 343 LINE",
"64 336 LINE",
"119 355 LINE",
"118 474 LINE",
"122 801 LINE"
);
}
);
width = 357;
}
);
leftMetricsKey = n.sups;
rightMetricsKey = o.sups;
},
{
color = 1;
glyphname = c.sups;
lastChange = "2016-10-28 13:22:51 +0000";
layers = (
{
anchors = (
{
name = bottom;
position = "{166, 0}";
},
{
name = top;
position = "{175, 303}";
}
);
layerId = "EDFD1FE9-67C2-43D2-81E5-EF1682ABC3BD";
paths = (
{
closed = 1;
nodes = (
"82 648 OFFCURVE",
"30 587 OFFCURVE",
"30 487 CURVE SMOOTH",
"30 393 OFFCURVE",
"78 334 OFFCURVE",
"158 334 CURVE SMOOTH",
"189 334 OFFCURVE",
"220 342 OFFCURVE",
"245 354 CURVE",
"251 402 LINE",
"245 406 LINE",
"222 394 OFFCURVE",
"196 386 OFFCURVE",
"172 386 CURVE SMOOTH",
"121 386 OFFCURVE",
"91 426 OFFCURVE",
"91 493 CURVE SMOOTH",
"91 557 OFFCURVE",
"120 595 OFFCURVE",
"168 595 CURVE SMOOTH",
"192 595 OFFCURVE",
"215 586 OFFCURVE",
"235 574 CURVE",
"241 576 LINE",
"253 626 LINE",
"230 639 OFFCURVE",
"199 648 OFFCURVE",
"168 648 CURVE SMOOTH"
);
}
);
width = 258;
}
);
leftMetricsKey = o.sups;
},
{
color = 1;
glyphname = d.sups;
lastChange = "2016-10-28 13:22:51 +0000";
layers = (
{
anchors = (
{
name = center;
position = "{191, 152}";
}
);
layerId = "EDFD1FE9-67C2-43D2-81E5-EF1682ABC3BD";
paths = (
{
closed = 1;
nodes = (
"235 796 LINE",
"235 641 LINE",
"217 644 OFFCURVE",
"199 647 OFFCURVE",
"184 647 CURVE SMOOTH",
"88 647 OFFCURVE",
"30 591 OFFCURVE",
"30 486 CURVE SMOOTH",
"30 393 OFFCURVE",
"79 335 OFFCURVE",
"156 335 CURVE SMOOTH",
"187 340 OFFCURVE",
"213 356 OFFCURVE",
"237 382 CURVE",
"240 382 LINE",
"247 348 OFFCURVE",
"262 336 OFFCURVE",
"289 336 CURVE SMOOTH",
"305 336 OFFCURVE",
"320 340 OFFCURVE",
"333 349 CURVE",
"341 385 LINE",
"335 389 LINE",
"328 385 OFFCURVE",
"320 383 OFFCURVE",
"314 383 CURVE SMOOTH",
"301 383 OFFCURVE",
"296 392 OFFCURVE",
"296 411 CURVE SMOOTH",
"298 801 LINE"
);
},
{
closed = 1;
nodes = (
"200 602 OFFCURVE",
"218 599 OFFCURVE",
"236 593 CURVE",
"237 422 LINE",
"216 397 OFFCURVE",
"193 385 OFFCURVE",
"166 385 CURVE SMOOTH",
"120 385 OFFCURVE",
"90 421 OFFCURVE",
"90 493 CURVE SMOOTH",
"90 567 OFFCURVE",
"122 602 OFFCURVE",
"182 602 CURVE SMOOTH"
);
}
);
width = 353;
}
);
leftMetricsKey = o.sups;
},
{
color = 1;
glyphname = e.sups;
lastChange = "2016-10-28 13:22:51 +0000";
layers = (
{
anchors = (
{
name = bottom;
position = "{183, 0}";
},
{
name = ogonek;
position = "{300, 6}";
},
{
name = top;
position = "{177, 303}";
}
);
layerId = "EDFD1FE9-67C2-43D2-81E5-EF1682ABC3BD";
paths = (
{
closed = 1;
nodes = (
"84 648 OFFCURVE",
"30 588 OFFCURVE",
"30 489 CURVE SMOOTH",
"30 394 OFFCURVE",
"83 334 OFFCURVE",
"175 334 CURVE SMOOTH",
"210 334 OFFCURVE",
"246 343 OFFCURVE",
"275 357 CURVE",
"282 403 LINE",
"276 407 LINE",
"246 391 OFFCURVE",
"212 383 OFFCURVE",
"181 383 CURVE SMOOTH",
"120 383 OFFCURVE",
"90 422 OFFCURVE",
"90 493 CURVE SMOOTH",
"90 562 OFFCURVE",
"119 604 OFFCURVE",
"169 604 CURVE SMOOTH",
"208 604 OFFCURVE",
"235 578 OFFCURVE",
"235 534 CURVE",
"235 531 OFFCURVE",
"235 529 OFFCURVE",
"234 522 CURVE",
"79 522 LINE",
"79 489 LINE",
"282 489 LINE",
"289 497 LINE",
"290 506 OFFCURVE",
"291 519 OFFCURVE",
"291 527 CURVE SMOOTH",
"291 602 OFFCURVE",
"247 648 OFFCURVE",
"170 648 CURVE SMOOTH"
);
}
);
width = 308;
}
);
leftMetricsKey = o.sups;
},
{
color = 1;
glyphname = f.sups;
lastChange = "2016-10-28 13:22:51 +0000";
layers = (
{
layerId = "EDFD1FE9-67C2-43D2-81E5-EF1682ABC3BD";
paths = (
{
closed = 1;
nodes = (
"117 803 OFFCURVE",
"73 762 OFFCURVE",
"73 688 CURVE SMOOTH",
"75 465 LINE",
"73 340 LINE",
"136 340 LINE",
"134 471 LINE",
"135 698 LINE SMOOTH",
"135 737 OFFCURVE",
"155 756 OFFCURVE",
"188 756 CURVE SMOOTH",
"203 756 OFFCURVE",
"219 753 OFFCURVE",
"239 745 CURVE",
"244 749 LINE",
"248 797 LINE",
"229 801 OFFCURVE",
"211 803 OFFCURVE",
"194 803 CURVE SMOOTH"
);
},
{
closed = 1;
nodes = (
"28 641 LINE",
"25 605 LINE",
"28 601 LINE",
"214 601 LINE",
"217 637 LINE",
"215 641 LINE"
);
}
);
width = 190;
}
);
},
{
color = 1;
glyphname = g.sups;
lastChange = "2016-10-28 13:22:51 +0000";
layers = (
{
anchors = (
{
name = top;
position = "{185, 298}";
}
);
layerId = "EDFD1FE9-67C2-43D2-81E5-EF1682ABC3BD";
paths = (
{
closed = 1;
nodes = (
"92 453 LINE",
"73 440 OFFCURVE",
"56 426 OFFCURVE",
"48 413 CURVE",
"47 319 OFFCURVE",
"254 369 OFFCURVE",
"254 304 CURVE SMOOTH",
"254 273 OFFCURVE",
"216 251 OFFCURVE",
"166 251 CURVE SMOOTH",
"119 251 OFFCURVE",
"93 271 OFFCURVE",
"93 297 CURVE SMOOTH",
"93 319 OFFCURVE",
"114 336 OFFCURVE",
"144 352 CURVE",
"101 363 LINE",
"101 354 LINE",
"68 336 OFFCURVE",
"46 316 OFFCURVE",
"40 292 CURVE SMOOTH",
"40 247 OFFCURVE",
"84 213 OFFCURVE",
"162 213 CURVE SMOOTH",
"247 213 OFFCURVE",
"309 256 OFFCURVE",
"309 315 CURVE SMOOTH",
"309 419 OFFCURVE",
"102 375 OFFCURVE",
"102 421 CURVE SMOOTH",
"102 429 OFFCURVE",
"106 435 OFFCURVE",
"126 448 CURVE",
"92 460 LINE"
);
},
{
closed = 1;
nodes = (
"213 605 OFFCURVE",
"237 584 OFFCURVE",
"237 543 CURVE SMOOTH",
"237 502 OFFCURVE",
"212 480 OFFCURVE",
"168 480 CURVE SMOOTH",
"125 480 OFFCURVE",
"101 502 OFFCURVE",
"101 542 CURVE SMOOTH",
"101 583 OFFCURVE",
"126 605 OFFCURVE",
"170 605 CURVE SMOOTH"
);
},
{
closed = 1;
nodes = (
"92 647 OFFCURVE",
"45 608 OFFCURVE",
"45 541 CURVE SMOOTH",
"45 478 OFFCURVE",
"90 439 OFFCURVE",
"167 439 CURVE SMOOTH",
"246 439 OFFCURVE",
"294 479 OFFCURVE",
"294 545 CURVE SMOOTH",
"294 605 OFFCURVE",
"245 647 OFFCURVE",
"171 647 CURVE SMOOTH"
);
},
{
closed = 1;
nodes = (
"304 647 OFFCURVE",
"266 637 OFFCURVE",
"234 631 CURVE",
"271 588 LINE",
"278 601 LINE",
"297 604 OFFCURVE",
"315 606 OFFCURVE",
"337 611 CURVE",
"337 653 LINE",
"332 657 LINE"
);
}
);
width = 330;
}
);
},
{
color = 1;
glyphname = h.sups;
lastChange = "2016-10-28 13:22:51 +0000";
layers = (
{
anchors = (
{
name = center;
position = "{193, 152}";
},
{
name = top;
position = "{99, 428}";
}
);
layerId = "EDFD1FE9-67C2-43D2-81E5-EF1682ABC3BD";
paths = (
{
closed = 1;
nodes = (
"184 642 OFFCURVE",
"152 623 OFFCURVE",
"123 594 CURVE",
"112 594 LINE",
"112 550 LINE",
"139 579 OFFCURVE",
"169 594 OFFCURVE",
"195 594 CURVE SMOOTH",
"231 594 OFFCURVE",
"252 573 OFFCURVE",
"252 534 CURVE SMOOTH",
"248 340 LINE",
"312 340 LINE",
"310 472 LINE",
"312 558 LINE SMOOTH",
"313 614 OFFCURVE",
"278 646 OFFCURVE",
"217 646 CURVE SMOOTH"
);
},
{
closed = 0;
nodes = (
"184 479 LINE"
);
},
{
closed = 1;
nodes = (
"58 796 LINE",
"59 467 LINE",
"57 340 LINE",
"122 340 LINE",
"119 473 LINE",
"122 801 LINE"
);
}
);
width = 365;
}
);
leftMetricsKey = n.sups;
rightMetricsKey = n.sups;
},
{
color = 1;
glyphname = i.sups;
lastChange = "2016-10-28 13:22:51 +0000";
layers = (
{
layerId = "EDFD1FE9-67C2-43D2-81E5-EF1682ABC3BD";
paths = (
{
closed = 1;
nodes = (
"62 638 LINE",
"64 467 LINE",
"61 340 LINE",
"125 340 LINE",
"123 473 LINE",
"125 644 LINE"
);
},
{
closed = 1;
nodes = (
"73 783 OFFCURVE",
"58 768 OFFCURVE",
"58 745 CURVE SMOOTH",
"58 723 OFFCURVE",
"70 710 OFFCURVE",
"93 710 CURVE SMOOTH",
"115 710 OFFCURVE",
"130 725 OFFCURVE",
"130 747 CURVE SMOOTH",
"130 769 OFFCURVE",
"116 783 OFFCURVE",
"95 783 CURVE SMOOTH"
);
}
);
width = 187;
}
);
leftMetricsKey = n.sups;
},
{
color = 1;
glyphname = j.sups;
lastChange = "2016-10-28 13:22:51 +0000";
layers = (
{
layerId = "EDFD1FE9-67C2-43D2-81E5-EF1682ABC3BD";
paths = (
{
closed = 1;
nodes = (
"60 783 OFFCURVE",
"45 768 OFFCURVE",
"45 745 CURVE SMOOTH",
"45 723 OFFCURVE",
"58 710 OFFCURVE",
"80 710 CURVE SMOOTH",
"103 710 OFFCURVE",
"117 725 OFFCURVE",
"117 747 CURVE SMOOTH",
"117 769 OFFCURVE",
"105 783 OFFCURVE",
"83 783 CURVE SMOOTH"
);
},
{
closed = 1;
nodes = (
"57 641 LINE",
"6 641 LINE",
"2 596 LINE",
"6 591 LINE",
"57 592 LINE",
"58 467 LINE",
"58 352 LINE",
"58 301 OFFCURVE",
"44 274 OFFCURVE",
"6 248 CURVE",
"6 242 LINE",
"29 213 LINE",
"94 247 OFFCURVE",
"119 285 OFFCURVE",
"119 355 CURVE",
"116 473 LINE",
"120 642 LINE",
"117 644 LINE"
);
}
);
width = 179;
}
);
rightMetricsKey = i;
},
{
color = 0;
glyphname = k.sups;
lastChange = "2016-10-28 13:22:51 +0000";
layers = (
{
anchors = (
{
name = bottom;
position = "{190, 0}";
}
);
layerId = "EDFD1FE9-67C2-43D2-81E5-EF1682ABC3BD";
paths = (
{
closed = 1;
nodes = (
"241 642 LINE",
"224 614 LINE",
"128 503 LINE",
"128 499 LINE",
"166 443 OFFCURVE",
"208 389 OFFCURVE",
"253 337 CURVE",
"260 333 LINE",
"280 337 OFFCURVE",
"299 339 OFFCURVE",
"318 344 CURVE",
"318 351 LINE",
"275 401 OFFCURVE",
"231 452 OFFCURVE",
"191 504 CURVE",
"310 642 LINE"
);
},
{
closed = 1;
nodes = (
"58 796 LINE",
"59 467 LINE",
"57 340 LINE",
"122 340 LINE",
"119 473 LINE",
"122 801 LINE"
);
}
);
width = 316;
}
);
leftMetricsKey = n.sups;
},
{
color = 1;
glyphname = l.sups;
lastChange = "2016-10-28 13:22:51 +0000";
layers = (
{
anchors = (
{
name = bottom;
position = "{100, 0}";
},
{
name = top;
position = "{100, 447}";
},
{
name = topright;
position = "{173, 303}";
}
);
layerId = "EDFD1FE9-67C2-43D2-81E5-EF1682ABC3BD";
paths = (
{
closed = 1;
nodes = (
"58 796 LINE",
"59 467 LINE",
"57 340 LINE",
"121 340 LINE",
"119 473 LINE",
"121 801 LINE"
);
}
);
width = 170;
}
);
leftMetricsKey = n.sups;
},
{
color = 1;
glyphname = m.sups;
lastChange = "2016-10-28 13:22:51 +0000";
layers = (
{
layerId = "EDFD1FE9-67C2-43D2-81E5-EF1682ABC3BD";
paths = (
{
closed = 1;
nodes = (
"373 642 OFFCURVE",
"338 623 OFFCURVE",
"309 593 CURVE",
"297 593 LINE",
"302 552 LINE",
"329 580 OFFCURVE",
"358 595 OFFCURVE",
"385 595 CURVE SMOOTH",
"420 595 OFFCURVE",
"441 573 OFFCURVE",
"441 534 CURVE SMOOTH",
"438 340 LINE",
"501 340 LINE",
"500 472 LINE",
"501 558 LINE SMOOTH",
"501 614 OFFCURVE",
"468 646 OFFCURVE",
"407 646 CURVE SMOOTH"
);
},
{
closed = 1;
nodes = (
"58 638 LINE",
"59 467 LINE",
"57 340 LINE",
"120 340 LINE",
"119 473 LINE",
"118 644 LINE"
);
},
{
closed = 0;
nodes = (
"201 404 LINE"
);
},
{
closed = 1;
nodes = (
"183 642 OFFCURVE",
"151 623 OFFCURVE",
"122 594 CURVE",
"111 594 LINE",
"112 551 LINE",
"139 579 OFFCURVE",
"167 595 OFFCURVE",
"194 595 CURVE SMOOTH",
"230 595 OFFCURVE",
"251 573 OFFCURVE",
"251 534 CURVE SMOOTH",
"247 340 LINE",
"311 340 LINE",
"309 472 LINE",
"310 558 LINE SMOOTH",
"311 614 OFFCURVE",
"278 646 OFFCURVE",
"216 646 CURVE SMOOTH"
);
}
);
width = 554;
}
);
leftMetricsKey = n.sups;
rightMetricsKey = n.sups;
},
{
color = 1;
glyphname = n.sups;
lastChange = "2016-10-28 13:22:51 +0000";
layers = (
{
anchors = (
{
name = bottom;
position = "{195, 0}";
},
{
name = top;
position = "{204, 303}";
}
);
layerId = "EDFD1FE9-67C2-43D2-81E5-EF1682ABC3BD";
paths = (
{
closed = 1;
nodes = (
"184 642 OFFCURVE",
"151 623 OFFCURVE",
"122 594 CURVE",
"111 594 LINE",
"111 550 LINE",
"139 579 OFFCURVE",
"169 594 OFFCURVE",
"195 594 CURVE SMOOTH",
"231 594 OFFCURVE",
"252 573 OFFCURVE",
"252 534 CURVE SMOOTH",
"248 340 LINE",
"313 340 LINE",
"310 472 LINE",
"311 558 LINE SMOOTH",
"312 614 OFFCURVE",
"278 646 OFFCURVE",
"217 646 CURVE SMOOTH"
);
},
{
closed = 1;
nodes = (
"58 638 LINE",
"59 467 LINE",
"57 340 LINE",
"122 340 LINE",
"119 473 LINE",
"119 644 LINE"
);
}
);
width = 365;
}
);
},
{
color = 1;
glyphname = o.sups;
lastChange = "2016-10-28 13:22:51 +0000";
layers = (
{
anchors = (
{
name = top;
position = "{181, 303}";
}
);
layerId = "EDFD1FE9-67C2-43D2-81E5-EF1682ABC3BD";
paths = (
{
closed = 1;
nodes = (
"81 648 OFFCURVE",
"30 590 OFFCURVE",
"30 487 CURVE SMOOTH",
"30 389 OFFCURVE",
"78 334 OFFCURVE",
"165 334 CURVE SMOOTH",
"258 334 OFFCURVE",
"309 392 OFFCURVE",
"309 496 CURVE SMOOTH",
"309 593 OFFCURVE",
"260 648 OFFCURVE",
"174 648 CURVE SMOOTH"
);
},
{
closed = 1;
nodes = (
"221 602 OFFCURVE",
"249 566 OFFCURVE",
"249 489 CURVE SMOOTH",
"249 414 OFFCURVE",
"221 379 OFFCURVE",
"169 379 CURVE SMOOTH",
"117 379 OFFCURVE",
"90 415 OFFCURVE",
"90 493 CURVE SMOOTH",
"90 567 OFFCURVE",
"118 602 OFFCURVE",
"170 602 CURVE SMOOTH"
);
}
);
width = 339;
}
);
},
{
color = 1;
glyphname = p.sups;
lastChange = "2016-10-28 13:22:51 +0000";
layers = (
{
layerId = "EDFD1FE9-67C2-43D2-81E5-EF1682ABC3BD";
paths = (
{
closed = 1;
nodes = (
"175 642 OFFCURVE",
"144 625 OFFCURVE",
"121 599 CURVE",
"105 599 LINE",
"110 552 LINE",
"132 580 OFFCURVE",
"159 594 OFFCURVE",
"188 594 CURVE SMOOTH",
"239 594 OFFCURVE",
"265 558 OFFCURVE",
"265 492 CURVE SMOOTH",
"265 414 OFFCURVE",
"230 377 OFFCURVE",
"170 377 CURVE SMOOTH",
"143 377 OFFCURVE",
"104 389 OFFCURVE",
"70 412 CURVE",
"68 356 LINE",
"105 341 OFFCURVE",
"139 334 OFFCURVE",
"173 334 CURVE SMOOTH",
"268 334 OFFCURVE",
"325 393 OFFCURVE",
"325 499 CURVE SMOOTH",
"325 592 OFFCURVE",
"282 646 OFFCURVE",
"206 646 CURVE SMOOTH"
);
},
{
closed = 1;
nodes = (
"57 638 LINE",
"59 467 LINE",
"58 219 LINE",
"120 219 LINE",
"118 473 LINE",
"118 644 LINE"
);
},
{
closed = 1;
nodes = (
"118 352 LINE",
"118 603 LINE"
);
}
);
width = 363;
}
);
leftMetricsKey = n.sups;
rightMetricsKey = n.sups;
},
{
color = 1;
glyphname = q.sups;
lastChange = "2016-10-28 13:22:51 +0000";
layers = (
{
layerId = "EDFD1FE9-67C2-43D2-81E5-EF1682ABC3BD";
paths = (
{
closed = 1;
nodes = (
"235 641 OFFCURVE",
"208 647 OFFCURVE",
"180 647 CURVE SMOOTH",
"89 647 OFFCURVE",
"30 591 OFFCURVE",
"30 487 CURVE SMOOTH",
"30 392 OFFCURVE",
"79 335 OFFCURVE",
"156 335 CURVE SMOOTH",
"187 339 OFFCURVE",
"211 355 OFFCURVE",
"234 379 CURVE",
"237 379 LINE",
"237 367 LINE",
"234 219 LINE",
"297 219 LINE",
"295 466 LINE",
"297 643 LINE",
"292 647 LINE",
"260 635 LINE"
);
},
{
closed = 1;
nodes = (
"198 602 OFFCURVE",
"217 600 OFFCURVE",
"237 593 CURVE",
"237 422 LINE",
"217 398 OFFCURVE",
"194 385 OFFCURVE",
"166 385 CURVE SMOOTH",
"119 385 OFFCURVE",
"90 421 OFFCURVE",
"90 493 CURVE SMOOTH",
"90 567 OFFCURVE",
"122 602 OFFCURVE",
"181 602 CURVE SMOOTH"
);
}
);
width = 355;
}
);
leftMetricsKey = o.sups;
rightMetricsKey = i.sups;
},
{
color = 0;
glyphname = r.sups;
lastChange = "2016-10-28 13:22:51 +0000";
layers = (
{
anchors = (
{
name = bottom;
position = "{100, 0}";
},
{
name = top;
position = "{151, 303}";
}
);
layerId = "EDFD1FE9-67C2-43D2-81E5-EF1682ABC3BD";
paths = (
{
closed = 1;
nodes = (
"58 638 LINE",
"59 467 LINE",
"57 340 LINE",
"122 340 LINE",
"119 473 LINE",
"119 644 LINE"
);
},
{
closed = 1;
nodes = (
"174 643 OFFCURVE",
"147 621 OFFCURVE",
"123 578 CURVE",
"112 578 LINE",
"112 519 LINE",
"142 565 OFFCURVE",
"167 586 OFFCURVE",
"198 586 CURVE SMOOTH",
"204 586 OFFCURVE",
"212 585 OFFCURVE",
"219 583 CURVE",
"226 585 LINE",
"226 642 LINE",
"221 643 OFFCURVE",
"215 643 OFFCURVE",
"210 643 CURVE SMOOTH"
);
}
);
width = 228;
}
);
leftMetricsKey = n.sups;
},
{
color = 1;
glyphname = s.sups;
lastChange = "2016-10-28 13:22:51 +0000";
layers = (
{
anchors = (
{
name = bottom;
position = "{133, 0}";
},
{
name = top;
position = "{139, 303}";
}
);
layerId = "EDFD1FE9-67C2-43D2-81E5-EF1682ABC3BD";
paths = (
{
closed = 1;
nodes = (
"74 647 OFFCURVE",
"31 609 OFFCURVE",
"31 556 CURVE SMOOTH",
"31 465 OFFCURVE",
"177 475 OFFCURVE",
"177 418 CURVE SMOOTH",
"177 396 OFFCURVE",
"157 376 OFFCURVE",
"120 376 CURVE SMOOTH",
"95 376 OFFCURVE",
"62 387 OFFCURVE",
"36 408 CURVE",
"29 403 LINE",
"21 355 LINE",
"51 341 OFFCURVE",
"86 334 OFFCURVE",
"114 334 CURVE SMOOTH",
"191 334 OFFCURVE",
"231 380 OFFCURVE",
"231 427 CURVE SMOOTH",
"231 519 OFFCURVE",
"85 509 OFFCURVE",
"85 564 CURVE SMOOTH",
"85 587 OFFCURVE",
"105 604 OFFCURVE",
"137 604 CURVE SMOOTH",
"153 604 OFFCURVE",
"179 598 OFFCURVE",
"204 584 CURVE",
"213 587 LINE",
"222 633 LINE",
"196 642 OFFCURVE",
"169 647 OFFCURVE",
"144 647 CURVE SMOOTH"
);
}
);
width = 261;
}
);
},
{
color = 1;
glyphname = t.sups;
lastChange = "2016-10-28 13:22:51 +0000";
layers = (
{
anchors = (
{
name = bottom;
position = "{136, 0}";
},
{
name = center;
position = "{121, 152}";
}
);
layerId = "EDFD1FE9-67C2-43D2-81E5-EF1682ABC3BD";
paths = (
{
closed = 1;
nodes = (
"59 712 LINE",
"59 488 LINE",
"58 417 LINE SMOOTH",
"57 367 OFFCURVE",
"88 336 OFFCURVE",
"143 336 CURVE SMOOTH",
"162 338 OFFCURVE",
"184 346 OFFCURVE",
"204 356 CURVE",
"209 393 LINE",
"204 399 LINE",
"189 391 OFFCURVE",
"174 387 OFFCURVE",
"161 387 CURVE SMOOTH",
"132 387 OFFCURVE",
"118 405 OFFCURVE",
"118 440 CURVE SMOOTH",
"122 721 LINE",
"118 725 LINE"
);
},
{
closed = 1;
nodes = (
"18 641 LINE",
"14 605 LINE",
"18 601 LINE",
"207 601 LINE",
"211 637 LINE",
"208 641 LINE"
);
}
);
width = 213;
}
);
},
{
color = 1;
glyphname = u.sups;
lastChange = "2016-10-28 13:22:51 +0000";
layers = (
{
anchors = (
{
name = ogonek;
position = "{337, 6}";
},
{
name = top;
position = "{193, 303}";
}
);
layerId = "EDFD1FE9-67C2-43D2-81E5-EF1682ABC3BD";
paths = (
{
closed = 1;
nodes = (
"241 638 LINE",
"241 427 LINE",
"216 401 OFFCURVE",
"191 389 OFFCURVE",
"165 389 CURVE SMOOTH",
"132 389 OFFCURVE",
"114 408 OFFCURVE",
"114 448 CURVE SMOOTH",
"114 644 LINE",
"54 638 LINE",
"55 488 LINE",
"54 425 LINE SMOOTH",
"54 369 OFFCURVE",
"87 337 OFFCURVE",
"145 337 CURVE SMOOTH",
"179 341 OFFCURVE",
"211 359 OFFCURVE",
"239 388 CURVE",
"243 388 LINE",
"250 350 OFFCURVE",
"265 336 OFFCURVE",
"294 336 CURVE SMOOTH",
"310 336 OFFCURVE",
"325 341 OFFCURVE",
"337 349 CURVE",
"344 385 LINE",
"338 389 LINE",
"331 385 OFFCURVE",
"324 383 OFFCURVE",
"317 383 CURVE SMOOTH",
"305 383 OFFCURVE",
"299 392 OFFCURVE",
"299 413 CURVE SMOOTH",
"302 644 LINE"
);
}
);
width = 354;
}
);
},
{
color = 1;
glyphname = v.sups;
lastChange = "2016-10-28 13:22:51 +0000";
layers = (
{
layerId = "EDFD1FE9-67C2-43D2-81E5-EF1682ABC3BD";
paths = (
{
closed = 1;
nodes = (
"10 641 LINE",
"104 340 LINE",
"174 340 LINE",
"285 642 LINE",
"227 642 LINE",
"217 597 LINE",
"144 403 LINE",
"140 403 LINE",
"79 600 LINE",
"71 645 LINE"
);
}
);
width = 282;
}
);
},
{
color = 1;
glyphname = w.sups;
lastChange = "2016-10-28 13:22:51 +0000";
layers = (
{
anchors = (
{
name = top;
position = "{242, 303}";
}
);
layerId = "EDFD1FE9-67C2-43D2-81E5-EF1682ABC3BD";
paths = (
{
closed = 1;
nodes = (
"10 641 LINE",
"95 340 LINE",
"159 340 LINE",
"228 559 LINE",
"233 559 LINE",
"293 340 LINE",
"355 340 LINE",
"456 642 LINE",
"400 642 LINE",
"389 598 LINE",
"330 409 LINE",
"325 409 LINE",
"274 602 LINE",
"267 642 LINE",
"203 642 LINE",
"193 598 LINE",
"132 408 LINE",
"128 408 LINE",
"77 602 LINE",
"69 645 LINE"
);
}
);
width = 453;
}
);
},
{
color = 1;
glyphname = x.sups;
lastChange = "2016-10-28 13:22:51 +0000";
layers = (
{
layerId = "EDFD1FE9-67C2-43D2-81E5-EF1682ABC3BD";
paths = (
{
closed = 1;
nodes = (
"13 640 LINE",
"108 493 LINE",
"9 340 LINE",
"68 340 LINE",
"83 367 LINE",
"144 457 LINE",
"202 371 LINE",
"218 336 LINE",
"287 343 LINE",
"187 494 LINE",
"284 642 LINE",
"226 642 LINE",
"210 614 LINE",
"153 531 LINE",
"97 613 LINE",
"82 644 LINE"
);
}
);
width = 299;
}
);
},
{
color = 1;
glyphname = y.sups;
lastChange = "2016-10-28 13:22:51 +0000";
layers = (
{
anchors = (
{
name = top;
position = "{147, 303}";
}
);
layerId = "EDFD1FE9-67C2-43D2-81E5-EF1682ABC3BD";
paths = (
{
closed = 1;
nodes = (
"-10 641 LINE",
"104 340 LINE",
"72 288 OFFCURVE",
"39 271 OFFCURVE",
"-20 260 CURVE",
"-22 253 LINE",
"-14 239 OFFCURVE",
"-6 225 OFFCURVE",
"6 214 CURVE",
"12 214 LINE",
"98 238 OFFCURVE",
"133 267 OFFCURVE",
"165 354 CURVE SMOOTH",
"274 642 LINE",
"218 642 LINE",
"207 597 LINE",
"136 408 LINE",
"131 408 LINE",
"62 602 LINE",
"52 645 LINE"
);
}
);
width = 274;
}
);
},
{
color = 1;
glyphname = z.sups;
lastChange = "2016-10-28 13:22:51 +0000";
layers = (
{
anchors = (
{
name = top;
position = "{151, 303}";
}
);
layerId = "EDFD1FE9-67C2-43D2-81E5-EF1682ABC3BD";
paths = (
{
closed = 1;
nodes = (
"25 604 LINE",
"29 599 LINE",
"74 602 LINE",
"188 602 LINE",
"21 377 LINE",
"21 338 LINE",
"56 340 LINE",
"193 340 LINE",
"257 339 LINE",
"262 379 LINE",
"258 384 LINE",
"210 381 LINE",
"91 381 LINE",
"257 604 LINE",
"257 643 LINE",
"228 642 LINE",
"84 642 LINE",
"30 644 LINE"
);
}
);
width = 283;
}
);
},
{
color = 1;
glyphname = f.t;
lastChange = "2016-10-28 13:22:51 +0000";
layers = (
{
anchors = (
{
name = bottom;
position = "{153, 0}";
},
{
name = top;
position = "{261, 749}";
}
);
layerId = "EDFD1FE9-67C2-43D2-81E5-EF1682ABC3BD";
paths = (
{
closed = 1;
nodes = (
"165 691 OFFCURVE",
"107 629 OFFCURVE",
"107 516 CURVE SMOOTH",
"108 190 LINE",
"105 0 LINE",
"188 0 LINE",
"185 199 LINE",
"187 530 LINE SMOOTH",
"188 595 OFFCURVE",
"213 630 OFFCURVE",
"262 630 CURVE SMOOTH",
"284 630 OFFCURVE",
"308 627 OFFCURVE",
"331 617 CURVE",
"339 620 LINE",
"347 681 LINE",
"320 688 OFFCURVE",
"293 691 OFFCURVE",
"268 691 CURVE SMOOTH"
);
},
{
closed = 1;
nodes = (
"40 457 LINE",
"35 410 LINE",
"39 404 LINE",
"431 404 LINE",
"436 451 LINE",
"432 457 LINE"
);
}
);
width = 313;
}
);
leftKerningGroup = f;
},
{
color = 1;
glyphname = f_j;
lastChange = "2016-10-28 13:22:51 +0000";
layers = (
{
layerId = "EDFD1FE9-67C2-43D2-81E5-EF1682ABC3BD";
paths = (
{
closed = 1;
nodes = (
"167 705 OFFCURVE",
"107 647 OFFCURVE",
"107 518 CURVE SMOOTH",
"107 457 LINE",
"40 457 LINE",
"35 410 LINE",
"39 404 LINE",
"108 404 LINE",
"108 190 LINE",
"105 0 LINE",
"188 0 LINE",
"185 199 LINE",
"186 404 LINE",
"405 404 LINE",
"406 194 LINE",
"406 16 LINE",
"406 -64 OFFCURVE",
"386 -105 OFFCURVE",
"330 -146 CURVE",
"330 -156 LINE",
"360 -194 LINE",
"451 -141 OFFCURVE",
"486 -85 OFFCURVE",
"486 20 CURVE",
"483 201 LINE",
"487 459 LINE",
"481 463 LINE",
"433 457 LINE",
"187 457 LINE",
"187 534 LINE SMOOTH",
"188 610 OFFCURVE",
"219 644 OFFCURVE",
"291 644 CURVE SMOOTH",
"329 644 OFFCURVE",
"364 635 OFFCURVE",
"407 616 CURVE",
"417 619 LINE",
"429 685 LINE",
"381 699 OFFCURVE",
"343 705 OFFCURVE",
"299 705 CURVE SMOOTH"
);
}
);
width = 562;
}
);
leftKerningGroup = f;
leftMetricsKey = f;
rightKerningGroup = dotlessj;
rightMetricsKey = j;
},
{
color = 1;
glyphname = fi;
lastChange = "2016-10-28 13:22:51 +0000";
layers = (
{
layerId = "EDFD1FE9-67C2-43D2-81E5-EF1682ABC3BD";
paths = (
{
closed = 1;
nodes = (
"168 705 OFFCURVE",
"107 647 OFFCURVE",
"107 518 CURVE SMOOTH",
"107 457 LINE",
"40 457 LINE",
"35 410 LINE",
"39 404 LINE",
"108 404 LINE",
"108 186 LINE",
"105 0 LINE",
"188 0 LINE",
"185 193 LINE",
"186 404 LINE",
"405 404 LINE",
"406 186 LINE",
"403 0 LINE",
"486 0 LINE",
"483 193 LINE",
"487 459 LINE",
"481 464 LINE",
"435 457 LINE",
"187 457 LINE",
"187 534 LINE SMOOTH",
"188 610 OFFCURVE",
"219 644 OFFCURVE",
"291 644 CURVE SMOOTH",
"329 644 OFFCURVE",
"364 635 OFFCURVE",
"407 616 CURVE",
"417 619 LINE",
"429 685 LINE",
"381 699 OFFCURVE",
"343 705 OFFCURVE",
"299 705 CURVE SMOOTH"
);
}
);
width = 558;
}
);
leftKerningGroup = f;
leftMetricsKey = f;
rightKerningGroup = i;
rightMetricsKey = i;
unicode = FB01;
},
{
color = 1;
glyphname = a.sc;
lastChange = "2016-10-28 13:22:51 +0000";
layers = (
{
anchors = (
{
name = ogonek;
position = "{493, 8}";
},
{
name = top;
position = "{262, 499}";
}
);
layerId = "EDFD1FE9-67C2-43D2-81E5-EF1682ABC3BD";
paths = (
{
closed = 1;
nodes = (
"214 499 LINE",
"24 0 LINE SMOOTH",
"104 0 LINE",
"118 60 LINE",
"256 421 LINE",
"262 421 LINE",
"387 56 LINE",
"399 0 LINE",
"482 0 LINE",
"308 499 LINE"
);
},
{
closed = 1;
nodes = (
"253 189 LINE",
"137 190 LINE",
"135 128 LINE",
"247 129 LINE",
"368 128 LINE",
"365 190 LINE"
);
}
);
width = 514;
}
);
leftKerningGroup = A;
rightKerningGroup = A;
},
{
color = 0;
glyphname = aogonek.sc;
lastChange = "2016-10-28 13:22:51 +0000";
layers = (
{
components = (
{
name = a.sc;
}
);
layerId = "EDFD1FE9-67C2-43D2-81E5-EF1682ABC3BD";
paths = (
{
closed = 1;
nodes = (
"414 0 LINE",
"371 -65 OFFCURVE",
"360 -94 OFFCURVE",
"360 -123 CURVE SMOOTH",
"360 -168 OFFCURVE",
"392 -196 OFFCURVE",
"435 -196 CURVE SMOOTH",
"469 -196 OFFCURVE",
"497 -177 OFFCURVE",
"526 -143 CURVE",
"515 -107 LINE",
"510 -107 LINE",
"490 -133 OFFCURVE",
"468 -148 OFFCURVE",
"446 -148 CURVE SMOOTH",
"424 -148 OFFCURVE",
"407 -135 OFFCURVE",
"407 -111 CURVE SMOOTH",
"407 -90 OFFCURVE",
"416 -66 OFFCURVE",
"460 0 CURVE"
);
}
);
width = 514;
}
);
leftKerningGroup = A;
rightKerningGroup = A;
},
{
color = 1;
glyphname = ae.sc;
lastChange = "2016-10-28 13:22:51 +0000";
layers = (
{
anchors = (
{
name = top;
position = "{412, 498}";
}
);
layerId = "EDFD1FE9-67C2-43D2-81E5-EF1682ABC3BD";
paths = (
{
closed = 1;
nodes = (
"278 499 LINE",
"0 0 LINE",
"77 0 LINE",
"98 58 LINE",
"307 425 LINE",
"313 425 LINE",
"371 54 LINE",
"375 0 LINE",
"670 0 LINE",
"676 54 LINE",
"671 61 LINE",
"534 59 LINE",
"442 59 LINE",
"384 440 LINE",
"462 440 LINE",
"596 437 LINE",
"603 491 LINE",
"597 499 LINE"
);
},
{
closed = 1;
nodes = (
"397 260 LINE",
"138 204 LINE",
"117 140 LINE",
"402 204 LINE",
"597 242 LINE",
"593 294 LINE",
"587 299 LINE"
);
}
);
width = 701;
}
);
leftKerningGroup = A;
rightKerningGroup = E;
},
{
color = 1;
glyphname = b.sc;
lastChange = "2016-10-28 13:22:51 +0000";
layers = (
{
layerId = "EDFD1FE9-67C2-43D2-81E5-EF1682ABC3BD";
paths = (
{
closed = 1;
nodes = (
"88 499 LINE",
"130 442 LINE",
"166 443 OFFCURVE",
"193 443 OFFCURVE",
"221 443 CURVE SMOOTH",
"292 443 OFFCURVE",
"326 417 OFFCURVE",
"326 368 CURVE SMOOTH",
"326 319 OFFCURVE",
"301 289 OFFCURVE",
"253 279 CURVE",
"118 283 LINE",
"118 224 LINE",
"263 226 LINE",
"325 217 OFFCURVE",
"357 191 OFFCURVE",
"357 144 CURVE SMOOTH",
"357 86 OFFCURVE",
"310 52 OFFCURVE",
"227 52 CURVE SMOOTH",
"201 52 OFFCURVE",
"162 55 OFFCURVE",
"134 59 CURVE",
"88 0 LINE",
"129 -2 OFFCURVE",
"184 -3 OFFCURVE",
"216 -3 CURVE SMOOTH",
"361 -3 OFFCURVE",
"440 44 OFFCURVE",
"440 141 CURVE SMOOTH",
"440 207 OFFCURVE",
"400 245 OFFCURVE",
"329 259 CURVE",
"379 280 OFFCURVE",
"409 320 OFFCURVE",
"409 378 CURVE SMOOTH",
"409 457 OFFCURVE",
"349 500 OFFCURVE",
"249 500 CURVE"
);
},
{
closed = 1;
nodes = (
"88 499 LINE",
"91 150 LINE",
"88 0 LINE",
"167 0 LINE",
"164 157 LINE",
"168 499 LINE"
);
}
);
width = 485;
}
);
leftKerningGroup = H;
rightKerningGroup = B;
},
{
color = 1;
glyphname = c.sc;
lastChange = "2016-10-28 13:22:51 +0000";
layers = (
{
anchors = (
{
name = bottom;
position = "{266, 0}";
},
{
name = top;
position = "{265, 499}";
}
);
layerId = "EDFD1FE9-67C2-43D2-81E5-EF1682ABC3BD";
paths = (
{
closed = 1;
nodes = (
"131 504 OFFCURVE",
"44 411 OFFCURVE",
"44 247 CURVE SMOOTH",
"44 84 OFFCURVE",
"124 -6 OFFCURVE",
"278 -6 CURVE SMOOTH",
"324 -6 OFFCURVE",
"373 6 OFFCURVE",
"416 29 CURVE",
"423 93 LINE",
"413 97 LINE",
"376 75 OFFCURVE",
"326 61 OFFCURVE",
"283 61 CURVE SMOOTH",
"181 61 OFFCURVE",
"128 127 OFFCURVE",
"128 254 CURVE SMOOTH",
"128 377 OFFCURVE",
"181 438 OFFCURVE",
"285 438 CURVE SMOOTH",
"326 438 OFFCURVE",
"371 425 OFFCURVE",
"405 403 CURVE",
"413 406 LINE",
"428 470 LINE",
"388 492 OFFCURVE",
"338 504 OFFCURVE",
"287 504 CURVE SMOOTH"
);
}
);
width = 460;
}
);
leftKerningGroup = O;
rightKerningGroup = C;
},
{
color = 1;
glyphname = d.sc;
lastChange = "2016-10-28 13:22:51 +0000";
layers = (
{
anchors = (
{
name = center;
position = "{269, 250}";
},
{
name = top;
position = "{267, 499}";
}
);
layerId = "EDFD1FE9-67C2-43D2-81E5-EF1682ABC3BD";
paths = (
{
closed = 1;
nodes = (
"88 499 LINE",
"157 433 LINE",
"182 436 OFFCURVE",
"261 438 OFFCURVE",
"280 438 CURVE SMOOTH",
"386 438 OFFCURVE",
"440 378 OFFCURVE",
"440 250 CURVE SMOOTH",
"440 120 OFFCURVE",
"380 56 OFFCURVE",
"278 56 CURVE SMOOTH",
"257 56 OFFCURVE",
"181 60 OFFCURVE",
"155 63 CURVE",
"88 0 LINE",
"137 -3 OFFCURVE",
"230 -5 OFFCURVE",
"265 -5 CURVE",
"430 -5 OFFCURVE",
"523 92 OFFCURVE",
"523 267 CURVE SMOOTH",
"523 418 OFFCURVE",
"439 503 OFFCURVE",
"287 503 CURVE"
);
},
{
closed = 1;
nodes = (
"88 499 LINE",
"91 150 LINE",
"88 0 LINE",
"168 0 LINE",
"165 157 LINE",
"169 499 LINE"
);
}
);
width = 566;
}
);
leftKerningGroup = H;
rightKerningGroup = O;
},
{
color = 0;
glyphname = eth.sc;
lastChange = "2016-10-28 13:22:51 +0000";
layers = (
{
components = (
{
name = d.sc;
transform = "{1, 0, 0, 1, 17, 0}";
}
);
layerId = "EDFD1FE9-67C2-43D2-81E5-EF1682ABC3BD";
paths = (
{
closed = 1;
nodes = (
"20 274 LINE",
"17 227 LINE",
"21 220 LINE",
"309 220 LINE",
"313 267 LINE",
"308 274 LINE"
);
}
);
width = 583;
}
);
leftKerningGroup = H;
rightKerningGroup = O;
rightMetricsKey = d.sc;
},
{
color = 1;
glyphname = e.sc;
lastChange = "2016-10-28 13:22:51 +0000";
layers = (
{
anchors = (
{
name = bottom;
position = "{246, 0}";
},
{
name = ogonek;
position = "{403, 8}";
},
{
name = top;
position = "{243, 499}";
}
);
layerId = "EDFD1FE9-67C2-43D2-81E5-EF1682ABC3BD";
paths = (
{
closed = 1;
nodes = (
"88 499 LINE",
"91 150 LINE",
"88 0 LINE",
"168 0 LINE",
"165 157 LINE",
"169 499 LINE"
);
},
{
closed = 1;
nodes = (
"263 63 LINE",
"142 63 LINE",
"140 6 LINE",
"142 0 LINE",
"396 0 LINE",
"403 59 LINE",
"397 65 LINE"
);
},
{
closed = 1;
nodes = (
"264 287 LINE",
"145 287 LINE",
"144 229 LINE",
"145 223 LINE",
"258 223 LINE",
"351 222 LINE",
"357 281 LINE",
"352 288 LINE"
);
},
{
closed = 1;
nodes = (
"142 499 LINE",
"140 441 LINE",
"142 436 LINE",
"271 436 LINE",
"397 433 LINE",
"403 492 LINE",
"398 499 LINE"
);
}
);
width = 437;
}
);
leftKerningGroup = H;
rightKerningGroup = E;
},
{
color = 1;
glyphname = f.sc;
lastChange = "2016-10-28 13:22:51 +0000";
layers = (
{
layerId = "EDFD1FE9-67C2-43D2-81E5-EF1682ABC3BD";
paths = (
{
closed = 1;
nodes = (
"83 499 LINE",
"86 150 LINE",
"83 0 LINE",
"163 0 LINE",
"160 157 LINE",
"164 499 LINE"
);
},
{
closed = 1;
nodes = (
"246 273 LINE",
"140 273 LINE",
"140 210 LINE",
"239 210 LINE",
"334 209 LINE",
"340 268 LINE",
"334 275 LINE"
);
},
{
closed = 1;
nodes = (
"137 499 LINE",
"135 441 LINE",
"137 436 LINE",
"252 436 LINE",
"375 433 LINE",
"381 492 LINE",
"376 499 LINE"
);
}
);
width = 389;
}
);
leftKerningGroup = H;
rightKerningGroup = F;
},
{
color = 1;
glyphname = g.sc;
lastChange = "2016-10-28 13:22:51 +0000";
layers = (
{
anchors = (
{
name = bottom;
position = "{267, 0}";
},
{
name = top;
position = "{279, 499}";
}
);
layerId = "EDFD1FE9-67C2-43D2-81E5-EF1682ABC3BD";
paths = (
{
closed = 1;
nodes = (
"140 504 OFFCURVE",
"44 412 OFFCURVE",
"44 242 CURVE SMOOTH",
"44 84 OFFCURVE",
"125 -6 OFFCURVE",
"279 -6 CURVE SMOOTH",
"339 -6 OFFCURVE",
"389 3 OFFCURVE",
"459 24 CURVE",
"459 141 LINE",
"460 206 LINE",
"386 201 LINE",
"387 129 LINE",
"387 70 LINE",
"344 59 OFFCURVE",
"320 56 OFFCURVE",
"285 56 CURVE SMOOTH",
"178 56 OFFCURVE",
"127 114 OFFCURVE",
"127 245 CURVE SMOOTH",
"127 380 OFFCURVE",
"184 439 OFFCURVE",
"299 439 CURVE SMOOTH",
"345 439 OFFCURVE",
"388 425 OFFCURVE",
"437 400 CURVE",
"445 400 LINE",
"463 471 LINE",
"418 493 OFFCURVE",
"364 504 OFFCURVE",
"312 504 CURVE SMOOTH"
);
}
);
width = 525;
}
);
leftKerningGroup = O;
rightKerningGroup = G;
},
{
color = 1;
glyphname = h.sc;
lastChange = "2016-10-28 13:22:51 +0000";
layers = (
{
anchors = (
{
name = center;
position = "{280, 250}";
},
{
name = top;
position = "{300, 499}";
}
);
layerId = "EDFD1FE9-67C2-43D2-81E5-EF1682ABC3BD";
paths = (
{
closed = 1;
nodes = (
"429 499 LINE",
"432 150 LINE",
"429 0 LINE",
"509 0 LINE",
"506 157 LINE",
"510 499 LINE"
);
},
{
closed = 1;
nodes = (
"88 499 LINE",
"91 150 LINE",
"88 0 LINE",
"168 0 LINE",
"165 157 LINE",
"169 499 LINE"
);
},
{
closed = 1;
nodes = (
"156 217 LINE",
"293 218 LINE",
"440 218 LINE",
"440 284 LINE",
"299 283 LINE",
"156 284 LINE"
);
}
);
width = 597;
}
);
leftKerningGroup = H;
rightKerningGroup = H;
},
{
color = 0;
glyphname = hbar.sc;
lastChange = "2016-10-28 13:22:51 +0000";
layers = (
{
components = (
{
name = h.sc;
transform = "{1, 0, 0, 1, 9, 0}";
}
);
layerId = "EDFD1FE9-67C2-43D2-81E5-EF1682ABC3BD";
paths = (
{
closed = 1;
nodes = (
"47 410 LINE",
"44 370 LINE",
"49 365 LINE",
"577 365 LINE",
"580 405 LINE",
"575 410 LINE"
);
}
);
width = 622;
}
);
leftKerningGroup = H;
rightKerningGroup = H;
},
{
color = 1;
glyphname = i.sc;
lastChange = "2016-10-28 13:22:51 +0000";
layers = (
{
anchors = (
{
name = ogonek;
position = "{196, 8}";
},
{
name = top;
position = "{132, 499}";
}
);
layerId = "EDFD1FE9-67C2-43D2-81E5-EF1682ABC3BD";
paths = (
{
closed = 1;
nodes = (
"88 499 LINE",
"91 150 LINE",
"88 0 LINE",
"168 0 LINE",
"165 157 LINE",
"169 499 LINE"
);
}
);
width = 261;
}
);
leftKerningGroup = H;
rightKerningGroup = H;
},
{
color = 0;
glyphname = iogonek.sc;
lastChange = "2016-10-28 13:22:51 +0000";
layers = (
{
components = (
{
name = i.sc;
}
);
layerId = "EDFD1FE9-67C2-43D2-81E5-EF1682ABC3BD";
paths = (
{
closed = 1;
nodes = (
"88 0 LINE",
"47 -62 OFFCURVE",
"26 -100 OFFCURVE",
"26 -132 CURVE SMOOTH",
"26 -168 OFFCURVE",
"52 -197 OFFCURVE",
"95 -197 CURVE SMOOTH",
"125 -197 OFFCURVE",
"151 -182 OFFCURVE",
"176 -149 CURVE",
"163 -113 LINE",
"158 -113 LINE",
"144 -136 OFFCURVE",
"125 -149 OFFCURVE",
"105 -149 CURVE SMOOTH",
"84 -149 OFFCURVE",
"74 -136 OFFCURVE",
"74 -120 CURVE SMOOTH",
"74 -99 OFFCURVE",
"92 -62 OFFCURVE",
"137 4 CURVE"
);
}
);
width = 261;
}
);
leftKerningGroup = H;
rightKerningGroup = H;
},
{
color = 1;
glyphname = j.sc;
lastChange = "2016-10-28 13:22:51 +0000";
layers = (
{
layerId = "EDFD1FE9-67C2-43D2-81E5-EF1682ABC3BD";
paths = (
{
closed = 1;
nodes = (
"120 499 LINE",
"123 156 LINE",
"123 92 LINE SMOOTH",
"123 35 OFFCURVE",
"101 0 OFFCURVE",
"41 -35 CURVE",
"41 -44 LINE",
"68 -84 LINE",
"165 -37 OFFCURVE",
"198 10 OFFCURVE",
"198 93 CURVE SMOOTH",
"197 165 LINE",
"201 499 LINE"
);
},
{
closed = 1;
nodes = (
"28 499 LINE",
"23 443 LINE",
"28 437 LINE",
"133 438 LINE",
"133 499 LINE"
);
}
);
width = 292;
}
);
leftKerningGroup = J;
rightKerningGroup = H;
},
{
color = 0;
glyphname = k.sc;
lastChange = "2016-10-28 13:22:51 +0000";
layers = (
{
anchors = (
{
name = bottom;
position = "{239, 0}";
},
{
name = top;
position = "{229, 499}";
}
);
layerId = "EDFD1FE9-67C2-43D2-81E5-EF1682ABC3BD";
paths = (
{
closed = 1;
nodes = (
"375 499 LINE",
"343 454 LINE",
"174 266 LINE",
"174 260 LINE",
"241 170 OFFCURVE",
"316 82 OFFCURVE",
"391 -2 CURVE",
"401 -7 LINE",
"427 -4 OFFCURVE",
"453 1 OFFCURVE",
"478 8 CURVE",
"479 17 LINE",
"402 95 OFFCURVE",
"325 180 OFFCURVE",
"257 265 CURVE",
"464 499 LINE"
);
},
{
closed = 1;
nodes = (
"88 499 LINE",
"91 150 LINE",
"88 0 LINE",
"168 0 LINE",
"165 157 LINE",
"169 499 LINE"
);
}
);
width = 493;
}
);
leftKerningGroup = H;
rightKerningGroup = K;
},
{
color = 1;
glyphname = l.sc;
lastChange = "2016-10-28 13:22:51 +0000";
layers = (
{
anchors = (
{
name = bottom;
position = "{192, 0}";
},
{
name = top;
position = "{169, 499}";
}
);
layerId = "EDFD1FE9-67C2-43D2-81E5-EF1682ABC3BD";
paths = (
{
closed = 1;
nodes = (
"86 499 LINE",
"89 150 LINE",
"86 0 LINE",
"166 0 LINE",
"163 157 LINE",
"167 499 LINE"
);
},
{
closed = 1;
nodes = (
"135 67 LINE",
"132 6 LINE",
"135 0 LINE",
"354 0 LINE",
"360 60 LINE",
"355 67 LINE"
);
}
);
width = 378;
}
);
leftKerningGroup = H;
rightKerningGroup = L;
},
{
color = 0;
glyphname = lcaron.sc;
lastChange = "2016-10-28 13:22:51 +0000";
layers = (
{
components = (
{
name = l.sc;
},
{
name = caron.alt;
transform = "{1, 0, 0, 1, 138, -214}";
}
);
layerId = "EDFD1FE9-67C2-43D2-81E5-EF1682ABC3BD";
paths = (
{
closed = 0;
nodes = (
"243 204 LINE"
);
}
);
width = 407;
}
);
leftKerningGroup = H;
leftMetricsKey = l.sc;
rightKerningGroup = L;
},
{
color = 0;
glyphname = ldot.sc;
lastChange = "2016-10-28 13:22:51 +0000";
layers = (
{
components = (
{
name = l.sc;
},
{
name = periodcentered;
transform = "{1, 0, 0, 1, 176, 45}";
}
);
layerId = "EDFD1FE9-67C2-43D2-81E5-EF1682ABC3BD";
paths = (
{
closed = 0;
nodes = (
"194 -89 LINE"
);
}
);
width = 406;
}
);
leftKerningGroup = H;
},
{
color = 0;
glyphname = lslash.sc;
lastChange = "2016-10-28 13:22:51 +0000";
layers = (
{
components = (
{
name = l.sc;
transform = "{1, 0, 0, 1, 16, 0}";
}
);
layerId = "EDFD1FE9-67C2-43D2-81E5-EF1682ABC3BD";
paths = (
{
closed = 1;
nodes = (
"20 242 LINE",
"33 197 LINE",
"42 192 LINE",
"301 314 LINE",
"287 359 LINE",
"279 363 LINE"
);
}
);
width = 398;
}
);
leftKerningGroup = H;
rightKerningGroup = L;
},
{
color = 1;
glyphname = m.sc;
lastChange = "2016-10-28 13:22:51 +0000";
layers = (
{
layerId = "EDFD1FE9-67C2-43D2-81E5-EF1682ABC3BD";
paths = (
{
closed = 1;
nodes = (
"479 499 LINE",
"453 427 LINE",
"343 163 LINE",
"337 163 LINE",
"235 424 LINE",
"209 499 LINE",
"115 499 LINE",
"60 0 LINE",
"130 0 LINE",
"143 159 LINE",
"168 373 LINE",
"174 373 LINE",
"304 55 LINE",
"369 55 LINE",
"506 373 LINE",
"513 373 LINE",
"538 152 LINE",
"548 0 LINE",
"621 0 LINE",
"571 499 LINE"
);
}
);
width = 683;
}
);
leftKerningGroup = M;
rightKerningGroup = M;
},
{
color = 1;
glyphname = n.sc;
lastChange = "2016-10-28 13:22:51 +0000";
layers = (
{
anchors = (
{
name = bottom;
position = "{296, 0}";
},
{
name = top;
position = "{297, 499}";
}
);
layerId = "EDFD1FE9-67C2-43D2-81E5-EF1682ABC3BD";
paths = (
{
closed = 1;
nodes = (
"435 496 LINE",
"437 126 LINE",
"430 126 LINE",
"175 499 LINE",
"89 499 LINE",
"91 147 LINE",
"88 0 LINE",
"162 0 LINE",
"159 167 LINE",
"160 373 LINE",
"166 373 LINE",
"422 0 LINE",
"507 0 LINE",
"505 150 LINE",
"510 501 LINE"
);
}
);
width = 597;
}
);
leftKerningGroup = H;
rightKerningGroup = H;
},
{
color = 1;
glyphname = eng.sc;
lastChange = "2016-10-28 13:22:51 +0000";
layers = (
{
layerId = "EDFD1FE9-67C2-43D2-81E5-EF1682ABC3BD";
paths = (
{
closed = 1;
nodes = (
"435 496 LINE",
"437 134 LINE",
"430 134 LINE",
"175 499 LINE",
"89 499 LINE",
"92 147 LINE",
"88 0 LINE",
"162 0 LINE",
"159 167 LINE",
"159 373 LINE",
"166 373 LINE",
"428 -1 LINE",
"422 -34 OFFCURVE",
"402 -58 OFFCURVE",
"366 -83 CURVE",
"366 -92 LINE",
"393 -126 LINE",
"478 -82 OFFCURVE",
"507 -39 OFFCURVE",
"507 38 CURVE SMOOTH",
"505 150 LINE",
"510 501 LINE"
);
}
);
width = 597;
}
);
leftKerningGroup = H;
rightKerningGroup = H;
},
{
color = 1;
glyphname = o.sc;
lastChange = "2016-10-28 13:22:51 +0000";
layers = (
{
anchors = (
{
name = top;
position = "{280, 499}";
}
);
layerId = "EDFD1FE9-67C2-43D2-81E5-EF1682ABC3BD";
paths = (
{
closed = 1;
nodes = (
"130 505 OFFCURVE",
"44 411 OFFCURVE",
"44 245 CURVE SMOOTH",
"44 84 OFFCURVE",
"126 -7 OFFCURVE",
"271 -7 CURVE SMOOTH",
"426 -7 OFFCURVE",
"513 89 OFFCURVE",
"513 260 CURVE SMOOTH",
"513 416 OFFCURVE",
"432 505 OFFCURVE",
"286 505 CURVE"
);
},
{
closed = 1;
nodes = (
"382 439 OFFCURVE",
"431 380 OFFCURVE",
"431 244 CURVE SMOOTH",
"431 114 OFFCURVE",
"380 55 OFFCURVE",
"277 55 CURVE SMOOTH",
"176 55 OFFCURVE",
"127 115 OFFCURVE",
"127 254 CURVE SMOOTH",
"127 382 OFFCURVE",
"177 439 OFFCURVE",
"279 439 CURVE SMOOTH"
);
}
);
width = 557;
}
);
leftKerningGroup = O;
rightKerningGroup = O;
},
{
color = 1;
glyphname = ohorn.sc;
lastChange = "2016-10-28 13:22:51 +0000";
layers = (
{
anchors = (
{
name = top;
position = "{275, 499}";
}
);
layerId = "EDFD1FE9-67C2-43D2-81E5-EF1682ABC3BD";
paths = (
{
closed = 1;
nodes = (
"455 576 LINE",
"472 560 OFFCURVE",
"481 542 OFFCURVE",
"481 524 CURVE SMOOTH",
"481 495 OFFCURVE",
"456 480 OFFCURVE",
"425 480 CURVE SMOOTH",
"388 480 OFFCURVE",
"357 505 OFFCURVE",
"281 505 CURVE SMOOTH",
"133 505 OFFCURVE",
"44 411 OFFCURVE",
"44 244 CURVE SMOOTH",
"44 85 OFFCURVE",
"125 -7 OFFCURVE",
"273 -7 CURVE SMOOTH",
"426 -7 OFFCURVE",
"513 92 OFFCURVE",
"513 257 CURVE SMOOTH",
"513 338 OFFCURVE",
"492 399 OFFCURVE",
"448 442 CURVE",
"502 446 OFFCURVE",
"544 477 OFFCURVE",
"544 529 CURVE SMOOTH",
"544 569 OFFCURVE",
"519 598 OFFCURVE",
"496 598 CURVE SMOOTH",
"483 598 OFFCURVE",
"469 591 OFFCURVE",
"457 583 CURVE"
);
},
{
closed = 1;
nodes = (
"176 55 OFFCURVE",
"127 115 OFFCURVE",
"127 250 CURVE SMOOTH",
"127 382 OFFCURVE",
"176 439 OFFCURVE",
"278 439 CURVE SMOOTH",
"382 439 OFFCURVE",
"431 382 OFFCURVE",
"431 247 CURVE SMOOTH",
"431 114 OFFCURVE",
"381 55 OFFCURVE",
"279 55 CURVE SMOOTH"
);
}
);
width = 562;
}
);
leftKerningGroup = O;
rightKerningGroup = O;
},
{
color = 0;
glyphname = oogonek.sc;
lastChange = "2016-10-28 13:22:51 +0000";
layers = (
{
components = (
{
name = o.sc;
}
);
layerId = "EDFD1FE9-67C2-43D2-81E5-EF1682ABC3BD";
paths = (
{
closed = 1;
nodes = (
"336 37 LINE",
"276 -49 LINE SMOOTH",
"260 -73 OFFCURVE",
"251 -97 OFFCURVE",
"251 -120 CURVE SMOOTH",
"251 -165 OFFCURVE",
"282 -197 OFFCURVE",
"331 -197 CURVE SMOOTH",
"366 -197 OFFCURVE",
"398 -178 OFFCURVE",
"431 -144 CURVE",
"419 -108 LINE",
"414 -108 LINE",
"392 -134 OFFCURVE",
"365 -149 OFFCURVE",
"341 -149 CURVE SMOOTH",
"314 -149 OFFCURVE",
"299 -132 OFFCURVE",
"299 -108 CURVE SMOOTH",
"299 -93 OFFCURVE",
"304 -77 OFFCURVE",
"317 -58 CURVE SMOOTH",
"385 42 LINE"
);
}
);
width = 557;
}
);
leftKerningGroup = O;
rightKerningGroup = O;
},
{
color = 11;
glyphname = oslash.sc;
lastChange = "2016-10-28 13:22:51 +0000";
layers = (
{
anchors = (
{
name = top;
position = "{261, 500}";
}
);
components = (
{
name = o.sc;
}
);
layerId = "EDFD1FE9-67C2-43D2-81E5-EF1682ABC3BD";
paths = (
{
closed = 1;
nodes = (
"412 570 LINE",
"88 -70 LINE",
"91 -79 LINE",
"134 -99 LINE",
"457 541 LINE",
"452 551 LINE"
);
}
);
width = 557;
}
);
leftKerningGroup = O;
rightKerningGroup = O;
},
{
color = 1;
glyphname = oe.sc;
lastChange = "2016-10-28 13:22:51 +0000";
layers = (
{
anchors = (
{
name = top;
position = "{468, 499}";
}
);
layerId = "EDFD1FE9-67C2-43D2-81E5-EF1682ABC3BD";
paths = (
{
closed = 1;
nodes = (
"140 508 OFFCURVE",
"44 411 OFFCURVE",
"44 245 CURVE SMOOTH",
"44 84 OFFCURVE",
"133.994 -9 OFFCURVE",
"294 -9 CURVE SMOOTH",
"347 -9 OFFCURVE",
"401 1 OFFCURVE",
"451 0 CURVE SMOOTH",
"699 0 LINE",
"705 59 LINE",
"700 65 LINE",
"570 63 LINE",
"469 63 LINE",
"468 154 LINE",
"468 223 LINE",
"557 223 LINE",
"653 222 LINE",
"660 281 LINE",
"654 288 LINE",
"562 287 LINE",
"470 287 LINE",
"471 436 LINE",
"579 436 LINE",
"699 433 LINE",
"706 492 LINE",
"701 499 LINE",
"451 499 LINE SMOOTH",
"404 499 OFFCURVE",
"361 508 OFFCURVE",
"308 508 CURVE SMOOTH"
);
},
{
closed = 1;
nodes = (
"336 443 OFFCURVE",
"369 436 OFFCURVE",
"381 432 CURVE SMOOTH",
"389 429 OFFCURVE",
"391 421 OFFCURVE",
"391 401 CURVE SMOOTH",
"394 91 LINE SMOOTH",
"394 74 OFFCURVE",
"391 67 OFFCURVE",
"376 62 CURVE SMOOTH",
"364 57 OFFCURVE",
"332 52 OFFCURVE",
"301 52 CURVE SMOOTH",
"182 52 OFFCURVE",
"127 119 OFFCURVE",
"127 251 CURVE SMOOTH",
"127 380 OFFCURVE",
"184 443 OFFCURVE",
"301 443 CURVE SMOOTH"
);
}
);
width = 737;
}
);
leftKerningGroup = O;
rightKerningGroup = E;
},
{
color = 1;
glyphname = p.sc;
lastChange = "2016-10-28 13:22:51 +0000";
layers = (
{
layerId = "EDFD1FE9-67C2-43D2-81E5-EF1682ABC3BD";
paths = (
{
closed = 1;
nodes = (
"88 499 LINE",
"132 438 LINE",
"241 442 LINE",
"310 439 OFFCURVE",
"345 406 OFFCURVE",
"345 344 CURVE SMOOTH",
"345 280 OFFCURVE",
"312 240 OFFCURVE",
"250 229 CURVE",
"118 232 LINE",
"118 170 LINE",
"225 170 LINE",
"351 170 OFFCURVE",
"429 238 OFFCURVE",
"429 351 CURVE SMOOTH",
"429 447 OFFCURVE",
"369 500 OFFCURVE",
"263 500 CURVE"
);
},
{
closed = 1;
nodes = (
"88 499 LINE",
"91 150 LINE",
"88 0 LINE",
"168 0 LINE",
"165 157 LINE",
"169 499 LINE"
);
}
);
width = 469;
}
);
leftKerningGroup = H;
rightKerningGroup = P;
},
{
color = 1;
glyphname = thorn.sc;
lastChange = "2016-10-28 13:22:51 +0000";
layers = (
{
layerId = "EDFD1FE9-67C2-43D2-81E5-EF1682ABC3BD";
paths = (
{
closed = 1;
nodes = (
"88 415 LINE",
"133 354 LINE",
"243 358 LINE",
"312 355 OFFCURVE",
"347 324 OFFCURVE",
"347 260 CURVE SMOOTH",
"347 196 OFFCURVE",
"313 159 OFFCURVE",
"251 147 CURVE",
"118 151 LINE",
"118 87 LINE",
"227 88 LINE",
"359 88 OFFCURVE",
"432 153 OFFCURVE",
"432 267 CURVE SMOOTH",
"432 365 OFFCURVE",
"372 416 OFFCURVE",
"265 416 CURVE"
);
},
{
closed = 1;
nodes = (
"88 499 LINE",
"91 150 LINE",
"88 0 LINE",
"169 0 LINE",
"166 157 LINE",
"170 499 LINE"
);
}
);
width = 474;
}
);
leftKerningGroup = H;
rightKerningGroup = Thorn;
},
{
color = 0;
glyphname = q.sc;
lastChange = "2016-10-28 13:22:51 +0000";
layers = (
{
layerId = "EDFD1FE9-67C2-43D2-81E5-EF1682ABC3BD";
paths = (
{
closed = 1;
nodes = (
"130 505 OFFCURVE",
"44 411 OFFCURVE",
"44 245 CURVE SMOOTH",
"44 84 OFFCURVE",
"126 -7 OFFCURVE",
"271 -7 CURVE SMOOTH",
"426 -7 OFFCURVE",
"513 89 OFFCURVE",
"513 260 CURVE SMOOTH",
"513 416 OFFCURVE",
"432 505 OFFCURVE",
"286 505 CURVE"
);
},
{
closed = 1;
nodes = (
"285 4 LINE",
"367 -68 OFFCURVE",
"469 -121 OFFCURVE",
"575 -149 CURVE",
"582 -149 LINE",
"596 -135 OFFCURVE",
"606 -120 OFFCURVE",
"618 -99 CURVE",
"616 -90 LINE",
"514 -72 OFFCURVE",
"416 -30 OFFCURVE",
"336 29 CURVE"
);
},
{
closed = 1;
nodes = (
"382 439 OFFCURVE",
"431 380 OFFCURVE",
"431 244 CURVE SMOOTH",
"431 114 OFFCURVE",
"380 55 OFFCURVE",
"277 55 CURVE SMOOTH",
"176 55 OFFCURVE",
"127 115 OFFCURVE",
"127 254 CURVE SMOOTH",
"127 382 OFFCURVE",
"177 439 OFFCURVE",
"279 439 CURVE SMOOTH"
);
}
);
width = 561;
}
);
leftKerningGroup = O;
rightKerningGroup = O;
},
{
color = 1;
glyphname = r.sc;
lastChange = "2016-10-28 13:22:51 +0000";
layers = (
{
anchors = (
{
name = bottom;
position = "{233, 0}";
},
{
name = top;
position = "{233, 499}";
}
);
layerId = "EDFD1FE9-67C2-43D2-81E5-EF1682ABC3BD";
paths = (
{
closed = 1;
nodes = (
"88 499 LINE",
"132 438 LINE",
"241 442 LINE",
"310 439 OFFCURVE",
"345 407 OFFCURVE",
"345 348 CURVE SMOOTH",
"345 292 OFFCURVE",
"316 254 OFFCURVE",
"260 238 CURVE",
"118 243 LINE",
"118 180 LINE",
"264 180 LINE",
"367 202 OFFCURVE",
"429 269 OFFCURVE",
"429 355 CURVE SMOOTH",
"429 448 OFFCURVE",
"369 500 OFFCURVE",
"263 500 CURVE"
);
},
{
closed = 1;
nodes = (
"88 499 LINE",
"91 150 LINE",
"88 0 LINE",
"168 0 LINE",
"165 157 LINE",
"169 499 LINE"
);
},
{
closed = 1;
nodes = (
"236 220 LINE",
"276 145 OFFCURVE",
"322 72 OFFCURVE",
"370 1 CURVE",
"383 -7 LINE",
"408 -5 OFFCURVE",
"433 1 OFFCURVE",
"457 9 CURVE",
"458 19 LINE",
"404 85 OFFCURVE",
"355 152 OFFCURVE",
"311 221 CURVE"
);
}
);
width = 499;
}
);
leftKerningGroup = H;
rightKerningGroup = R;
},
{
color = 1;
glyphname = s.sc;
lastChange = "2016-10-28 13:22:51 +0000";
layers = (
{
anchors = (
{
name = bottom;
position = "{197, 0}";
},
{
name = top;
position = "{215, 499}";
}
);
layerId = "EDFD1FE9-67C2-43D2-81E5-EF1682ABC3BD";
paths = (
{
closed = 1;
nodes = (
"129 504 OFFCURVE",
"61 440 OFFCURVE",
"61 360 CURVE SMOOTH",
"61 210 OFFCURVE",
"296 227 OFFCURVE",
"296 129 CURVE SMOOTH",
"296 90 OFFCURVE",
"261 53 OFFCURVE",
"202 53 CURVE SMOOTH",
"163 53 OFFCURVE",
"109 71 OFFCURVE",
"67 102 CURVE",
"58 97 LINE",
"48 27 LINE",
"95 4 OFFCURVE",
"150 -6 OFFCURVE",
"194 -6 CURVE SMOOTH",
"313 -6 OFFCURVE",
"375 66 OFFCURVE",
"375 142 CURVE SMOOTH",
"375 293 OFFCURVE",
"140 277 OFFCURVE",
"140 370 CURVE SMOOTH",
"140 405 OFFCURVE",
"171 442 OFFCURVE",
"228 442 CURVE SMOOTH",
"254 442 OFFCURVE",
"297 432 OFFCURVE",
"336 410 CURVE",
"349 413 LINE",
"361 480 LINE",
"321 496 OFFCURVE",
"277 504 OFFCURVE",
"239 504 CURVE SMOOTH"
);
}
);
width = 427;
}
);
leftKerningGroup = S;
rightKerningGroup = S;
},
{
color = 1;
glyphname = germandbls.sc;
lastChange = "2016-10-28 13:22:51 +0000";
layers = (
{
layerId = "EDFD1FE9-67C2-43D2-81E5-EF1682ABC3BD";
paths = (
{
closed = 1;
nodes = (
"152 504 OFFCURVE",
"74 433 OFFCURVE",
"74 326 CURVE SMOOTH",
"75 147 LINE",
"72 0 LINE",
"151.994 0 LINE",
"149 157 LINE",
"151 326 LINE SMOOTH",
"151 398 OFFCURVE",
"198 439 OFFCURVE",
"279 439 CURVE SMOOTH",
"316 439 OFFCURVE",
"349 432 OFFCURVE",
"388 416 CURVE",
"258 262 LINE",
"261 248 LINE",
"378 217 OFFCURVE",
"438 188 OFFCURVE",
"438 135 CURVE SMOOTH",
"438 92 OFFCURVE",
"403 59 OFFCURVE",
"350 59 CURVE SMOOTH",
"316 59 OFFCURVE",
"270 74 OFFCURVE",
"233 102 CURVE",
"225 98 LINE",
"213 28 LINE",
"254 6 OFFCURVE",
"308 -6 OFFCURVE",
"355 -6 CURVE SMOOTH",
"448 -6 OFFCURVE",
"524 43 OFFCURVE",
"524 134 CURVE SMOOTH",
"524 207 OFFCURVE",
"469 245 OFFCURVE",
"352 282 CURVE",
"487 442 LINE",
"483 455 LINE",
"409 488 OFFCURVE",
"352 504 OFFCURVE",
"286 504 CURVE SMOOTH"
);
}
);
width = 561;
}
);
leftKerningGroup = Germandbls;
rightKerningGroup = Germandbls;
},
{
color = 1;
glyphname = t.sc;
lastChange = "2016-10-28 13:22:51 +0000";
layers = (
{
anchors = (
{
name = bottom;
position = "{216, 0}";
},
{
name = center;
position = "{205, 250}";
},
{
name = top;
position = "{213, 499}";
}
);
layerId = "EDFD1FE9-67C2-43D2-81E5-EF1682ABC3BD";
paths = (
{
closed = 1;
nodes = (
"181 487 LINE",
"183 150 LINE",
"180 0 LINE",
"260 0 LINE",
"257 157 LINE",
"260 487 LINE"
);
},
{
closed = 1;
nodes = (
"37 499 LINE",
"31 440 LINE",
"37 433 LINE",
"133 436 LINE",
"308 436 LINE",
"402 433 LINE",
"408 492 LINE",
"403 499 LINE"
);
}
);
width = 438;
}
);
leftKerningGroup = T;
rightKerningGroup = T;
},
{
color = 0;
glyphname = tbar.sc;
lastChange = "2016-10-28 13:22:51 +0000";
layers = (
{
components = (
{
name = t.sc;
}
);
layerId = "EDFD1FE9-67C2-43D2-81E5-EF1682ABC3BD";
paths = (
{
closed = 1;
nodes = (
"90 258 LINE",
"86 216 LINE",
"92 209 LINE",
"350 209 LINE",
"354 252 LINE",
"348 258 LINE"
);
}
);
width = 438;
}
);
leftKerningGroup = T;
rightKerningGroup = T;
},
{
color = 0;
glyphname = tcedilla.sc;
lastChange = "2016-10-28 13:22:51 +0000";
layers = (
{
components = (
{
name = t.sc;
transform = "{1, 0, 0, 1, -2, 0}";
}
);
layerId = "EDFD1FE9-67C2-43D2-81E5-EF1682ABC3BD";
paths = (
{
closed = 1;
nodes = (
"200 12 LINE",
"179 -69 LINE",
"225 -97 LINE SMOOTH",
"238 -105 OFFCURVE",
"245 -111 OFFCURVE",
"245 -124 CURVE SMOOTH",
"245 -140 OFFCURVE",
"233 -150 OFFCURVE",
"213 -150 CURVE SMOOTH",
"192 -150 OFFCURVE",
"176 -138 OFFCURVE",
"160 -120 CURVE",
"155 -121 LINE",
"147 -159 LINE",
"163 -174 OFFCURVE",
"186 -189 OFFCURVE",
"218 -189 CURVE SMOOTH",
"264 -189 OFFCURVE",
"296 -163 OFFCURVE",
"296 -125 CURVE SMOOTH",
"296 -102 OFFCURVE",
"286 -86 OFFCURVE",
"259 -70 CURVE SMOOTH",
"227 -51 LINE",
"243 12 LINE"
);
}
);
width = 438;
}
);
leftKerningGroup = T;
rightKerningGroup = T;
},
{
color = 1;
glyphname = u.sc;
lastChange = "2016-10-28 13:22:51 +0000";
layers = (
{
anchors = (
{
name = ogonek;
position = "{451, 8}";
},
{
name = top;
position = "{277, 499}";
}
);
layerId = "EDFD1FE9-67C2-43D2-81E5-EF1682ABC3BD";
paths = (
{
closed = 1;
nodes = (
"397 499 LINE",
"400 183 LINE SMOOTH",
"401 101 OFFCURVE",
"358 59 OFFCURVE",
"274 59 CURVE SMOOTH",
"190 59 OFFCURVE",
"148 101 OFFCURVE",
"149 183 CURVE SMOOTH",
"153 499 LINE",
"73 499 LINE",
"74 249 LINE",
"73 173 LINE SMOOTH",
"70 58 OFFCURVE",
"142 -6 OFFCURVE",
"271 -6 CURVE SMOOTH",
"402 -6 OFFCURVE",
"477 59 OFFCURVE",
"475 173 CURVE",
"476 245 LINE",
"478 499 LINE"
);
}
);
width = 550;
}
);
leftKerningGroup = U;
rightKerningGroup = U;
},
{
color = 0;
glyphname = uhorn.sc;
lastChange = "2016-10-28 13:22:51 +0000";
layers = (
{
anchors = (
{
name = top;
position = "{267, 499}";
}
);
components = (
{
name = u.sc;
transform = "{1, 0, 0, 1, -2, 0}";
}
);
layerId = "EDFD1FE9-67C2-43D2-81E5-EF1682ABC3BD";
paths = (
{
closed = 1;
nodes = (
"490 607 OFFCURVE",
"476 601 OFFCURVE",
"464 592 CURVE",
"461 585 LINE",
"480 569 OFFCURVE",
"488 554 OFFCURVE",
"488 538 CURVE SMOOTH",
"488 513 OFFCURVE",
"469 499 OFFCURVE",
"435 499 CURVE",
"446 457 LINE",
"508 463 OFFCURVE",
"551 498 OFFCURVE",
"551 545 CURVE SMOOTH",
"551 580 OFFCURVE",
"524 607 OFFCURVE",
"503 607 CURVE SMOOTH"
);
}
);
width = 559;
}
);
leftKerningGroup = U;
rightKerningGroup = Uhorn;
},
{
color = 0;
glyphname = uogonek.sc;
lastChange = "2016-10-28 13:22:51 +0000";
layers = (
{
components = (
{
name = u.sc;
}
);
layerId = "EDFD1FE9-67C2-43D2-81E5-EF1682ABC3BD";
paths = (
{
closed = 1;
nodes = (
"361 40 LINE",
"297 -51 LINE SMOOTH",
"280 -75 OFFCURVE",
"272 -99 OFFCURVE",
"272 -122 CURVE SMOOTH",
"272 -167 OFFCURVE",
"303 -199 OFFCURVE",
"351 -199 CURVE SMOOTH",
"387 -199 OFFCURVE",
"419 -180 OFFCURVE",
"451 -146 CURVE",
"440 -110 LINE",
"435 -110 LINE",
"412 -136 OFFCURVE",
"386 -151 OFFCURVE",
"361 -151 CURVE SMOOTH",
"335 -151 OFFCURVE",
"320 -134 OFFCURVE",
"320 -110 CURVE SMOOTH",
"320 -95 OFFCURVE",
"325 -79 OFFCURVE",
"338 -60 CURVE SMOOTH",
"410 47 LINE"
);
}
);
width = 550;
}
);
leftKerningGroup = U;
rightKerningGroup = U;
},
{
color = 1;
glyphname = v.sc;
lastChange = "2016-10-28 13:22:51 +0000";
layers = (
{
layerId = "EDFD1FE9-67C2-43D2-81E5-EF1682ABC3BD";
paths = (
{
closed = 1;
nodes = (
"403 499 LINE",
"389 438 LINE",
"251 78 LINE",
"245 78 LINE",
"121 442 LINE",
"108 499 LINE",
"26 499 LINE",
"199 0 LINE",
"293 0 LINE",
"483 499 LINE SMOOTH"
);
}
);
width = 502;
}
);
leftKerningGroup = V;
rightKerningGroup = V;
},
{
color = 1;
glyphname = w.sc;
lastChange = "2016-10-28 13:22:51 +0000";
layers = (
{
anchors = (
{
name = top;
position = "{364, 499}";
}
);
layerId = "EDFD1FE9-67C2-43D2-81E5-EF1682ABC3BD";
paths = (
{
closed = 1;
nodes = (
"673 499 LINE",
"660 440 LINE",
"530 88 LINE",
"523 88 LINE",
"405 437 LINE",
"394 499 LINE",
"311 499 LINE",
"351 375 LINE",
"245 88 LINE",
"239 88 LINE",
"122 444 LINE",
"113 499 LINE",
"32 499 LINE",
"193 0 LINE",
"279 0 LINE",
"379 266 LINE",
"385 266 LINE",
"480 0 LINE",
"566 0 LINE",
"750 499 LINE"
);
}
);
width = 769;
}
);
leftKerningGroup = W;
rightKerningGroup = W;
},
{
color = 1;
glyphname = x.sc;
lastChange = "2016-10-28 13:22:51 +0000";
layers = (
{
layerId = "EDFD1FE9-67C2-43D2-81E5-EF1682ABC3BD";
paths = (
{
closed = 1;
nodes = (
"389 499 LINE",
"367 457 LINE",
"261 311 LINE",
"156 455 LINE",
"134 499 LINE",
"36 499 LINE",
"208 250 LINE",
"32 0 LINE",
"116 0 LINE",
"137 40 LINE",
"255 198 LINE",
"367 44 LINE",
"391 0 LINE",
"488 0 LINE",
"309 261 LINE",
"475 499 LINE"
);
}
);
width = 522;
}
);
leftKerningGroup = X;
rightKerningGroup = X;
},
{
color = 1;
glyphname = y.sc;
lastChange = "2016-10-28 13:22:51 +0000";
layers = (
{
anchors = (
{
name = top;
position = "{242, 499}";
}
);
layerId = "EDFD1FE9-67C2-43D2-81E5-EF1682ABC3BD";
paths = (
{
closed = 1;
nodes = (
"368 499 LINE",
"355 466 LINE",
"236 259 LINE",
"230 259 LINE",
"121 469 LINE",
"111 499 LINE",
"24 499 LINE",
"216 128 LINE",
"242 128 LINE",
"453 499 LINE SMOOTH"
);
},
{
closed = 1;
nodes = (
"192 213 LINE",
"194 142 LINE",
"190 0 LINE",
"270 0 LINE",
"267 142 LINE",
"269 213 LINE"
);
}
);
width = 475;
}
);
leftKerningGroup = Y;
rightKerningGroup = Y;
},
{
color = 1;
glyphname = z.sc;
lastChange = "2016-10-28 13:22:51 +0000";
layers = (
{
anchors = (
{
name = top;
position = "{222, 499}";
}
);
layerId = "EDFD1FE9-67C2-43D2-81E5-EF1682ABC3BD";
paths = (
{
closed = 1;
nodes = (
"378 499 LINE",
"137 499 LINE",
"54 500 LINE",
"47 439 LINE",
"51 433 LINE",
"121 437 LINE",
"328 437 LINE",
"40 56 LINE",
"40 -2 LINE",
"92 0 LINE",
"324 0 LINE",
"422 -2 LINE",
"429 60 LINE",
"424 65 LINE",
"349 61 LINE",
"136 61 LINE",
"423 440 LINE",
"423 500 LINE"
);
}
);
width = 471;
}
);
leftKerningGroup = Z;
rightKerningGroup = Z;
},
{
color = 1;
glyphname = Gamma;
lastChange = "2016-10-28 13:22:51 +0000";
layers = (
{
layerId = "EDFD1FE9-67C2-43D2-81E5-EF1682ABC3BD";
paths = (
{
closed = 1;
nodes = (
"92 641 LINE",
"96 193 LINE",
"92 0 LINE",
"177 0 LINE",
"174 200 LINE",
"178 641 LINE"
);
},
{
closed = 1;
nodes = (
"142 641 LINE",
"139 579 LINE",
"142 572 LINE",
"272 572 LINE",
"408 570 LINE",
"414 633 LINE",
"409 641 LINE"
);
}
);
width = 418;
}
);
leftKerningGroup = H;
leftMetricsKey = "=H";
rightKerningGroup = Gamma;
unicode = 0393;
},
{
color = 1;
glyphname = Delta;
lastChange = "2016-10-28 13:22:51 +0000";
layers = (
{
layerId = "EDFD1FE9-67C2-43D2-81E5-EF1682ABC3BD";
paths = (
{
closed = 1;
nodes = (
"246 641 LINE",
"13 0 LINE",
"559 0 LINE",
"346 641 LINE"
);
},
{
closed = 1;
nodes = (
"458 65 LINE",
"111 65 LINE",
"290 554 LINE",
"298 554 LINE"
);
}
);
width = 580;
}
);
leftKerningGroup = A;
leftMetricsKey = "=A";
rightKerningGroup = A;
rightMetricsKey = "=A";
unicode = 0394;
},
{
color = 1;
glyphname = Theta;
lastChange = "2016-10-28 13:22:51 +0000";
layers = (
{
anchors = (
{
name = top;
position = "{319, 641}";
}
);
layerId = "EDFD1FE9-67C2-43D2-81E5-EF1682ABC3BD";
paths = (
{
closed = 1;
nodes = (
"440 292 LINE",
"443 348 LINE",
"436 354 LINE",
"196 346 LINE",
"193 290 LINE",
"199 283 LINE"
);
},
{
closed = 1;
nodes = (
"141 648 OFFCURVE",
"37 529 OFFCURVE",
"37 315 CURVE SMOOTH",
"37 109 OFFCURVE",
"135 -8 OFFCURVE",
"309 -8 CURVE SMOOTH",
"495 -8 OFFCURVE",
"600 115 OFFCURVE",
"600 333 CURVE SMOOTH",
"600 535 OFFCURVE",
"502 648 OFFCURVE",
"326 648 CURVE"
);
},
{
closed = 1;
nodes = (
"450 580 OFFCURVE",
"515 498 OFFCURVE",
"515 317 CURVE SMOOTH",
"515 140 OFFCURVE",
"448 56 OFFCURVE",
"316 56 CURVE SMOOTH",
"186 56 OFFCURVE",
"122 140 OFFCURVE",
"122 325 CURVE SMOOTH",
"122 498 OFFCURVE",
"188 580 OFFCURVE",
"320 580 CURVE SMOOTH"
);
}
);
width = 636;
}
);
leftKerningGroup = O;
leftMetricsKey = "=O";
rightKerningGroup = O;
rightMetricsKey = "=O";
unicode = 0398;
},
{
color = 1;
glyphname = Lambda;
lastChange = "2016-10-28 13:22:51 +0000";
layers = (
{
layerId = "EDFD1FE9-67C2-43D2-81E5-EF1682ABC3BD";
paths = (
{
closed = 1;
nodes = (
"241 641 LINE",
"13 0 LINE SMOOTH",
"101 0 LINE",
"117 71 LINE",
"287 553 LINE",
"294 553 LINE",
"447 67 LINE",
"462 0 LINE",
"552 0 LINE",
"344 641 LINE"
);
}
);
width = 573;
}
);
leftKerningGroup = A;
leftMetricsKey = "=A";
rightKerningGroup = A;
rightMetricsKey = "=A";
unicode = 039B;
},
{
color = 1;
glyphname = Xi;
lastChange = "2016-10-28 13:22:51 +0000";
layers = (
{
layerId = "EDFD1FE9-67C2-43D2-81E5-EF1682ABC3BD";
paths = (
{
closed = 1;
nodes = (
"484 0 LINE",
"491 70 LINE",
"485 78 LINE",
"270 75 LINE",
"66 78 LINE",
"60 70 LINE",
"67 0 LINE"
);
},
{
closed = 1;
nodes = (
"268 291 LINE",
"437 289 LINE",
"443 358 LINE",
"438 366 LINE",
"276 365 LINE",
"110 366 LINE",
"104 298 LINE",
"109 289 LINE"
);
},
{
closed = 1;
nodes = (
"275 565 LINE",
"482 563 LINE",
"490 633 LINE",
"484 641 LINE",
"70 641 LINE",
"63 571 LINE",
"69 563 LINE"
);
}
);
width = 550;
}
);
leftKerningGroup = Xi;
rightKerningGroup = E;
unicode = 039E;
},
{
color = 1;
glyphname = Pi;
lastChange = "2016-10-28 13:22:51 +0000";
layers = (
{
layerId = "EDFD1FE9-67C2-43D2-81E5-EF1682ABC3BD";
paths = (
{
closed = 1;
nodes = (
"569 0 LINE",
"566 200 LINE",
"570 641 LINE",
"484 641 LINE",
"488 193 LINE",
"484 0 LINE"
);
},
{
closed = 1;
nodes = (
"177 0 LINE",
"174 200 LINE",
"178 641 LINE",
"92 641 LINE",
"96 193 LINE",
"92 0 LINE"
);
},
{
closed = 1;
nodes = (
"326 571 LINE",
"498 569 LINE",
"498 641 LINE",
"164 641 LINE",
"164 568 LINE"
);
}
);
width = 663;
}
);
leftKerningGroup = H;
leftMetricsKey = "=I";
rightKerningGroup = H;
rightMetricsKey = "=I";
unicode = 03A0;
},
{
color = 1;
glyphname = Sigma;
lastChange = "2016-10-28 13:22:51 +0000";
layers = (
{
layerId = "EDFD1FE9-67C2-43D2-81E5-EF1682ABC3BD";
paths = (
{
closed = 1;
nodes = (
"369 641 LINE",
"116 641 LINE",
"34 641 LINE",
"34 575 LINE",
"249 324 LINE",
"31 61 LINE",
"31 -1 LINE",
"113 0 LINE",
"345 0 LINE",
"454 -1 LINE",
"461 62 LINE",
"454 70 LINE",
"364 66 LINE",
"136 66 LINE",
"344 316 LINE",
"344 333 LINE",
"139 574 LINE",
"376 574 LINE",
"455 571 LINE",
"462 634 LINE",
"454 642 LINE"
);
}
);
width = 488;
}
);
leftKerningGroup = X;
rightKerningGroup = E;
unicode = 03A3;
},
{
color = 1;
glyphname = Phi;
lastChange = "2016-10-28 13:22:51 +0000";
layers = (
{
layerId = "EDFD1FE9-67C2-43D2-81E5-EF1682ABC3BD";
paths = (
{
closed = 1;
nodes = (
"571 59 OFFCURVE",
"683 151 OFFCURVE",
"683 328 CURVE SMOOTH",
"683 498 OFFCURVE",
"581 580 OFFCURVE",
"368 580 CURVE SMOOTH",
"148 580 OFFCURVE",
"37 492 OFFCURVE",
"37 316 CURVE SMOOTH",
"37 144 OFFCURVE",
"141 59 OFFCURVE",
"352 59 CURVE SMOOTH"
);
},
{
closed = 1;
nodes = (
"188 116 OFFCURVE",
"119 180 OFFCURVE",
"119 319 CURVE SMOOTH",
"119 458 OFFCURVE",
"188 519 OFFCURVE",
"361 519 CURVE SMOOTH",
"534 519 OFFCURVE",
"601 460 OFFCURVE",
"601 322 CURVE SMOOTH",
"601 183 OFFCURVE",
"531 116 OFFCURVE",
"359 116 CURVE SMOOTH"
);
},
{
closed = 1;
nodes = (
"320 640 LINE",
"324 193 LINE",
"320 0 LINE",
"400 0 LINE",
"397 200 LINE",
"401 640 LINE"
);
}
);
width = 720;
}
);
leftKerningGroup = O;
rightKerningGroup = O;
unicode = 03A6;
},
{
color = 1;
glyphname = Psi;
lastChange = "2016-10-28 13:22:51 +0000";
layers = (
{
layerId = "EDFD1FE9-67C2-43D2-81E5-EF1682ABC3BD";
paths = (
{
closed = 1;
nodes = (
"321 641 LINE",
"325 193 LINE",
"321 0 LINE",
"403 0 LINE",
"400 200 LINE",
"404 641 LINE"
);
},
{
closed = 1;
nodes = (
"582 641 LINE",
"585 370 LINE SMOOTH",
"586 250 OFFCURVE",
"510 183 OFFCURVE",
"362 183 CURVE SMOOTH",
"214 183 OFFCURVE",
"139 250 OFFCURVE",
"140 370 CURVE SMOOTH",
"143 641 LINE",
"61 641 LINE",
"62 455 LINE",
"62 359 LINE SMOOTH",
"62 204 OFFCURVE",
"166 114 OFFCURVE",
"359 114 CURVE SMOOTH",
"554 114 OFFCURVE",
"664 206 OFFCURVE",
"663 359 CURVE",
"663 447 LINE",
"665 641 LINE"
);
}
);
width = 725;
}
);
leftKerningGroup = Psi;
rightKerningGroup = Psi;
unicode = 03A8;
},
{
color = 1;
glyphname = Omega;
lastChange = "2016-10-28 13:22:51 +0000";
layers = (
{
anchors = (
{
name = bottom;
position = "{348, 0}";
},
{
name = top;
position = "{348, 641}";
},
{
name = topleft;
position = "{19, 641}";
}
);
layerId = "EDFD1FE9-67C2-43D2-81E5-EF1682ABC3BD";
paths = (
{
closed = 1;
nodes = (
"46 4 LINE",
"52 -3 LINE",
"126 0 LINE",
"250 0 LINE",
"291 -2 LINE",
"295 2 LINE",
"294 94 LINE",
"190 162 OFFCURVE",
"145 245 OFFCURVE",
"145 359 CURVE SMOOTH",
"145 500 OFFCURVE",
"217 578 OFFCURVE",
"348 578 CURVE SMOOTH",
"480 578 OFFCURVE",
"552 500 OFFCURVE",
"552 359 CURVE SMOOTH",
"552 245 OFFCURVE",
"504 162 OFFCURVE",
"402 94 CURVE",
"401 2 LINE",
"406 -2 LINE",
"447 0 LINE",
"570 0 LINE",
"642 -1 LINE",
"651 63 LINE",
"645 70 LINE",
"571 65 LINE",
"480 65 LINE",
"480 70 LINE",
"587 139 OFFCURVE",
"639 237 OFFCURVE",
"639 361 CURVE SMOOTH",
"639 545 OFFCURVE",
"533 648 OFFCURVE",
"348 648 CURVE SMOOTH",
"164 648 OFFCURVE",
"58 545 OFFCURVE",
"58 361 CURVE SMOOTH",
"58 237 OFFCURVE",
"109 139 OFFCURVE",
"217 70 CURVE",
"217 65 LINE",
"127 65 LINE",
"55 69 LINE"
);
}
);
width = 697;
}
);
leftKerningGroup = Omega;
rightKerningGroup = Omega;
unicode = 03A9;
},
{
color = 1;
glyphname = alpha;
lastChange = "2016-10-28 13:22:51 +0000";
layers = (
{
anchors = (
{
name = top;
position = "{270, 459}";
}
);
layerId = "EDFD1FE9-67C2-43D2-81E5-EF1682ABC3BD";
paths = (
{
closed = 1;
nodes = (
"273 -1 OFFCURVE",
"314 23 OFFCURVE",
"352 66 CURVE",
"379 66 LINE",
"364 154 LINE",
"331 89 OFFCURVE",
"290 58 OFFCURVE",
"239 58 CURVE SMOOTH",
"165 58 OFFCURVE",
"120 122 OFFCURVE",
"120 232 CURVE SMOOTH",
"120 347 OFFCURVE",
"169 406 OFFCURVE",
"263 406 CURVE SMOOTH",
"300 406 OFFCURVE",
"333 400 OFFCURVE",
"364 387 CURVE",
"385 444 LINE",
"342 457 OFFCURVE",
"300 464 OFFCURVE",
"260 466 CURVE SMOOTH",
"121 465 OFFCURVE",
"41 375 OFFCURVE",
"41 221 CURVE SMOOTH",
"41 81 OFFCURVE",
"112 -6 OFFCURVE",
"225 -6 CURVE SMOOTH"
);
},
{
closed = 1;
nodes = (
"459 -3 OFFCURVE",
"483 6 OFFCURVE",
"504 21 CURVE",
"513 66 LINE",
"505 74 LINE",
"489 64 OFFCURVE",
"475 60 OFFCURVE",
"462 60 CURVE SMOOTH",
"436 60 OFFCURVE",
"427 73 OFFCURVE",
"427 110 CURVE SMOOTH",
"430 460 LINE",
"347 450 LINE",
"350 232 LINE",
"350 85 LINE SMOOTH",
"358 22 OFFCURVE",
"385 -6 OFFCURVE",
"439 -5 CURVE SMOOTH"
);
}
);
width = 520;
}
);
leftKerningGroup = alpha;
rightKerningGroup = alpha;
unicode = 03B1;
},
{
color = 1;
glyphname = beta;
lastChange = "2016-10-28 13:22:51 +0000";
layers = (
{
layerId = "EDFD1FE9-67C2-43D2-81E5-EF1682ABC3BD";
paths = (
{
closed = 1;
nodes = (
"121 -234 OFFCURVE",
"145 -230 OFFCURVE",
"165 -222 CURVE",
"140 86 LINE",
"140 365 LINE",
"145 580 OFFCURVE",
"192 670 OFFCURVE",
"296 670 CURVE SMOOTH",
"343 670 OFFCURVE",
"363 651 OFFCURVE",
"363 607 CURVE SMOOTH",
"363 546 OFFCURVE",
"322 474 OFFCURVE",
"210 336 CURVE",
"243 281 LINE",
"361 406 OFFCURVE",
"414 503 OFFCURVE",
"414 581 CURVE SMOOTH",
"414 668 OFFCURVE",
"345 737 OFFCURVE",
"252 737 CURVE SMOOTH",
"149 737 OFFCURVE",
"89 650 OFFCURVE",
"86 491 CURVE SMOOTH",
"71 -225 LINE",
"83 -236 LINE"
);
},
{
closed = 1;
nodes = (
"387 -12 OFFCURVE",
"483 69 OFFCURVE",
"483 177 CURVE SMOOTH",
"483 320 OFFCURVE",
"317 422 OFFCURVE",
"195 357 CURVE",
"193 347 LINE",
"204 322 OFFCURVE",
"216 302 OFFCURVE",
"231 281 CURVE",
"243 281 LINE",
"328 344 OFFCURVE",
"412 313 OFFCURVE",
"412 219 CURVE SMOOTH",
"412 83 OFFCURVE",
"229 19 OFFCURVE",
"120 121 CURVE",
"120 31 LINE",
"151 44 LINE",
"184 21 OFFCURVE",
"217 2 OFFCURVE",
"254 -12 CURVE"
);
}
);
width = 514;
}
);
leftKerningGroup = h;
rightKerningGroup = beta;
unicode = 03B2;
},
{
color = 1;
glyphname = gamma;
lastChange = "2016-10-28 13:22:51 +0000";
layers = (
{
layerId = "EDFD1FE9-67C2-43D2-81E5-EF1682ABC3BD";
paths = (
{
closed = 1;
nodes = (
"249 -213 LINE",
"252 -26 OFFCURVE",
"245 91 OFFCURVE",
"222 219 CURVE SMOOTH",
"193 385 OFFCURVE",
"146 458 OFFCURVE",
"67 458 CURVE",
"34 437 OFFCURVE",
"18 398 OFFCURVE",
"18 346 CURVE",
"24 340 LINE",
"128 377 OFFCURVE",
"152 357 OFFCURVE",
"177 212 CURVE SMOOTH",
"190 137 OFFCURVE",
"194 83 OFFCURVE",
"196 -2 CURVE",
"210 58 LINE",
"154 -71 OFFCURVE",
"146 -98 OFFCURVE",
"137 -198 CURVE",
"179 -234 LINE",
"197 -236 LINE"
);
},
{
closed = 1;
nodes = (
"299 119 OFFCURVE",
"374 258 OFFCURVE",
"454 390 CURVE",
"444 420 OFFCURVE",
"428 445 OFFCURVE",
"406 461 CURVE",
"390 461 LINE",
"339 353 OFFCURVE",
"289 245 OFFCURVE",
"243 136 CURVE",
"218 137 LINE",
"226 -29 LINE"
);
}
);
width = 473;
}
);
leftKerningGroup = gamma;
rightKerningGroup = gamma;
unicode = 03B3;
},
{
color = 1;
glyphname = delta;
lastChange = "2016-10-28 13:22:51 +0000";
layers = (
{
layerId = "EDFD1FE9-67C2-43D2-81E5-EF1682ABC3BD";
paths = (
{
closed = 1;
nodes = (
"352 -7 OFFCURVE",
"438 90 OFFCURVE",
"438 217 CURVE SMOOTH",
"438 435 OFFCURVE",
"174 581 OFFCURVE",
"171 642 CURVE SMOOTH",
"171 651 OFFCURVE",
"177 658 OFFCURVE",
"188 658 CURVE SMOOTH",
"230 658 OFFCURVE",
"360 597 OFFCURVE",
"461 531 CURVE",
"475 552 LINE",
"420 651 OFFCURVE",
"334 714 OFFCURVE",
"217 743 CURVE",
"155 732 OFFCURVE",
"121 703 OFFCURVE",
"121 659 CURVE SMOOTH",
"121 536 OFFCURVE",
"365 448 OFFCURVE",
"365 246 CURVE SMOOTH",
"365 144 OFFCURVE",
"297 59 OFFCURVE",
"209 59 CURVE SMOOTH",
"144 59 OFFCURVE",
"104 106 OFFCURVE",
"104 183 CURVE SMOOTH",
"104 281 OFFCURVE",
"176 362 OFFCURVE",
"268 362 CURVE SMOOTH",
"301 362 OFFCURVE",
"332 351 OFFCURVE",
"366 331 CURVE",
"322 420 LINE",
"303 401 LINE",
"274 412 OFFCURVE",
"247 421 OFFCURVE",
"219 425 CURVE",
"104 420 OFFCURVE",
"32 338 OFFCURVE",
"32 223 CURVE SMOOTH",
"32 89 OFFCURVE",
"120 -7 OFFCURVE",
"235 -7 CURVE SMOOTH"
);
}
);
width = 498;
}
);
leftKerningGroup = o;
rightKerningGroup = delta;
unicode = 03B4;
},
{
color = 1;
glyphname = epsilon;
lastChange = "2016-10-28 13:22:51 +0000";
layers = (
{
anchors = (
{
name = top;
position = "{220, 453}";
}
);
layerId = "EDFD1FE9-67C2-43D2-81E5-EF1682ABC3BD";
paths = (
{
closed = 1;
nodes = (
"278 -4 OFFCURVE",
"320 15 OFFCURVE",
"358 37 CURVE",
"369 66 OFFCURVE",
"375 91 OFFCURVE",
"377 118 CURVE",
"371 123 LINE",
"310 87 OFFCURVE",
"242 70 OFFCURVE",
"190 70 CURVE SMOOTH",
"138 70 OFFCURVE",
"100 90 OFFCURVE",
"100 126 CURVE SMOOTH",
"100 175 OFFCURVE",
"190 206 OFFCURVE",
"314 203 CURVE",
"320 224 OFFCURVE",
"322 246 OFFCURVE",
"322 268 CURVE",
"313 275 LINE",
"173 273 OFFCURVE",
"46 188 OFFCURVE",
"46 96 CURVE SMOOTH",
"46 28 OFFCURVE",
"109 -12 OFFCURVE",
"235 -12 CURVE"
);
},
{
closed = 1;
nodes = (
"266 192 OFFCURVE",
"289 195 OFFCURVE",
"314 203 CURVE",
"217 246 LINE",
"156 250 OFFCURVE",
"123 270 OFFCURVE",
"123 299 CURVE SMOOTH",
"123 353 OFFCURVE",
"189 389 OFFCURVE",
"267 389 CURVE SMOOTH",
"292 389 OFFCURVE",
"318 385 OFFCURVE",
"344 378 CURVE",
"353 385 LINE",
"352 407 OFFCURVE",
"348 428 OFFCURVE",
"341 449 CURVE",
"313 457 OFFCURVE",
"287 460 OFFCURVE",
"259 460 CURVE SMOOTH",
"149 460 OFFCURVE",
"55 408 OFFCURVE",
"55 333 CURVE SMOOTH",
"55 252 OFFCURVE",
"142 192 OFFCURVE",
"242 192 CURVE SMOOTH"
);
}
);
width = 417;
}
);
leftKerningGroup = epsilon;
rightKerningGroup = epsilon;
unicode = 03B5;
},
{
color = 1;
glyphname = zeta;
lastChange = "2016-10-28 13:22:51 +0000";
layers = (
{
layerId = "EDFD1FE9-67C2-43D2-81E5-EF1682ABC3BD";
paths = (
{
closed = 1;
nodes = (
"247 -140 OFFCURVE",
"301 -89 OFFCURVE",
"301 -8 CURVE SMOOTH",
"301 57 OFFCURVE",
"273 97 OFFCURVE",
"206 112 CURVE SMOOTH",
"101 135 OFFCURVE",
"68 143 OFFCURVE",
"68 191 CURVE SMOOTH",
"68 260 OFFCURVE",
"145 377 OFFCURVE",
"367 651 CURVE",
"364 662 LINE",
"346 680 OFFCURVE",
"327 695 OFFCURVE",
"305 706 CURVE",
"294 707 LINE",
"107 462 OFFCURVE",
"28 321 OFFCURVE",
"28 200 CURVE SMOOTH",
"28 92 OFFCURVE",
"86 47 OFFCURVE",
"182 25 CURVE SMOOTH",
"240 11 OFFCURVE",
"256 10 OFFCURVE",
"256 -10 CURVE SMOOTH",
"256 -40 OFFCURVE",
"220 -58 OFFCURVE",
"98 -88 CURVE",
"92 -101 LINE",
"134 -179 LINE"
);
},
{
closed = 1;
nodes = (
"179 594 OFFCURVE",
"219 603 OFFCURVE",
"262 616 CURVE",
"260 636 LINE",
"137 614 OFFCURVE",
"79 647 OFFCURVE",
"128 731 CURVE",
"114 738 LINE",
"65 719 OFFCURVE",
"37 688 OFFCURVE",
"37 657 CURVE SMOOTH",
"37 616 OFFCURVE",
"82 588 OFFCURVE",
"137 588 CURVE"
);
}
);
width = 317;
}
);
leftKerningGroup = zeta;
rightKerningGroup = zeta;
unicode = 03B6;
},
{
color = 1;
glyphname = eta;
lastChange = "2016-10-28 13:22:51 +0000";
layers = (
{
anchors = (
{
name = top;
position = "{268, 459}";
}
);
layerId = "EDFD1FE9-67C2-43D2-81E5-EF1682ABC3BD";
paths = (
{
closed = 1;
nodes = (
"456 -185 LINE",
"453 200 LINE",
"455 330 LINE SMOOTH",
"456 416 OFFCURVE",
"406 465 OFFCURVE",
"317 465 CURVE SMOOTH",
"268 459 OFFCURVE",
"217 431 OFFCURVE",
"173 385 CURVE",
"160 385 LINE",
"160 324 LINE",
"202 370 OFFCURVE",
"248 397 OFFCURVE",
"289 397 CURVE SMOOTH",
"345 397 OFFCURVE",
"376 362 OFFCURVE",
"376 300 CURVE SMOOTH",
"371 -185 LINE"
);
},
{
closed = 1;
nodes = (
"173 0 LINE",
"170 201 LINE",
"170 372 LINE SMOOTH",
"170 434 OFFCURVE",
"139 464 OFFCURVE",
"79 464 CURVE SMOOTH",
"58 462 OFFCURVE",
"34 453 OFFCURVE",
"14 438 CURVE",
"5 388 LINE",
"13 381 LINE",
"29 390 OFFCURVE",
"43 394 OFFCURVE",
"57 394 CURVE SMOOTH",
"82 394 OFFCURVE",
"91 381 OFFCURVE",
"91 344 CURVE SMOOTH",
"93 194 LINE",
"89 0 LINE"
);
}
);
width = 522;
}
);
leftKerningGroup = n;
rightKerningGroup = n;
unicode = 03B7;
},
{
color = 1;
glyphname = theta;
lastChange = "2016-10-28 13:22:51 +0000";
layers = (
{
layerId = "EDFD1FE9-67C2-43D2-81E5-EF1682ABC3BD";
paths = (
{
closed = 1;
nodes = (
"325 -8 OFFCURVE",
"405 159 OFFCURVE",
"405 376 CURVE SMOOTH",
"405 583 OFFCURVE",
"334 734 OFFCURVE",
"238 734 CURVE SMOOTH",
"133 734 OFFCURVE",
"53 566 OFFCURVE",
"53 350 CURVE SMOOTH",
"53 142 OFFCURVE",
"125 -8 OFFCURVE",
"222 -8 CURVE SMOOTH"
);
},
{
closed = 1;
nodes = (
"142 68 OFFCURVE",
"112 191 OFFCURVE",
"126 361 CURVE SMOOTH",
"142 546 OFFCURVE",
"195 667 OFFCURVE",
"261 661 CURVE SMOOTH",
"320 655 OFFCURVE",
"352 531 OFFCURVE",
"338 362 CURVE SMOOTH",
"321 179 OFFCURVE",
"268 58 OFFCURVE",
"202 63 CURVE SMOOTH"
);
},
{
closed = 1;
nodes = (
"131 341 LINE",
"355 354 LINE",
"355 429 LINE",
"335 410 LINE",
"106 410 LINE",
"102 318 LINE"
);
}
);
width = 457;
}
);
leftKerningGroup = theta;
rightKerningGroup = theta;
unicode = 03B8;
},
{
color = 1;
glyphname = iota;
lastChange = "2016-10-28 13:22:51 +0000";
layers = (
{
anchors = (
{
name = top;
position = "{108, 459}";
}
);
layerId = "EDFD1FE9-67C2-43D2-81E5-EF1682ABC3BD";
paths = (
{
closed = 1;
nodes = (
"68 453 LINE",
"71 232 LINE",
"69 98 LINE SMOOTH",
"69 32 OFFCURVE",
"104 -5 OFFCURVE",
"159 -5 CURVE SMOOTH",
"181 -3 OFFCURVE",
"205 6 OFFCURVE",
"225 21 CURVE",
"234 66 LINE",
"225 74 LINE",
"209 64 OFFCURVE",
"196 60 OFFCURVE",
"182 60 CURVE SMOOTH",
"157 60 OFFCURVE",
"147 73 OFFCURVE",
"147 110 CURVE SMOOTH",
"151 461 LINE"
);
}
);
width = 240;
}
);
leftKerningGroup = iota;
rightKerningGroup = iota;
unicode = 03B9;
},
{
color = 1;
glyphname = kappa;
lastChange = "2016-10-28 13:22:51 +0000";
layers = (
{
layerId = "EDFD1FE9-67C2-43D2-81E5-EF1682ABC3BD";
paths = (
{
closed = 1;
nodes = (
"345 459 LINE",
"319 417 LINE",
"175 248 LINE",
"175 241 LINE",
"233 156 OFFCURVE",
"297 75 OFFCURVE",
"364 -5 CURVE",
"373 -9 LINE",
"399 -5 OFFCURVE",
"424 -2 OFFCURVE",
"449 5 CURVE",
"449 15 LINE",
"383 90 OFFCURVE",
"318 169 OFFCURVE",
"258 249 CURVE",
"436 459 LINE"
);
},
{
closed = 1;
nodes = (
"161 0 LINE",
"159 201 LINE",
"162 461 LINE",
"79 453 LINE",
"81 194 LINE",
"78 0 LINE"
);
}
);
width = 457;
}
);
leftKerningGroup = n;
leftMetricsKey = "=idotless";
rightKerningGroup = x;
rightMetricsKey = "=k";
unicode = 03BA;
},
{
color = 1;
glyphname = lambda;
lastChange = "2016-10-28 13:22:51 +0000";
layers = (
{
layerId = "EDFD1FE9-67C2-43D2-81E5-EF1682ABC3BD";
paths = (
{
closed = 1;
nodes = (
"96 59 LINE",
"209 368 LINE",
"215 368 LINE",
"321 65 LINE",
"338 0 LINE",
"419 0 LINE",
"250 459 LINE SMOOTH",
"196 604 OFFCURVE",
"126 654 OFFCURVE",
"1 647 CURVE",
"-9 631 OFFCURVE",
"-17 613 OFFCURVE",
"-23 588 CURVE",
"-19 581 LINE",
"114 586 OFFCURVE",
"157 550 OFFCURVE",
"212 389 CURVE",
"187 493 LINE",
"8 2 LINE",
"82 -3 LINE"
);
}
);
width = 429;
}
);
leftKerningGroup = lambda;
rightKerningGroup = lambda;
unicode = 03BB;
},
{
color = 1;
glyphname = mu;
lastChange = "2016-10-28 13:22:51 +0000";
layers = (
{
layerId = "EDFD1FE9-67C2-43D2-81E5-EF1682ABC3BD";
paths = (
{
closed = 1;
nodes = (
"273 4 OFFCURVE",
"316 32 OFFCURVE",
"354 77 CURVE",
"361 77 LINE",
"369 18 OFFCURVE",
"391 -5 OFFCURVE",
"431 -5 CURVE SMOOTH",
"453 -5 OFFCURVE",
"474 2 OFFCURVE",
"491 14 CURVE",
"501 62 LINE",
"493 68 LINE",
"482 61 OFFCURVE",
"470 57 OFFCURVE",
"460 57 CURVE SMOOTH",
"440 57 OFFCURVE",
"431 72 OFFCURVE",
"431 105 CURVE SMOOTH",
"435 461 LINE",
"356 453 LINE",
"356 128 LINE",
"316 85 OFFCURVE",
"276 64 OFFCURVE",
"236 64 CURVE SMOOTH",
"184 64 OFFCURVE",
"158 95 OFFCURVE",
"158 157 CURVE",
"102 130 LINE",
"102 44 OFFCURVE",
"144 -5 OFFCURVE",
"228 -5 CURVE SMOOTH"
);
},
{
closed = 1;
nodes = (
"158 -185 LINE",
"158 201 LINE",
"158 461 LINE",
"78 453 LINE",
"80 194 LINE",
"79 -185 LINE"
);
}
);
width = 523;
}
);
leftKerningGroup = p;
leftMetricsKey = p;
rightKerningGroup = u;
rightMetricsKey = u;
unicode = 03BC;
},
{
color = 1;
glyphname = nu;
lastChange = "2016-10-28 13:22:51 +0000";
layers = (
{
layerId = "EDFD1FE9-67C2-43D2-81E5-EF1682ABC3BD";
paths = (
{
closed = 1;
nodes = (
"201 -7 LINE",
"316 108 OFFCURVE",
"380 241 OFFCURVE",
"394 391 CURVE",
"381 416 OFFCURVE",
"361 434 OFFCURVE",
"318 464 CURVE",
"296 459 LINE",
"313 417 OFFCURVE",
"325 373 OFFCURVE",
"326 341 CURVE",
"291 219 OFFCURVE",
"224 119 OFFCURVE",
"126 39 CURVE",
"127 24 LINE",
"149 7 OFFCURVE",
"166 -3 OFFCURVE",
"187 -10 CURVE"
);
},
{
closed = 1;
nodes = (
"219 92 LINE",
"186 109 LINE",
"213 299 OFFCURVE",
"161 459 OFFCURVE",
"72 459 CURVE",
"40 434 OFFCURVE",
"20 401 OFFCURVE",
"11 361 CURVE",
"18 351 LINE",
"115 373 OFFCURVE",
"151 331 OFFCURVE",
"151 201 CURVE SMOOTH",
"151 135 OFFCURVE",
"143 86 OFFCURVE",
"126 39 CURVE"
);
}
);
width = 426;
}
);
leftKerningGroup = nu;
rightKerningGroup = nu;
unicode = 03BD;
},
{
color = 1;
glyphname = xi;
lastChange = "2016-10-28 13:22:51 +0000";
layers = (
{
layerId = "EDFD1FE9-67C2-43D2-81E5-EF1682ABC3BD";
paths = (
{
closed = 1;
nodes = (
"289 -137 OFFCURVE",
"335 -89 OFFCURVE",
"335 -15 CURVE SMOOTH",
"335 55 OFFCURVE",
"296 98 OFFCURVE",
"225 105 CURVE SMOOTH",
"105 117 OFFCURVE",
"81 127 OFFCURVE",
"81 167 CURVE SMOOTH",
"81 209 OFFCURVE",
"136 275 OFFCURVE",
"344 381 CURVE",
"344 391 LINE",
"292 440 LINE",
"281 442 LINE",
"102 340 OFFCURVE",
"39 251 OFFCURVE",
"39 187 CURVE SMOOTH",
"39 86 OFFCURVE",
"98 27 OFFCURVE",
"212 16 CURVE SMOOTH",
"278 11 OFFCURVE",
"292 4 OFFCURVE",
"292 -16 CURVE SMOOTH",
"292 -40 OFFCURVE",
"252 -60 OFFCURVE",
"135 -93 CURVE",
"131 -108 LINE",
"181 -180 LINE"
);
},
{
closed = 1;
nodes = (
"186 353 LINE",
"114 379 OFFCURVE",
"94 394 OFFCURVE",
"94 418 CURVE SMOOTH",
"94 467 OFFCURVE",
"161 533 OFFCURVE",
"322 639 CURVE",
"319 649 LINE",
"261 696 LINE",
"249 697 LINE",
"120 596 OFFCURVE",
"52 511 OFFCURVE",
"53 439 CURVE SMOOTH",
"52 387 OFFCURVE",
"84 347 OFFCURVE",
"166 319 CURVE"
);
},
{
closed = 1;
nodes = (
"143 600 OFFCURVE",
"182 608 OFFCURVE",
"216 622 CURVE",
"215 642 LINE",
"101 618 OFFCURVE",
"53 656 OFFCURVE",
"99 735 CURVE",
"84 743 LINE",
"37 724 OFFCURVE",
"7 692 OFFCURVE",
"7 662 CURVE SMOOTH",
"7 622 OFFCURVE",
"47 596 OFFCURVE",
"106 596 CURVE"
);
}
);
width = 361;
}
);
leftKerningGroup = xi;
rightKerningGroup = xi;
unicode = 03BE;
},
{
color = 1;
glyphname = pi;
lastChange = "2016-10-28 13:22:51 +0000";
layers = (
{
layerId = "EDFD1FE9-67C2-43D2-81E5-EF1682ABC3BD";
paths = (
{
closed = 1;
nodes = (
"531 -3 OFFCURVE",
"561 7 OFFCURVE",
"586 21 CURVE",
"595 69 LINE",
"587 77 LINE",
"565 66 OFFCURVE",
"546 61 OFFCURVE",
"527 61 CURVE SMOOTH",
"494 61 OFFCURVE",
"482 77 OFFCURVE",
"482 119 CURVE SMOOTH",
"486 453 LINE",
"404 451 LINE",
"406 227 LINE",
"404 100 LINE SMOOTH",
"404 32 OFFCURVE",
"439 -5 OFFCURVE",
"505 -5 CURVE SMOOTH"
);
},
{
closed = 1;
nodes = (
"24 355 LINE",
"65 393 OFFCURVE",
"92 404 OFFCURVE",
"143 404 CURVE SMOOTH",
"615 404 LINE",
"620 453 LINE",
"617 459 LINE",
"134 459 LINE SMOOTH",
"78 459 OFFCURVE",
"40 442 OFFCURVE",
"-3 394 CURVE",
"-3 385 LINE",
"15 355 LINE"
);
},
{
closed = 1;
nodes = (
"233 0 LINE",
"230 201 LINE",
"230 453 LINE",
"151 453 LINE",
"153 194 LINE",
"150 0 LINE"
);
}
);
width = 630;
}
);
leftKerningGroup = pi;
rightKerningGroup = pi;
unicode = 03C0;
},
{
color = 1;
glyphname = rho;
lastChange = "2016-10-28 13:22:51 +0000";
layers = (
{
layerId = "EDFD1FE9-67C2-43D2-81E5-EF1682ABC3BD";
paths = (
{
closed = 1;
nodes = (
"138 -185 LINE",
"135 246 LINE SMOOTH",
"135 345 OFFCURVE",
"177 397 OFFCURVE",
"252 397 CURVE SMOOTH",
"329 397 OFFCURVE",
"371 340 OFFCURVE",
"371 233 CURVE SMOOTH",
"371 112 OFFCURVE",
"318 49 OFFCURVE",
"218 49 CURVE SMOOTH",
"176 49 OFFCURVE",
"118 67 OFFCURVE",
"77 94 CURVE",
"72 22 LINE",
"114 3 OFFCURVE",
"169 -8 OFFCURVE",
"219 -8 CURVE SMOOTH",
"369 -8 OFFCURVE",
"449 80 OFFCURVE",
"449 243 CURVE SMOOTH",
"449 388 OFFCURVE",
"385 465 OFFCURVE",
"265 465 CURVE SMOOTH",
"133 465 OFFCURVE",
"58 381 OFFCURVE",
"58 225 CURVE SMOOTH",
"55 -185 LINE"
);
}
);
width = 492;
}
);
leftKerningGroup = rho;
rightKerningGroup = o;
rightMetricsKey = "=p";
unicode = 03C1;
},
{
color = 1;
glyphname = sigmafinal;
lastChange = "2016-10-28 13:22:51 +0000";
layers = (
{
layerId = "EDFD1FE9-67C2-43D2-81E5-EF1682ABC3BD";
paths = (
{
closed = 1;
nodes = (
"268 -139 OFFCURVE",
"312 -89 OFFCURVE",
"312 -11 CURVE SMOOTH",
"312 59 OFFCURVE",
"273 101 OFFCURVE",
"209 109 CURVE SMOOTH",
"99 123 OFFCURVE",
"77 139 OFFCURVE",
"77 202 CURVE SMOOTH",
"77 321 OFFCURVE",
"176 385 OFFCURVE",
"313 355 CURVE",
"320 365 LINE",
"316 394 OFFCURVE",
"307 423 OFFCURVE",
"293 451 CURVE",
"145 488 OFFCURVE",
"34 389 OFFCURVE",
"34 218 CURVE SMOOTH",
"34 95 OFFCURVE",
"87 31 OFFCURVE",
"198 19 CURVE SMOOTH",
"254 13 OFFCURVE",
"267 7 OFFCURVE",
"267 -15 CURVE SMOOTH",
"267 -40 OFFCURVE",
"227 -59 OFFCURVE",
"122 -92 CURVE",
"119 -105 LINE",
"165 -182 LINE"
);
}
);
width = 352;
}
);
leftKerningGroup = o;
rightKerningGroup = sigmafinal;
unicode = 03C2;
},
{
color = 1;
glyphname = sigma;
lastChange = "2016-10-28 13:22:51 +0000";
layers = (
{
layerId = "EDFD1FE9-67C2-43D2-81E5-EF1682ABC3BD";
paths = (
{
closed = 1;
nodes = (
"366 -8 OFFCURVE",
"440 78 OFFCURVE",
"440 227 CURVE SMOOTH",
"440 289 OFFCURVE",
"423 344 OFFCURVE",
"387 398 CURVE",
"396 421 LINE",
"303 434 LINE",
"341 371 OFFCURVE",
"363 292 OFFCURVE",
"363 220 CURVE SMOOTH",
"363 109 OFFCURVE",
"320 51 OFFCURVE",
"238 51 CURVE SMOOTH",
"162 51 OFFCURVE",
"121 112 OFFCURVE",
"121 235 CURVE SMOOTH",
"121 353 OFFCURVE",
"165 404 OFFCURVE",
"264 404 CURVE SMOOTH",
"498 404 LINE",
"503 453 LINE",
"499 459 LINE",
"270 459 LINE SMOOTH",
"119 459 OFFCURVE",
"42 381 OFFCURVE",
"42 229 CURVE SMOOTH",
"42 76 OFFCURVE",
"110 -8 OFFCURVE",
"233 -8 CURVE SMOOTH"
);
}
);
width = 511;
}
);
leftKerningGroup = o;
rightKerningGroup = sigma;
unicode = 03C3;
},
{
color = 1;
glyphname = tau;
lastChange = "2016-10-28 13:22:51 +0000";
layers = (
{
layerId = "EDFD1FE9-67C2-43D2-81E5-EF1682ABC3BD";
paths = (
{
closed = 1;
nodes = (
"281 -3 OFFCURVE",
"311 7 OFFCURVE",
"336 21 CURVE",
"345 69 LINE",
"337 77 LINE",
"315 66 OFFCURVE",
"296 61 OFFCURVE",
"277 61 CURVE SMOOTH",
"243 61 OFFCURVE",
"231 77 OFFCURVE",
"231 119 CURVE SMOOTH",
"235 453 LINE",
"153 451 LINE",
"154 227 LINE",
"153 100 LINE SMOOTH",
"153 32 OFFCURVE",
"188 -5 OFFCURVE",
"255 -5 CURVE SMOOTH"
);
},
{
closed = 1;
nodes = (
"24 355 LINE",
"65 393 OFFCURVE",
"93 404 OFFCURVE",
"144 404 CURVE SMOOTH",
"375 404 LINE",
"381 453 LINE",
"377 459 LINE",
"135 459 LINE SMOOTH",
"78 459 OFFCURVE",
"40 442 OFFCURVE",
"-3 394 CURVE",
"-3 385 LINE",
"15 355 LINE"
);
}
);
width = 388;
}
);
leftKerningGroup = pi;
rightKerningGroup = pi;
unicode = 03C4;
},
{
color = 1;
glyphname = upsilon;
lastChange = "2016-10-28 13:22:51 +0000";
layers = (
{
anchors = (
{
name = top;
position = "{237, 459}";
}
);
layerId = "EDFD1FE9-67C2-43D2-81E5-EF1682ABC3BD";
paths = (
{
closed = 1;
nodes = (
"353 -6 OFFCURVE",
"418 56 OFFCURVE",
"417 165 CURVE",
"418 309 LINE",
"418 371 OFFCURVE",
"409 418 OFFCURVE",
"387 462 CURVE",
"317 447 LINE",
"315 441 LINE",
"333 399 OFFCURVE",
"341 357 OFFCURVE",
"342 298 CURVE SMOOTH",
"342 174 LINE SMOOTH",
"342 97 OFFCURVE",
"307.994 58.994 OFFCURVE",
"241 59 CURVE SMOOTH",
"173 59 OFFCURVE",
"138 97 OFFCURVE",
"139 174 CURVE SMOOTH",
"144 461 LINE",
"64 454 LINE",
"65 237 LINE",
"63 165 LINE SMOOTH",
"61 55 OFFCURVE",
"124 -6 OFFCURVE",
"238 -6 CURVE SMOOTH"
);
}
);
width = 478;
}
);
leftKerningGroup = upsilon;
rightKerningGroup = upsilon;
unicode = 03C5;
},
{
color = 1;
glyphname = phi;
lastChange = "2016-10-28 13:22:51 +0000";
layers = (
{
layerId = "EDFD1FE9-67C2-43D2-81E5-EF1682ABC3BD";
paths = (
{
closed = 1;
nodes = (
"434 -12 OFFCURVE",
"546 86 OFFCURVE",
"546 226 CURVE SMOOTH",
"546 365 OFFCURVE",
"437 464 OFFCURVE",
"288 464 CURVE SMOOTH",
"138 464 OFFCURVE",
"26 366 OFFCURVE",
"26 225 CURVE SMOOTH",
"26 87 OFFCURVE",
"134 -12 OFFCURVE",
"283 -12 CURVE SMOOTH"
);
},
{
closed = 1;
nodes = (
"314 -230 LINE",
"305 18 OFFCURVE",
"312 405 OFFCURVE",
"331 634 CURVE",
"312 644 OFFCURVE",
"294 649 OFFCURVE",
"272 652 CURVE",
"264 641 LINE",
"247 -223 LINE",
"263 -231 OFFCURVE",
"280 -236 OFFCURVE",
"306 -241 CURVE"
);
},
{
closed = 1;
nodes = (
"150 53 OFFCURVE",
"88 103 OFFCURVE",
"88 184 CURVE SMOOTH",
"88 304 OFFCURVE",
"198 401 OFFCURVE",
"321 401 CURVE SMOOTH",
"421 401 OFFCURVE",
"484 349 OFFCURVE",
"484 264 CURVE SMOOTH",
"484 145 OFFCURVE",
"379 53 OFFCURVE",
"251 53 CURVE SMOOTH"
);
}
);
width = 572;
}
);
leftKerningGroup = o;
rightKerningGroup = o;
unicode = 03C6;
},
{
color = 1;
glyphname = chi;
lastChange = "2016-10-28 13:22:51 +0000";
layers = (
{
layerId = "EDFD1FE9-67C2-43D2-81E5-EF1682ABC3BD";
paths = (
{
closed = 1;
nodes = (
"351 -205 OFFCURVE",
"343 -102 OFFCURVE",
"278 132 CURVE SMOOTH",
"245 250 LINE SMOOTH",
"206 395 OFFCURVE",
"153 457 OFFCURVE",
"70 457 CURVE",
"36 435 OFFCURVE",
"18 395 OFFCURVE",
"17 341 CURVE",
"24 333 LINE",
"150 379 OFFCURVE",
"164 370 OFFCURVE",
"201 228 CURVE SMOOTH",
"233 106 LINE SMOOTH",
"312 -192 OFFCURVE",
"341 -240 OFFCURVE",
"443 -240 CURVE",
"486 -210 OFFCURVE",
"513 -167 OFFCURVE",
"521 -114 CURVE",
"510 -102 LINE"
);
},
{
closed = 1;
nodes = (
"179 -30 OFFCURVE",
"296 158 OFFCURVE",
"421 326 CURVE",
"476 393 LINE",
"477 408 LINE",
"461 432 OFFCURVE",
"439 450 OFFCURVE",
"412 462 CURVE",
"272 258 OFFCURVE",
"138 45 OFFCURVE",
"11 -180 CURVE",
"20 -203 OFFCURVE",
"38 -218 OFFCURVE",
"61 -239 CURVE",
"69 -241 LINE"
);
}
);
width = 519;
}
);
leftKerningGroup = chi;
rightKerningGroup = chi;
unicode = 03C7;
},
{
color = 1;
glyphname = psi;
lastChange = "2016-10-28 13:22:51 +0000";
layers = (
{
layerId = "EDFD1FE9-67C2-43D2-81E5-EF1682ABC3BD";
paths = (
{
closed = 1;
nodes = (
"485 -13 OFFCURVE",
"583 149 OFFCURVE",
"527 395 CURVE",
"506 424 OFFCURVE",
"472 449 OFFCURVE",
"430 465 CURVE",
"415 454 LINE",
"441 415 OFFCURVE",
"462 373 OFFCURVE",
"486 317 CURVE",
"488 162 OFFCURVE",
"423 78 OFFCURVE",
"289 78 CURVE SMOOTH",
"179 78 OFFCURVE",
"122 129 OFFCURVE",
"136 206 CURVE SMOOTH",
"155 311 LINE SMOOTH",
"171 399 OFFCURVE",
"140 457 OFFCURVE",
"70 458 CURVE",
"35 437 OFFCURVE",
"11 406 OFFCURVE",
"-2 361 CURVE",
"3 352 LINE",
"88 372 OFFCURVE",
"120 352 OFFCURVE",
"110 289 CURVE SMOOTH",
"88 136 LINE SMOOTH",
"74 45 OFFCURVE",
"142 -13 OFFCURVE",
"274 -13 CURVE SMOOTH"
);
},
{
closed = 1;
nodes = (
"332 -230 LINE",
"322 18 OFFCURVE",
"330 405 OFFCURVE",
"349 634 CURVE",
"329 644 OFFCURVE",
"311 649 OFFCURVE",
"289 652 CURVE",
"282 641 LINE",
"265 -223 LINE",
"281 -231 OFFCURVE",
"297 -236 OFFCURVE",
"323 -241 CURVE"
);
}
);
width = 589;
}
);
leftKerningGroup = upsilon;
rightKerningGroup = upsilon;
unicode = 03C8;
},
{
color = 1;
glyphname = omega;
lastChange = "2016-10-28 13:22:51 +0000";
layers = (
{
anchors = (
{
name = bottom;
position = "{318, 0}";
},
{
name = top;
position = "{326, 453}";
}
);
layerId = "EDFD1FE9-67C2-43D2-81E5-EF1682ABC3BD";
paths = (
{
closed = 1;
nodes = (
"151 457 LINE",
"86 408 OFFCURVE",
"45 308 OFFCURVE",
"45 208 CURVE SMOOTH",
"45 85 OFFCURVE",
"104 -7 OFFCURVE",
"184 -7 CURVE SMOOTH",
"248 -7 OFFCURVE",
"307 55 OFFCURVE",
"337 132 CURVE",
"310 134 LINE",
"343 54 OFFCURVE",
"410 -12 OFFCURVE",
"462 -12 CURVE SMOOTH",
"536 -12 OFFCURVE",
"602 108 OFFCURVE",
"602 241 CURVE SMOOTH",
"602 328 OFFCURVE",
"574 409 OFFCURVE",
"526 458 CURVE",
"517 458 LINE",
"461 426 LINE",
"456 416 LINE",
"498 353 OFFCURVE",
"533 289 OFFCURVE",
"551 222 CURVE",
"551 126 OFFCURVE",
"513 85 OFFCURVE",
"442 85 CURVE SMOOTH",
"393 85 OFFCURVE",
"363 104 OFFCURVE",
"344 147 CURVE",
"362 194 OFFCURVE",
"367 253 OFFCURVE",
"358 303 CURVE",
"341 323 OFFCURVE",
"319 336 OFFCURVE",
"297 344 CURVE",
"287 339 LINE",
"269 295 OFFCURVE",
"273 212 OFFCURVE",
"295 161 CURVE",
"273 111 OFFCURVE",
"233 88 OFFCURVE",
"183 88 CURVE SMOOTH",
"119 88 OFFCURVE",
"90 120 OFFCURVE",
"90 175 CURVE SMOOTH",
"90 249 OFFCURVE",
"144 349 OFFCURVE",
"228 423 CURVE",
"210 440 OFFCURVE",
"191 452 OFFCURVE",
"165 461 CURVE"
);
}
);
width = 652;
}
);
leftKerningGroup = omega;
rightKerningGroup = omega;
unicode = 03C9;
},
{
color = 1;
glyphname = prosgegrammeni;
lastChange = "2016-10-28 13:22:51 +0000";
layers = (
{
anchors = (
{
name = top;
position = "{124, 393}";
}
);
layerId = "EDFD1FE9-67C2-43D2-81E5-EF1682ABC3BD";
paths = (
{
closed = 1;
nodes = (
"208 13 OFFCURVE",
"229 41 OFFCURVE",
"238 79 CURVE",
"232 90 LINE",
"156 72 OFFCURVE",
"128 86 OFFCURVE",
"134 136 CURVE SMOOTH",
"165 378 LINE",
"138 389 OFFCURVE",
"113 395 OFFCURVE",
"83 398 CURVE",
"73 391 LINE",
"77 116 LINE SMOOTH",
"79 34 OFFCURVE",
"113 -8 OFFCURVE",
"177 -8 CURVE"
);
}
);
width = 266;
}
);
unicode = 1FBE;
},
{
color = 1;
glyphname = gamma_gamma;
lastChange = "2016-10-28 13:22:51 +0000";
layers = (
{
layerId = "EDFD1FE9-67C2-43D2-81E5-EF1682ABC3BD";
paths = (
{
closed = 1;
nodes = (
"633 -213 LINE",
"636 -26 OFFCURVE",
"629 91 OFFCURVE",
"606 219 CURVE SMOOTH",
"577 385 OFFCURVE",
"530 458 OFFCURVE",
"451 458 CURVE",
"409 460 LINE",
"380 437 LINE",
"334 337 OFFCURVE",
"286 238 OFFCURVE",
"243 136 CURVE",
"218 137 LINE",
"226 -29 LINE",
"290 103 OFFCURVE",
"358 228 OFFCURVE",
"428 347 CURVE",
"515 374 OFFCURVE",
"537 347 OFFCURVE",
"560 212 CURVE SMOOTH",
"573 145 OFFCURVE",
"577 96 OFFCURVE",
"580 25 CURVE",
"536 -76 OFFCURVE",
"529 -107 OFFCURVE",
"521 -198 CURVE",
"563 -234 LINE",
"580 -236 LINE"
);
},
{
closed = 1;
nodes = (
"249 -213 LINE",
"252 -26 OFFCURVE",
"245 91 OFFCURVE",
"222 219 CURVE SMOOTH",
"193 385 OFFCURVE",
"146 458 OFFCURVE",
"67 458 CURVE",
"34 437 OFFCURVE",
"18 398 OFFCURVE",
"18 346 CURVE",
"24 340 LINE",
"128 377 OFFCURVE",
"152 357 OFFCURVE",
"177 212 CURVE SMOOTH",
"190 137 OFFCURVE",
"194 83 OFFCURVE",
"196 -2 CURVE",
"210 58 LINE",
"154 -71 OFFCURVE",
"146 -98 OFFCURVE",
"137 -198 CURVE",
"179 -234 LINE",
"197 -236 LINE"
);
},
{
closed = 1;
nodes = (
"683 119 OFFCURVE",
"759 258 OFFCURVE",
"837 390 CURVE",
"828 420 OFFCURVE",
"812 445 OFFCURVE",
"789 461 CURVE",
"773 461 LINE",
"724 353 OFFCURVE",
"672 245 OFFCURVE",
"627 136 CURVE",
"602 137 LINE",
"610 -29 LINE"
);
}
);
width = 857;
}
);
leftKerningGroup = gamma;
leftMetricsKey = gamma;
rightKerningGroup = gamma;
rightMetricsKey = gamma;
},
{
color = 1;
glyphname = lambda_lambda;
lastChange = "2016-10-28 13:22:51 +0000";
layers = (
{
layerId = "EDFD1FE9-67C2-43D2-81E5-EF1682ABC3BD";
paths = (
{
closed = 1;
nodes = (
"533 358 OFFCURVE",
"479 239 OFFCURVE",
"409 90 CURVE",
"367 82 OFFCURVE",
"355 100 OFFCURVE",
"337 163 CURVE SMOOTH",
"224 565 LINE SMOOTH",
"192 678 OFFCURVE",
"139 738 OFFCURVE",
"70 738 CURVE",
"27 718 OFFCURVE",
"5 680 OFFCURVE",
"6 628 CURVE",
"14 618 LINE",
"125 660 OFFCURVE",
"144 652 OFFCURVE",
"175 549 CURVE SMOOTH",
"302 99 LINE SMOOTH",
"325 16 OFFCURVE",
"348 -5 OFFCURVE",
"404 -7 CURVE SMOOTH",
"436 -8 LINE",
"471 20 LINE",
"506 109 OFFCURVE",
"548 218 OFFCURVE",
"594 346 CURVE",
"629 346 LINE",
"578 466 LINE"
);
},
{
closed = 1;
nodes = (
"92 -6 LINE",
"133 91 OFFCURVE",
"176 206 OFFCURVE",
"227 346 CURVE",
"263 346 LINE",
"211 466 LINE",
"159 342 OFFCURVE",
"96 203 OFFCURVE",
"11 21 CURVE",
"16 13 LINE",
"84 -10 LINE"
);
},
{
closed = 1;
nodes = (
"807 15 OFFCURVE",
"829 49 OFFCURVE",
"834 94 CURVE",
"826 105 LINE",
"741 75 OFFCURVE",
"727 82 OFFCURVE",
"704 163 CURVE SMOOTH",
"591 565 LINE SMOOTH",
"559 678 OFFCURVE",
"506 738 OFFCURVE",
"437 738 CURVE",
"394 718 OFFCURVE",
"372 680 OFFCURVE",
"373 628 CURVE",
"381 618 LINE",
"493 660 OFFCURVE",
"511 652 OFFCURVE",
"542 549 CURVE SMOOTH",
"669 99 LINE SMOOTH",
"692 16 OFFCURVE",
"714 -7 OFFCURVE",
"772 -7 CURVE"
);
}
);
width = 824;
}
);
leftKerningGroup = lambda;
leftMetricsKey = lambda;
rightKerningGroup = lambda;
rightMetricsKey = lambda;
},
{
color = 1;
glyphname = gamma.sc;
lastChange = "2016-10-28 13:22:51 +0000";
layers = (
{
layerId = "EDFD1FE9-67C2-43D2-81E5-EF1682ABC3BD";
paths = (
{
closed = 1;
nodes = (
"94 -3 OFFCURVE",
"137 0 OFFCURVE",
"165 0 CURVE SMOOTH",
"187 0 OFFCURVE",
"229 -2 OFFCURVE",
"283 -3 CURVE",
"290 42 LINE",
"287 47 LINE",
"270 46 OFFCURVE",
"242 44 OFFCURVE",
"230 44 CURVE SMOOTH",
"202 44 OFFCURVE",
"194 55 OFFCURVE",
"194 96 CURVE",
"206 420 LINE",
"207 447 OFFCURVE",
"209 448 OFFCURVE",
"265 448 CURVE SMOOTH",
"348 448 OFFCURVE",
"358 443 OFFCURVE",
"358 390 CURVE SMOOTH",
"358 371 OFFCURVE",
"357 359 OFFCURVE",
"355 330 CURVE",
"405 334 LINE",
"410 389 OFFCURVE",
"416 447 OFFCURVE",
"425 502 CURVE",
"421 508 LINE",
"375 501 OFFCURVE",
"312 498 OFFCURVE",
"194 498 CURVE SMOOTH",
"156 498 OFFCURVE",
"99 500 OFFCURVE",
"69 500 CURVE",
"63 461 LINE",
"65 456 LINE",
"78 457 OFFCURVE",
"87 458 OFFCURVE",
"92 458 CURVE SMOOTH",
"116 458 OFFCURVE",
"121 450 OFFCURVE",
"121 416 CURVE SMOOTH",
"120 101 LINE SMOOTH",
"120 57 OFFCURVE",
"107 43 OFFCURVE",
"58 34 CURVE",
"53 -9 LINE"
);
}
);
width = 435;
}
);
leftKerningGroup = H;
rightKerningGroup = Gamma;
userData = {
RMXScaler = {
source = Gamma;
};
};
},
{
color = 1;
glyphname = delta.sc;
lastChange = "2016-10-28 13:22:51 +0000";
layers = (
{
layerId = "EDFD1FE9-67C2-43D2-81E5-EF1682ABC3BD";
paths = (
{
closed = 1;
nodes = (
"442 0 LINE",
"448 5 LINE",
"388 172 OFFCURVE",
"299 476 OFFCURVE",
"293 508 CURVE",
"287 508 LINE",
"210 494 LINE",
"20 10 LINE",
"28 0 LINE"
);
},
{
closed = 1;
nodes = (
"105 59 LINE",
"102 63 LINE",
"232 415 LINE",
"240 415 LINE",
"346 68 LINE",
"340 59 LINE",
"229 56 LINE"
);
}
);
width = 484;
}
);
leftKerningGroup = A;
rightKerningGroup = A;
userData = {
RMXScaler = {
source = Delta;
};
};
},
{
color = 1;
glyphname = theta.sc;
lastChange = "2016-10-28 13:22:51 +0000";
layers = (
{
layerId = "EDFD1FE9-67C2-43D2-81E5-EF1682ABC3BD";
paths = (
{
closed = 1;
nodes = (
"426 -9 OFFCURVE",
"544 107 OFFCURVE",
"544 266 CURVE SMOOTH",
"544 411 OFFCURVE",
"450 507 OFFCURVE",
"310 507 CURVE SMOOTH",
"156 507 OFFCURVE",
"40 391 OFFCURVE",
"40 233 CURVE SMOOTH",
"40 88 OFFCURVE",
"132 -9 OFFCURVE",
"270 -9 CURVE SMOOTH"
);
},
{
closed = 1;
nodes = (
"191 40 OFFCURVE",
"122 126 OFFCURVE",
"122 260 CURVE SMOOTH",
"122 375 OFFCURVE",
"187 450 OFFCURVE",
"284 450 CURVE SMOOTH",
"388 450 OFFCURVE",
"460 365 OFFCURVE",
"460 230 CURVE SMOOTH",
"460 115 OFFCURVE",
"392 40 OFFCURVE",
"293 40 CURVE SMOOTH"
);
},
{
closed = 1;
nodes = (
"203 215 OFFCURVE",
"255 218 OFFCURVE",
"279 218 CURVE SMOOTH",
"314 218 OFFCURVE",
"373 216 OFFCURVE",
"407 215 CURVE",
"420 281 LINE",
"415 287 LINE",
"378 282 OFFCURVE",
"327 277 OFFCURVE",
"303 277 CURVE SMOOTH",
"269 277 OFFCURVE",
"208 280 OFFCURVE",
"175 280 CURVE",
"162 214 LINE",
"167 208 LINE"
);
}
);
width = 584;
}
);
leftKerningGroup = O;
rightKerningGroup = O;
userData = {
RMXScaler = {
source = Theta;
};
};
},
{
color = 1;
glyphname = lambda.sc;
lastChange = "2016-10-28 13:22:51 +0000";
layers = (
{
layerId = "EDFD1FE9-67C2-43D2-81E5-EF1682ABC3BD";
paths = (
{
closed = 1;
nodes = (
"284 -7 OFFCURVE",
"347 0 OFFCURVE",
"412 0 CURVE SMOOTH",
"443 0 OFFCURVE",
"503 -2 OFFCURVE",
"503 -2 CURVE",
"509 36 LINE",
"507 39 LINE",
"463 43 OFFCURVE",
"445 56 OFFCURVE",
"432 94 CURVE SMOOTH",
"378 252 OFFCURVE",
"307 506 OFFCURVE",
"307 506 CURVE",
"299 507 LINE",
"222 494 LINE",
"67 97 LINE",
"51 57 OFFCURVE",
"36 44 OFFCURVE",
"6 41 CURVE",
"0 -2 LINE",
"0 -2 OFFCURVE",
"53 0 OFFCURVE",
"93 0 CURVE SMOOTH",
"147 0 OFFCURVE",
"209 -5 OFFCURVE",
"209 -5 CURVE",
"214 35 LINE",
"212 38 LINE",
"169 38 LINE",
"136 38 OFFCURVE",
"123 47 OFFCURVE",
"123 68 CURVE SMOOTH",
"123 74 OFFCURVE",
"125 83 OFFCURVE",
"129 95 CURVE SMOOTH",
"245 412 LINE",
"253 412 LINE",
"349 98 LINE",
"353 85 OFFCURVE",
"355 74 OFFCURVE",
"355 65 CURVE SMOOTH",
"355 46 OFFCURVE",
"341 40 OFFCURVE",
"285 36 CURVE",
"281 -2 LINE",
"284 -7 LINE"
);
}
);
width = 512;
}
);
leftKerningGroup = A;
rightKerningGroup = A;
userData = {
RMXScaler = {
source = Lambda;
};
};
},
{
color = 1;
glyphname = xi.sc;
lastChange = "2016-10-28 13:22:51 +0000";
layers = (
{
layerId = "EDFD1FE9-67C2-43D2-81E5-EF1682ABC3BD";
paths = (
{
closed = 1;
nodes = (
"100 373 LINE",
"118 429 OFFCURVE",
"131 437 OFFCURVE",
"202 437 CURVE SMOOTH",
"328 437 LINE SMOOTH",
"388 437 OFFCURVE",
"395 427 OFFCURVE",
"392 369 CURVE",
"443 372 LINE",
"446 413 OFFCURVE",
"452 459 OFFCURVE",
"463 502 CURVE",
"460 508 LINE",
"411 500 OFFCURVE",
"361 498 OFFCURVE",
"260 499 CURVE SMOOTH",
"79 501 LINE",
"66 490 LINE",
"64 456 OFFCURVE",
"61 419 OFFCURVE",
"53 369 CURVE"
);
},
{
closed = 1;
nodes = (
"253 1 LINE",
"444 -2 LINE",
"458 10 LINE",
"460 57 OFFCURVE",
"464 101 OFFCURVE",
"468 128 CURVE",
"465 132 LINE",
"422 128 LINE",
"405 72 OFFCURVE",
"391 63 OFFCURVE",
"322 63 CURVE SMOOTH",
"188 63 LINE SMOOTH",
"120 63 OFFCURVE",
"103 73 OFFCURVE",
"88 132 CURVE",
"47 127 LINE",
"44 122 LINE",
"49 98 OFFCURVE",
"52 58 OFFCURVE",
"54 10 CURVE",
"66 -2 LINE"
);
},
{
closed = 1;
nodes = (
"158 216 OFFCURVE",
"215 220 OFFCURVE",
"240 220 CURVE SMOOTH",
"280 220 OFFCURVE",
"345 218 OFFCURVE",
"381 217 CURVE",
"395 287 LINE",
"389 294 LINE",
"350 288 OFFCURVE",
"293 284 OFFCURVE",
"266 284 CURVE SMOOTH",
"227 284 OFFCURVE",
"163 286 OFFCURVE",
"127 287 CURVE",
"113 216 LINE",
"118 210 LINE"
);
}
);
width = 516;
}
);
leftKerningGroup = Xi;
rightKerningGroup = E;
userData = {
RMXScaler = {
source = Xi;
};
};
},
{
color = 1;
glyphname = pi.sc;
lastChange = "2016-10-28 13:22:51 +0000";
layers = (
{
layerId = "EDFD1FE9-67C2-43D2-81E5-EF1682ABC3BD";
paths = (
{
closed = 1;
nodes = (
"87 -4 OFFCURVE",
"129 0 OFFCURVE",
"153 0 CURVE SMOOTH",
"180 0 OFFCURVE",
"232 -2 OFFCURVE",
"265 -2 CURVE",
"272 39 LINE",
"270 43 LINE",
"261 42 OFFCURVE",
"243 41 OFFCURVE",
"229 41 CURVE SMOOTH",
"201 41 OFFCURVE",
"195 52 OFFCURVE",
"195 94 CURVE SMOOTH",
"195 159 OFFCURVE",
"199 291 OFFCURVE",
"205 409 CURVE SMOOTH",
"207 439 OFFCURVE",
"225 446 OFFCURVE",
"270 446 CURVE",
"381 446 LINE",
"408 446 OFFCURVE",
"421 439 OFFCURVE",
"421 406 CURVE SMOOTH",
"420 97 LINE SMOOTH",
"420 57 OFFCURVE",
"406 44 OFFCURVE",
"358 40 CURVE",
"353 0 LINE",
"453 0 LINE",
"479 0 OFFCURVE",
"532 -2 OFFCURVE",
"564 -2 CURVE",
"573 39 LINE",
"570 43 LINE",
"561 42 OFFCURVE",
"542 41 OFFCURVE",
"529 41 CURVE SMOOTH",
"501 41 OFFCURVE",
"494 52 OFFCURVE",
"494 94 CURVE SMOOTH",
"494 161 OFFCURVE",
"499 307 OFFCURVE",
"505 419 CURVE SMOOTH",
"507 449 OFFCURVE",
"518 457 OFFCURVE",
"563 463 CURVE",
"566 505 LINE",
"524 501 OFFCURVE",
"484 498 OFFCURVE",
"465 498 CURVE SMOOTH",
"165 498 LINE SMOOTH",
"137 498 OFFCURVE",
"92 499 OFFCURVE",
"62 500 CURVE",
"57 461 LINE",
"59 456 LINE",
"73 457 OFFCURVE",
"85 458 OFFCURVE",
"92 458 CURVE SMOOTH",
"115 458 OFFCURVE",
"121 449 OFFCURVE",
"121 416 CURVE SMOOTH",
"121 99 LINE SMOOTH",
"121 56 OFFCURVE",
"108 43 OFFCURVE",
"57 33 CURVE",
"52 -8 LINE"
);
}
);
width = 619;
}
);
leftKerningGroup = H;
rightKerningGroup = H;
userData = {
RMXScaler = {
source = Pi;
};
};
},
{
color = 1;
glyphname = sigma.sc;
lastChange = "2016-10-28 13:22:51 +0000";
layers = (
{
layerId = "EDFD1FE9-67C2-43D2-81E5-EF1682ABC3BD";
paths = (
{
closed = 1;
nodes = (
"107 2 LINE",
"399 -2 LINE",
"413 11 LINE",
"415 52 OFFCURVE",
"421 116 OFFCURVE",
"430 166 CURVE",
"427 169 LINE",
"383 165 LINE",
"366 83 OFFCURVE",
"350 68 OFFCURVE",
"277 68 CURVE",
"118 68 LINE",
"286 245 LINE",
"287 265 LINE",
"140 451 LINE",
"263 451 LINE SMOOTH",
"334 451 OFFCURVE",
"359 426 OFFCURVE",
"367 353 CURVE",
"412 360 LINE",
"407 409 OFFCURVE",
"404 464 OFFCURVE",
"403 500 CURVE",
"395 508 LINE",
"348 503 OFFCURVE",
"291 500 OFFCURVE",
"250 499 CURVE",
"48 494 LINE",
"38 465 LINE",
"215 236 LINE",
"26 35 LINE",
"39 -3 LINE"
);
}
);
width = 487;
}
);
leftKerningGroup = X;
rightKerningGroup = E;
userData = {
RMXScaler = {
source = Sigma;
};
};
},
{
color = 1;
glyphname = upsilon.sc;
lastChange = "2016-10-28 13:22:51 +0000";
layers = (
{
anchors = (
{
name = top;
position = "{237, 497}";
}
);
layerId = "EDFD1FE9-67C2-43D2-81E5-EF1682ABC3BD";
paths = (
{
closed = 1;
nodes = (
"243 258 LINE",
"215 453 OFFCURVE",
"127 537 OFFCURVE",
"2 488 CURVE",
"-9 454 LINE",
"-7 449 LINE",
"115 449 OFFCURVE",
"198 325 OFFCURVE",
"198 142 CURVE"
);
},
{
closed = 1;
nodes = (
"154 -3 OFFCURVE",
"193 0 OFFCURVE",
"230 0 CURVE SMOOTH",
"256 0 OFFCURVE",
"308 -2 OFFCURVE",
"343 -3 CURVE",
"351 40 LINE",
"349 44 LINE",
"339 43 OFFCURVE",
"320 41 OFFCURVE",
"309 41 CURVE SMOOTH",
"280 41 OFFCURVE",
"271 53 OFFCURVE",
"272 92 CURVE SMOOTH",
"275 290 LINE",
"198 290 LINE",
"198 115 LINE SMOOTH",
"198 55 OFFCURVE",
"188 43 OFFCURVE",
"130 38 CURVE",
"125 -5 LINE"
);
},
{
closed = 1;
nodes = (
"273 314 OFFCURVE",
"370 464 OFFCURVE",
"480 449 CURVE",
"483 456 LINE",
"461 489 LINE",
"361 531 OFFCURVE",
"276 441 OFFCURVE",
"242 260 CURVE",
"272 124 LINE"
);
}
);
width = 473;
}
);
leftKerningGroup = Y;
rightKerningGroup = Y;
userData = {
RMXScaler = {
source = Upsilon;
};
};
},
{
color = 1;
glyphname = phi.sc;
lastChange = "2016-10-28 13:22:51 +0000";
layers = (
{
layerId = "EDFD1FE9-67C2-43D2-81E5-EF1682ABC3BD";
paths = (
{
closed = 1;
nodes = (
"217 -4 OFFCURVE",
"258 0 OFFCURVE",
"283 0 CURVE SMOOTH",
"310 0 OFFCURVE",
"363 -2 OFFCURVE",
"395 -2 CURVE",
"402 36 LINE",
"400 40 LINE",
"390 39 OFFCURVE",
"372 38 OFFCURVE",
"359 38 CURVE SMOOTH",
"331 38 OFFCURVE",
"323 45 OFFCURVE",
"323 77 CURVE SMOOTH",
"323 147 OFFCURVE",
"328 305 OFFCURVE",
"334 431 CURVE SMOOTH",
"335 454 OFFCURVE",
"348 462 OFFCURVE",
"392 466 CURVE",
"396 505 LINE",
"355 501 OFFCURVE",
"314 498 OFFCURVE",
"295 498 CURVE SMOOTH",
"267 498 OFFCURVE",
"223 499 OFFCURVE",
"192 500 CURVE",
"186 465 LINE",
"189 460 LINE",
"203 461 OFFCURVE",
"216 462 OFFCURVE",
"221 462 CURVE SMOOTH",
"245 462 OFFCURVE",
"254 454 OFFCURVE",
"254 429 CURVE SMOOTH",
"253 84 LINE SMOOTH",
"252 48 OFFCURVE",
"240 39 OFFCURVE",
"187 30 CURVE",
"182 -8 LINE"
);
},
{
closed = 1;
nodes = (
"281 95 LINE",
"281 138 LINE",
"251 138 LINE SMOOTH",
"162 138 OFFCURVE",
"109 184 OFFCURVE",
"109 262 CURVE SMOOTH",
"109 329 OFFCURVE",
"158 369 OFFCURVE",
"243 369 CURVE SMOOTH",
"281 369 LINE",
"281 412 LINE",
"263 412 LINE SMOOTH",
"130 412 OFFCURVE",
"40 343 OFFCURVE",
"40 242 CURVE SMOOTH",
"40 150 OFFCURVE",
"112 95 OFFCURVE",
"231 95 CURVE"
);
},
{
closed = 1;
nodes = (
"316 95 LINE SMOOTH",
"449 95 OFFCURVE",
"538 163 OFFCURVE",
"538 264 CURVE SMOOTH",
"538 357 OFFCURVE",
"467 412 OFFCURVE",
"348 412 CURVE",
"299 412 LINE",
"299 369 LINE",
"328 369 LINE SMOOTH",
"417 369 OFFCURVE",
"469 323 OFFCURVE",
"469 245 CURVE SMOOTH",
"469 177 OFFCURVE",
"421 138 OFFCURVE",
"336 138 CURVE SMOOTH",
"299 138 LINE",
"299 95 LINE"
);
}
);
width = 579;
}
);
leftKerningGroup = O;
rightKerningGroup = O;
userData = {
RMXScaler = {
source = Phi;
};
};
},
{
color = 1;
glyphname = psi.sc;
lastChange = "2016-10-28 13:22:51 +0000";
layers = (
{
layerId = "EDFD1FE9-67C2-43D2-81E5-EF1682ABC3BD";
paths = (
{
closed = 1;
nodes = (
"238 -4 OFFCURVE",
"279 0 OFFCURVE",
"305 0 CURVE SMOOTH",
"333 0 OFFCURVE",
"385 -2 OFFCURVE",
"417 -2 CURVE",
"424 39 LINE",
"422 43 LINE",
"412 42 OFFCURVE",
"394 41 OFFCURVE",
"380 41 CURVE SMOOTH",
"353 41 OFFCURVE",
"346 52 OFFCURVE",
"346 94 CURVE SMOOTH",
"346 164 OFFCURVE",
"351 311 OFFCURVE",
"357 419 CURVE SMOOTH",
"359 449 OFFCURVE",
"369 457 OFFCURVE",
"413 463 CURVE",
"417 505 LINE",
"379 501 OFFCURVE",
"338 498 OFFCURVE",
"316 498 CURVE SMOOTH",
"289 498 OFFCURVE",
"244 499 OFFCURVE",
"213 500 CURVE",
"208 461 LINE",
"210 456 LINE",
"220 457 OFFCURVE",
"235 458 OFFCURVE",
"243 458 CURVE SMOOTH",
"266 458 OFFCURVE",
"273 449 OFFCURVE",
"272 416 CURVE SMOOTH",
"272 100 LINE SMOOTH",
"272 56 OFFCURVE",
"258 42 OFFCURVE",
"207 33 CURVE",
"202 -8 LINE"
);
},
{
closed = 1;
nodes = (
"294 247 LINE",
"191 248 OFFCURVE",
"161 287 OFFCURVE",
"132 471 CURVE",
"122 478 LINE",
"23 460 LINE",
"27 423 LINE",
"62 430 OFFCURVE",
"67 419 OFFCURVE",
"74 387 CURVE SMOOTH",
"108 234 OFFCURVE",
"154 203 OFFCURVE",
"294 203 CURVE"
);
},
{
closed = 1;
nodes = (
"458 203 OFFCURVE",
"506 241 OFFCURVE",
"540 372 CURVE SMOOTH",
"552 417 OFFCURVE",
"560 430 OFFCURVE",
"598 424 CURVE",
"601 460 LINE",
"503 478 LINE",
"493 471 LINE",
"464 287 OFFCURVE",
"434 248 OFFCURVE",
"331 247 CURVE",
"331 203 LINE"
);
}
);
width = 621;
}
);
leftKerningGroup = Y;
rightKerningGroup = Y;
userData = {
RMXScaler = {
source = Psi;
};
};
},
{
color = 1;
glyphname = omega.sc;
lastChange = "2016-10-28 13:22:51 +0000";
layers = (
{
anchors = (
{
name = bottom;
position = "{336, 0}";
},
{
name = top;
position = "{335, 497}";
}
);
layerId = "EDFD1FE9-67C2-43D2-81E5-EF1682ABC3BD";
paths = (
{
closed = 1;
nodes = (
"292 0 LINE",
"298 7 LINE",
"288 73 LINE",
"221 119 OFFCURVE",
"177 200 OFFCURVE",
"177 285 CURVE SMOOTH",
"177 386 OFFCURVE",
"239 449 OFFCURVE",
"334 449 CURVE SMOOTH",
"429 449 OFFCURVE",
"489 384 OFFCURVE",
"489 275 CURVE SMOOTH",
"489 191 OFFCURVE",
"454 132 OFFCURVE",
"375 75 CURVE",
"366 8 LINE",
"371 1 LINE",
"599 -4 LINE",
"613 9 LINE",
"614 45 OFFCURVE",
"620 96 OFFCURVE",
"628 134 CURVE",
"584 130 LINE",
"573 73 OFFCURVE",
"555 57 OFFCURVE",
"508 57 CURVE",
"430 57 LINE",
"430 65 LINE",
"524 115 OFFCURVE",
"579 199 OFFCURVE",
"579 295 CURVE SMOOTH",
"579 422 OFFCURVE",
"484 508 OFFCURVE",
"345 508 CURVE SMOOTH",
"198 508 OFFCURVE",
"90 413 OFFCURVE",
"90 285 CURVE SMOOTH",
"90 199 OFFCURVE",
"140 121 OFFCURVE",
"232 65 CURVE",
"232 57 LINE",
"163 57 LINE",
"114 57 OFFCURVE",
"98 73 OFFCURVE",
"86 133 CURVE",
"44 130 LINE",
"50 86 OFFCURVE",
"55 46 OFFCURVE",
"58 9 CURVE",
"71 -4 LINE"
);
}
);
width = 672;
}
);
leftKerningGroup = Omega;
rightKerningGroup = Omega;
userData = {
RMXScaler = {
source = Omega;
};
};
},
{
color = 1;
glyphname = zero;
lastChange = "2016-10-28 13:22:51 +0000";
layers = (
{
layerId = "EDFD1FE9-67C2-43D2-81E5-EF1682ABC3BD";
paths = (
{
closed = 1;
nodes = (
"126 505 OFFCURVE",
"46 410 OFFCURVE",
"46 242 CURVE SMOOTH",
"46 83 OFFCURVE",
"123 -7 OFFCURVE",
"259 -7 CURVE SMOOTH",
"401 -7 OFFCURVE",
"481 87 OFFCURVE",
"481 253 CURVE SMOOTH",
"481 415 OFFCURVE",
"405 505 OFFCURVE",
"269 505 CURVE SMOOTH"
);
},
{
closed = 1;
nodes = (
"362 427 OFFCURVE",
"414 365 OFFCURVE",
"414 243 CURVE SMOOTH",
"414 128 OFFCURVE",
"363 68 OFFCURVE",
"264 68 CURVE SMOOTH",
"164 68 OFFCURVE",
"113 129 OFFCURVE",
"113 248 CURVE SMOOTH",
"113 367 OFFCURVE",
"164 427 OFFCURVE",
"263 427 CURVE SMOOTH"
);
}
);
width = 527;
}
);
unicode = 0030;
},
{
color = 1;
glyphname = one;
lastChange = "2016-10-28 13:22:51 +0000";
layers = (
{
layerId = "EDFD1FE9-67C2-43D2-81E5-EF1682ABC3BD";
paths = (
{
closed = 1;
nodes = (
"11 442 LINE",
"11 375 LINE",
"19 370 LINE",
"146 406 LINE",
"146 197 LINE",
"143 0 LINE",
"228 0 LINE",
"225 207 LINE",
"228 494 LINE",
"216 503 LINE"
);
}
);
width = 346;
}
);
unicode = 0031;
},
{
color = 1;
glyphname = two;
lastChange = "2016-10-28 13:22:51 +0000";
layers = (
{
layerId = "EDFD1FE9-67C2-43D2-81E5-EF1682ABC3BD";
paths = (
{
closed = 1;
nodes = (
"165 503 OFFCURVE",
"103 474 OFFCURVE",
"51 429 CURVE",
"65 363 LINE",
"76 363 LINE",
"115 405 OFFCURVE",
"164 430 OFFCURVE",
"211 430 CURVE SMOOTH",
"259 430 OFFCURVE",
"285 404 OFFCURVE",
"285 370 CURVE SMOOTH",
"285 329 OFFCURVE",
"247 277 OFFCURVE",
"182 204 CURVE SMOOTH",
"46 55 LINE",
"46 2 LINE",
"51 -2 LINE",
"88 0 LINE",
"313 0 LINE",
"417 -4 LINE",
"428 64 LINE",
"422 70 LINE",
"338 66 LINE",
"158 66 LINE",
"156 70 LINE",
"252 183 LINE SMOOTH",
"331 272 OFFCURVE",
"368 336 OFFCURVE",
"368 391 CURVE SMOOTH",
"368 459 OFFCURVE",
"310 503 OFFCURVE",
"229 503 CURVE SMOOTH"
);
}
);
width = 457;
}
);
unicode = 0032;
},
{
color = 1;
glyphname = three;
lastChange = "2016-10-28 13:22:51 +0000";
layers = (
{
layerId = "EDFD1FE9-67C2-43D2-81E5-EF1682ABC3BD";
paths = (
{
closed = 1;
nodes = (
"136 504 OFFCURVE",
"82 484 OFFCURVE",
"30 442 CURVE",
"43 382 LINE",
"53 382 LINE",
"95 416 OFFCURVE",
"134 434 OFFCURVE",
"176 434 CURVE SMOOTH",
"229 434 OFFCURVE",
"262 405 OFFCURVE",
"262 358 CURVE SMOOTH",
"262 293 OFFCURVE",
"196 248 OFFCURVE",
"144 248 CURVE SMOOTH",
"100 247 LINE",
"97 188 LINE",
"102 182 LINE",
"163 182 LINE",
"244 179 OFFCURVE",
"288 143 OFFCURVE",
"288 82 CURVE SMOOTH",
"288 13 OFFCURVE",
"231 -31 OFFCURVE",
"139 -31 CURVE SMOOTH",
"109 -31 OFFCURVE",
"73 -27 OFFCURVE",
"40 -19 CURVE",
"33 -25 LINE",
"38 -88 LINE",
"69 -93 OFFCURVE",
"107 -97 OFFCURVE",
"137 -97 CURVE SMOOTH",
"275 -97 OFFCURVE",
"368 -25 OFFCURVE",
"368 80 CURVE SMOOTH",
"368 155 OFFCURVE",
"326 203 OFFCURVE",
"248 224 CURVE",
"248 228 LINE",
"314 262 OFFCURVE",
"347 321 OFFCURVE",
"347 375 CURVE SMOOTH",
"347 453 OFFCURVE",
"284 504 OFFCURVE",
"192 504 CURVE SMOOTH"
);
}
);
width = 414;
}
);
unicode = 0033;
},
{
color = 1;
glyphname = four;
lastChange = "2016-10-28 13:22:51 +0000";
layers = (
{
layerId = "EDFD1FE9-67C2-43D2-81E5-EF1682ABC3BD";
paths = (
{
closed = 1;
nodes = (
"277 499 LINE",
"26 136 LINE",
"26 81 LINE",
"32 73 LINE",
"99 75 LINE",
"353 75 LINE",
"447 73 LINE",
"452 133 LINE",
"446 141 LINE",
"101 141 LINE",
"278 397 LINE",
"284 397 LINE",
"285 122 LINE",
"282 -91 LINE",
"287 -97 LINE",
"352 -92 LINE",
"357 -85 LINE",
"353 109 LINE",
"355 499 LINE"
);
}
);
width = 483;
}
);
unicode = 0034;
},
{
color = 1;
glyphname = five;
lastChange = "2016-10-28 13:22:51 +0000";
layers = (
{
layerId = "EDFD1FE9-67C2-43D2-81E5-EF1682ABC3BD";
paths = (
{
closed = 1;
nodes = (
"289 499 LINE",
"143 499 LINE",
"89 501 LINE",
"77 489 LINE",
"72 227 LINE",
"78 219 LINE",
"165 202 LINE SMOOTH",
"252 182 OFFCURVE",
"292 150 OFFCURVE",
"292 96 CURVE SMOOTH",
"292 18 OFFCURVE",
"229 -31 OFFCURVE",
"130 -31 CURVE SMOOTH",
"102 -31 OFFCURVE",
"71 -28 OFFCURVE",
"36 -20 CURVE",
"30 -27 LINE",
"35 -88 LINE",
"66 -94 OFFCURVE",
"102 -98 OFFCURVE",
"129 -98 CURVE SMOOTH",
"274 -98 OFFCURVE",
"372 -18 OFFCURVE",
"372 103 CURVE SMOOTH",
"372 188 OFFCURVE",
"318 238 OFFCURVE",
"202 264 CURVE SMOOTH",
"138 278 LINE",
"143 432 LINE",
"296 432 LINE",
"362 426 LINE",
"369 432 LINE",
"378 497 LINE",
"372 503 LINE"
);
}
);
width = 419;
}
);
unicode = 0035;
},
{
color = 1;
glyphname = six;
lastChange = "2016-10-28 13:22:51 +0000";
layers = (
{
layerId = "EDFD1FE9-67C2-43D2-81E5-EF1682ABC3BD";
paths = (
{
closed = 1;
nodes = (
"339 594 LINE",
"152 519 OFFCURVE",
"45 381 OFFCURVE",
"45 211 CURVE",
"45 73 OFFCURVE",
"114 -8 OFFCURVE",
"234 -8 CURVE",
"363 -8 OFFCURVE",
"429 72 OFFCURVE",
"429 182 CURVE",
"429 281 OFFCURVE",
"370 350 OFFCURVE",
"267 350 CURVE SMOOTH",
"221 350 OFFCURVE",
"178 334 OFFCURVE",
"141 308 CURVE",
"125 326 LINE",
"113 236 LINE",
"153 269 OFFCURVE",
"198 288 OFFCURVE",
"245 288 CURVE SMOOTH",
"314 288 OFFCURVE",
"353 248 OFFCURVE",
"353 175 CURVE",
"353 94 OFFCURVE",
"311 50 OFFCURVE",
"235 50 CURVE",
"157 50 OFFCURVE",
"122 108 OFFCURVE",
"122 212 CURVE",
"122 375 OFFCURVE",
"204 475 OFFCURVE",
"396 547 CURVE",
"396 556 LINE",
"345 594 LINE"
);
}
);
width = 471;
}
);
unicode = 0036;
},
{
color = 1;
glyphname = seven;
lastChange = "2016-10-28 13:22:51 +0000";
layers = (
{
layerId = "EDFD1FE9-67C2-43D2-81E5-EF1682ABC3BD";
paths = (
{
closed = 1;
nodes = (
"21 432 LINE",
"27 423 LINE",
"104 428 LINE",
"309 428 LINE",
"80 -69 LINE",
"85 -83 LINE",
"153 -102 LINE",
"201 20 LINE",
"391 438 LINE",
"390 501 LINE",
"347 499 LINE",
"119 499 LINE",
"27 502 LINE"
);
}
);
width = 419;
}
);
unicode = 0037;
},
{
color = 1;
glyphname = eight;
lastChange = "2016-10-28 13:22:51 +0000";
layers = (
{
layerId = "EDFD1FE9-67C2-43D2-81E5-EF1682ABC3BD";
paths = (
{
closed = 1;
nodes = (
"143 592 OFFCURVE",
"70 535 OFFCURVE",
"70 438 CURVE SMOOTH",
"70 362 OFFCURVE",
"118 324 OFFCURVE",
"174 298 CURVE",
"174 293 LINE",
"107 267 OFFCURVE",
"47 225 OFFCURVE",
"47 143 CURVE SMOOTH",
"47 55 OFFCURVE",
"113 -7 OFFCURVE",
"227 -7 CURVE SMOOTH",
"345 -7 OFFCURVE",
"423 57 OFFCURVE",
"423 159 CURVE SMOOTH",
"423 244 OFFCURVE",
"362 278 OFFCURVE",
"298 306 CURVE",
"298 311 LINE",
"359 339 OFFCURVE",
"405 379 OFFCURVE",
"405 452 CURVE SMOOTH",
"405 539 OFFCURVE",
"345 592 OFFCURVE",
"247 592 CURVE SMOOTH"
);
},
{
closed = 1;
nodes = (
"292 244 OFFCURVE",
"353 221 OFFCURVE",
"353 153 CURVE SMOOTH",
"353 94 OFFCURVE",
"309 52 OFFCURVE",
"233 52 CURVE SMOOTH",
"161 52 OFFCURVE",
"118 92 OFFCURVE",
"118 152 CURVE SMOOTH",
"118 221 OFFCURVE",
"173 250 OFFCURVE",
"228 270 CURVE"
);
},
{
closed = 1;
nodes = (
"301 532 OFFCURVE",
"337 499 OFFCURVE",
"337 444 CURVE SMOOTH",
"337 382 OFFCURVE",
"291 353 OFFCURVE",
"242 332 CURVE",
"188 354 OFFCURVE",
"140 379 OFFCURVE",
"140 440 CURVE SMOOTH",
"140 497 OFFCURVE",
"180 532 OFFCURVE",
"242 532 CURVE SMOOTH"
);
}
);
width = 477;
}
);
unicode = 0038;
},
{
color = 1;
glyphname = zero.lf;
lastChange = "2016-10-28 13:22:51 +0000";
layers = (
{
layerId = "EDFD1FE9-67C2-43D2-81E5-EF1682ABC3BD";
paths = (
{
closed = 1;
nodes = (
"130 591 OFFCURVE",
"52 482 OFFCURVE",
"52 287 CURVE SMOOTH",
"52 98 OFFCURVE",
"126 -7 OFFCURVE",
"260 -7 CURVE SMOOTH",
"400 -7 OFFCURVE",
"477 102 OFFCURVE",
"477 298 CURVE SMOOTH",
"477 486 OFFCURVE",
"404 591 OFFCURVE",
"271 591 CURVE SMOOTH"
);
},
{
closed = 1;
nodes = (
"360 512 OFFCURVE",
"410 435 OFFCURVE",
"410 288 CURVE SMOOTH",
"410 144 OFFCURVE",
"361 68 OFFCURVE",
"265 68 CURVE SMOOTH",
"169 68 OFFCURVE",
"119 146 OFFCURVE",
"119 293 CURVE SMOOTH",
"119 436 OFFCURVE",
"169 512 OFFCURVE",
"264 512 CURVE SMOOTH"
);
}
);
width = 530;
}
);
},
{
color = 1;
glyphname = one.lf;
lastChange = "2016-10-28 13:22:51 +0000";
layers = (
{
layerId = "EDFD1FE9-67C2-43D2-81E5-EF1682ABC3BD";
paths = (
{
closed = 1;
nodes = (
"10 532 LINE",
"10 465 LINE",
"18 460 LINE",
"154 496 LINE",
"154 197 LINE",
"151 0 LINE",
"235 0 LINE",
"232 207 LINE",
"236 584 LINE",
"223 594 LINE"
);
}
);
width = 358;
}
);
},
{
color = 1;
glyphname = two.lf;
lastChange = "2016-10-28 13:22:51 +0000";
layers = (
{
layerId = "EDFD1FE9-67C2-43D2-81E5-EF1682ABC3BD";
paths = (
{
closed = 1;
nodes = (
"177 592 OFFCURVE",
"110 558 OFFCURVE",
"55 503 CURVE",
"69 437 LINE",
"79 437 LINE",
"123 489 OFFCURVE",
"177 519 OFFCURVE",
"229 519 CURVE SMOOTH",
"285 519 OFFCURVE",
"314 485 OFFCURVE",
"314 443 CURVE SMOOTH",
"314 392 OFFCURVE",
"269 333 OFFCURVE",
"198 242 CURVE SMOOTH",
"49 56 LINE",
"49 2 LINE",
"53 -2 LINE",
"95 0 LINE",
"342 0 LINE",
"454 -4 LINE",
"465 64 LINE",
"459 72 LINE",
"366 68 LINE",
"160 68 LINE",
"157 72 LINE",
"270 220 LINE SMOOTH",
"355 330 OFFCURVE",
"397 398 OFFCURVE",
"397 462 CURVE SMOOTH",
"397 541 OFFCURVE",
"334 592 OFFCURVE",
"248 592 CURVE SMOOTH"
);
}
);
width = 491;
}
);
},
{
color = 1;
glyphname = three.lf;
lastChange = "2016-10-28 13:22:51 +0000";
layers = (
{
layerId = "EDFD1FE9-67C2-43D2-81E5-EF1682ABC3BD";
paths = (
{
closed = 1;
nodes = (
"138 593 OFFCURVE",
"84 573 OFFCURVE",
"33 531 CURVE",
"46 471 LINE",
"56 471 LINE",
"99 505 OFFCURVE",
"138 522 OFFCURVE",
"179 522 CURVE SMOOTH",
"232 522 OFFCURVE",
"265 494 OFFCURVE",
"265 447 CURVE SMOOTH",
"265 383 OFFCURVE",
"200 338 OFFCURVE",
"147 338 CURVE SMOOTH",
"104 337 LINE",
"102 278 LINE",
"107 272 LINE",
"167 272 LINE",
"249 269 OFFCURVE",
"293 234 OFFCURVE",
"293 173 CURVE SMOOTH",
"293 104 OFFCURVE",
"236 61 OFFCURVE",
"144 61 CURVE SMOOTH",
"114 61 OFFCURVE",
"78 65 OFFCURVE",
"45 73 CURVE",
"38 67 LINE",
"44 4 LINE",
"75 -2 OFFCURVE",
"113 -5 OFFCURVE",
"143 -5 CURVE SMOOTH",
"281 -5 OFFCURVE",
"373 66 OFFCURVE",
"373 170 CURVE SMOOTH",
"373 245 OFFCURVE",
"331 294 OFFCURVE",
"252 314 CURVE",
"252 318 LINE",
"318 351 OFFCURVE",
"351 410 OFFCURVE",
"351 464 CURVE SMOOTH",
"351 541 OFFCURVE",
"287 593 OFFCURVE",
"195 593 CURVE SMOOTH"
);
}
);
width = 430;
}
);
},
{
color = 1;
glyphname = four.lf;
lastChange = "2016-10-28 13:22:51 +0000";
layers = (
{
layerId = "EDFD1FE9-67C2-43D2-81E5-EF1682ABC3BD";
paths = (
{
closed = 1;
nodes = (
"279 586 LINE",
"29 226 LINE",
"29 171 LINE",
"35 163 LINE",
"102 165 LINE",
"354 165 LINE",
"448 163 LINE",
"453 223 LINE",
"446 231 LINE",
"104 231 LINE",
"280 484 LINE",
"286 484 LINE",
"286 212 LINE",
"284 1 LINE",
"288 -5 LINE",
"354 0 LINE",
"359 7 LINE",
"354 199 LINE",
"357 586 LINE"
);
}
);
width = 493;
}
);
},
{
color = 1;
glyphname = five.lf;
lastChange = "2016-10-28 13:22:51 +0000";
layers = (
{
layerId = "EDFD1FE9-67C2-43D2-81E5-EF1682ABC3BD";
paths = (
{
closed = 1;
nodes = (
"290 586 LINE",
"145 586 LINE",
"91 588 LINE",
"78 576 LINE",
"75 316 LINE",
"82 308 LINE",
"168 290 LINE SMOOTH",
"256 271 OFFCURVE",
"295 238 OFFCURVE",
"295 185 CURVE SMOOTH",
"295 108 OFFCURVE",
"233 59 OFFCURVE",
"134 59 CURVE SMOOTH",
"106 59 OFFCURVE",
"75 63 OFFCURVE",
"40 71 CURVE",
"34 64 LINE",
"40 3 LINE",
"71 -3 OFFCURVE",
"107 -7 OFFCURVE",
"134 -7 CURVE SMOOTH",
"279 -7 OFFCURVE",
"375 72 OFFCURVE",
"375 192 CURVE SMOOTH",
"375 276 OFFCURVE",
"322 326 OFFCURVE",
"205 353 CURVE SMOOTH",
"141 367 LINE",
"145 519 LINE",
"298 519 LINE",
"364 513 LINE",
"371 519 LINE",
"379 584 LINE",
"373 590 LINE"
);
}
);
width = 425;
}
);
},
{
color = 1;
glyphname = six.lf;
lastChange = "2016-10-28 13:22:51 +0000";
layers = (
{
layerId = "EDFD1FE9-67C2-43D2-81E5-EF1682ABC3BD";
paths = (
{
closed = 1;
nodes = (
"339 594 LINE",
"152 519 OFFCURVE",
"45 381 OFFCURVE",
"45 211 CURVE",
"45 73 OFFCURVE",
"114 -8 OFFCURVE",
"233 -8 CURVE",
"363 -8 OFFCURVE",
"429 72 OFFCURVE",
"429 182 CURVE",
"429 281 OFFCURVE",
"370 350 OFFCURVE",
"267 350 CURVE SMOOTH",
"221 350 OFFCURVE",
"178 334 OFFCURVE",
"141 308 CURVE",
"125 326 LINE",
"113 236 LINE",
"153 269 OFFCURVE",
"198 288 OFFCURVE",
"245 288 CURVE SMOOTH",
"314 288 OFFCURVE",
"353 248 OFFCURVE",
"353 175 CURVE",
"353 94 OFFCURVE",
"311 50 OFFCURVE",
"235 50 CURVE",
"156 50 OFFCURVE",
"121 108 OFFCURVE",
"121 212 CURVE",
"121 375 OFFCURVE",
"204 475 OFFCURVE",
"396 547 CURVE",
"396 556 LINE",
"345 594 LINE"
);
}
);
width = 473;
}
);
},
{
color = 1;
glyphname = seven.lf;
lastChange = "2016-10-28 13:22:51 +0000";
layers = (
{
layerId = "EDFD1FE9-67C2-43D2-81E5-EF1682ABC3BD";
paths = (
{
closed = 1;
nodes = (
"24 519 LINE",
"30 510 LINE",
"105 515 LINE",
"305 515 LINE",
"82 22 LINE",
"87 9 LINE",
"155 -11 LINE",
"202 111 LINE",
"387 525 LINE",
"387 587 LINE",
"344 586 LINE",
"121 586 LINE",
"30 588 LINE"
);
}
);
width = 419;
}
);
},
{
color = 1;
glyphname = eight.lf;
lastChange = "2016-10-28 13:22:51 +0000";
layers = (
{
layerId = "EDFD1FE9-67C2-43D2-81E5-EF1682ABC3BD";
paths = (
{
closed = 1;
nodes = (
"143 592 OFFCURVE",
"70 535 OFFCURVE",
"70 438 CURVE SMOOTH",
"70 362 OFFCURVE",
"118 324 OFFCURVE",
"174 298 CURVE",
"174 293 LINE",
"107 267 OFFCURVE",
"47 225 OFFCURVE",
"47 143 CURVE SMOOTH",
"47 55 OFFCURVE",
"113 -7 OFFCURVE",
"227 -7 CURVE SMOOTH",
"345 -7 OFFCURVE",
"423 57 OFFCURVE",
"423 159 CURVE SMOOTH",
"423 244 OFFCURVE",
"362 278 OFFCURVE",
"298 306 CURVE",
"298 311 LINE",
"359 339 OFFCURVE",
"405 379 OFFCURVE",
"405 452 CURVE SMOOTH",
"405 539 OFFCURVE",
"345 592 OFFCURVE",
"247 592 CURVE SMOOTH"
);
},
{
closed = 1;
nodes = (
"292 244 OFFCURVE",
"353 221 OFFCURVE",
"353 153 CURVE SMOOTH",
"353 94 OFFCURVE",
"309 52 OFFCURVE",
"233 52 CURVE SMOOTH",
"161 52 OFFCURVE",
"118 92 OFFCURVE",
"118 152 CURVE SMOOTH",
"118 221 OFFCURVE",
"173 250 OFFCURVE",
"228 270 CURVE"
);
},
{
closed = 1;
nodes = (
"301 532 OFFCURVE",
"337 499 OFFCURVE",
"337 444 CURVE SMOOTH",
"337 382 OFFCURVE",
"291 353 OFFCURVE",
"242 332 CURVE",
"188 354 OFFCURVE",
"140 379 OFFCURVE",
"140 440 CURVE SMOOTH",
"140 497 OFFCURVE",
"180 532 OFFCURVE",
"242 532 CURVE SMOOTH"
);
}
);
width = 477;
}
);
leftMetricsKey = eight;
rightMetricsKey = eight;
},
{
color = 1;
glyphname = nine.lf;
lastChange = "2016-10-28 13:22:51 +0000";
layers = (
{
layerId = "EDFD1FE9-67C2-43D2-81E5-EF1682ABC3BD";
paths = (
{
closed = 1;
nodes = (
"113 595 OFFCURVE",
"48 516 OFFCURVE",
"48 406 CURVE",
"48 306 OFFCURVE",
"106 237 OFFCURVE",
"210 237 CURVE SMOOTH",
"256 237 OFFCURVE",
"299 254 OFFCURVE",
"335 279 CURVE",
"351 262 LINE",
"364 351 LINE",
"324 319 OFFCURVE",
"279 299 OFFCURVE",
"231 299 CURVE SMOOTH",
"163 299 OFFCURVE",
"124 339 OFFCURVE",
"124 413 CURVE",
"124 494 OFFCURVE",
"165 538 OFFCURVE",
"241 538 CURVE",
"320 538 OFFCURVE",
"355 479 OFFCURVE",
"355 375 CURVE",
"355 212 OFFCURVE",
"272 113 OFFCURVE",
"81 41 CURVE",
"81 31 LINE",
"132 -7 LINE",
"137 -7 LINE",
"324 68 OFFCURVE",
"432 206 OFFCURVE",
"432 376 CURVE",
"432 515 OFFCURVE",
"363 595 OFFCURVE",
"243 595 CURVE"
);
}
);
width = 473;
}
);
},
{
color = 1;
glyphname = zero.sinf;
lastChange = "2016-10-28 13:22:51 +0000";
layers = (
{
layerId = "EDFD1FE9-67C2-43D2-81E5-EF1682ABC3BD";
paths = (
{
closed = 1;
nodes = (
"94 261 OFFCURVE",
"39 191 OFFCURVE",
"39 64 CURVE SMOOTH",
"39 -58 OFFCURVE",
"90 -125 OFFCURVE",
"183 -125 CURVE SMOOTH",
"281 -125 OFFCURVE",
"335 -55 OFFCURVE",
"335 73 CURVE SMOOTH",
"335 194 OFFCURVE",
"284 261 OFFCURVE",
"192 261 CURVE SMOOTH"
);
},
{
closed = 1;
nodes = (
"250 201 OFFCURVE",
"282 155 OFFCURVE",
"282 65 CURVE SMOOTH",
"282 -22 OFFCURVE",
"250 -68 OFFCURVE",
"188 -68 CURVE SMOOTH",
"124 -68 OFFCURVE",
"92 -22 OFFCURVE",
"92 69 CURVE SMOOTH",
"92 156 OFFCURVE",
"124 201 OFFCURVE",
"186 201 CURVE SMOOTH"
);
}
);
width = 374;
}
);
},
